<?xml version="1.0" encoding="utf-8"?>
<svg xmlns="http://www.w3.org/2000/svg" xmlns:xlink="http://www.w3.org/1999/xlink" width="800" height="600" viewBox="0 0 3200 2400">
<defs>
  <clipPath id="clip770">
    <rect x="0" y="0" width="3200" height="2400"/>
  </clipPath>
</defs>
<path clip-path="url(#clip770)" d="M0 2400 L3200 2400 L3200 0 L0 0  Z" fill="#ffffff" fill-rule="evenodd" fill-opacity="1"/>
<defs>
  <clipPath id="clip771">
    <rect x="394" y="190" width="2759" height="1942"/>
  </clipPath>
</defs>
<path clip-path="url(#clip770)" d="M379.942 2132.02 L3152.76 2132.02 L3152.76 191.758 L379.942 191.758  Z" fill="#ffffff" fill-rule="evenodd" fill-opacity="1"/>
<defs>
  <clipPath id="clip772">
    <rect x="379" y="191" width="2774" height="1941"/>
  </clipPath>
</defs>
<polyline clip-path="url(#clip772)" style="stroke:#000000; stroke-linecap:round; stroke-linejoin:round; stroke-width:2; stroke-opacity:0.1; fill:none" points="458.417,2132.02 458.417,191.758 "/>
<polyline clip-path="url(#clip772)" style="stroke:#000000; stroke-linecap:round; stroke-linejoin:round; stroke-width:2; stroke-opacity:0.1; fill:none" points="1112.38,2132.02 1112.38,191.758 "/>
<polyline clip-path="url(#clip772)" style="stroke:#000000; stroke-linecap:round; stroke-linejoin:round; stroke-width:2; stroke-opacity:0.1; fill:none" points="1766.35,2132.02 1766.35,191.758 "/>
<polyline clip-path="url(#clip772)" style="stroke:#000000; stroke-linecap:round; stroke-linejoin:round; stroke-width:2; stroke-opacity:0.1; fill:none" points="2420.31,2132.02 2420.31,191.758 "/>
<polyline clip-path="url(#clip772)" style="stroke:#000000; stroke-linecap:round; stroke-linejoin:round; stroke-width:2; stroke-opacity:0.1; fill:none" points="3074.28,2132.02 3074.28,191.758 "/>
<polyline clip-path="url(#clip772)" style="stroke:#000000; stroke-linecap:round; stroke-linejoin:round; stroke-width:2; stroke-opacity:0.1; fill:none" points="379.942,1808.27 3152.76,1808.27 "/>
<polyline clip-path="url(#clip772)" style="stroke:#000000; stroke-linecap:round; stroke-linejoin:round; stroke-width:2; stroke-opacity:0.1; fill:none" points="379.942,1432.88 3152.76,1432.88 "/>
<polyline clip-path="url(#clip772)" style="stroke:#000000; stroke-linecap:round; stroke-linejoin:round; stroke-width:2; stroke-opacity:0.1; fill:none" points="379.942,1057.49 3152.76,1057.49 "/>
<polyline clip-path="url(#clip772)" style="stroke:#000000; stroke-linecap:round; stroke-linejoin:round; stroke-width:2; stroke-opacity:0.1; fill:none" points="379.942,682.101 3152.76,682.101 "/>
<polyline clip-path="url(#clip772)" style="stroke:#000000; stroke-linecap:round; stroke-linejoin:round; stroke-width:2; stroke-opacity:0.1; fill:none" points="379.942,306.712 3152.76,306.712 "/>
<polyline clip-path="url(#clip770)" style="stroke:#000000; stroke-linecap:round; stroke-linejoin:round; stroke-width:4; stroke-opacity:1; fill:none" points="379.942,2132.02 3152.76,2132.02 "/>
<polyline clip-path="url(#clip770)" style="stroke:#000000; stroke-linecap:round; stroke-linejoin:round; stroke-width:4; stroke-opacity:1; fill:none" points="458.417,2132.02 458.417,2113.12 "/>
<polyline clip-path="url(#clip770)" style="stroke:#000000; stroke-linecap:round; stroke-linejoin:round; stroke-width:4; stroke-opacity:1; fill:none" points="1112.38,2132.02 1112.38,2113.12 "/>
<polyline clip-path="url(#clip770)" style="stroke:#000000; stroke-linecap:round; stroke-linejoin:round; stroke-width:4; stroke-opacity:1; fill:none" points="1766.35,2132.02 1766.35,2113.12 "/>
<polyline clip-path="url(#clip770)" style="stroke:#000000; stroke-linecap:round; stroke-linejoin:round; stroke-width:4; stroke-opacity:1; fill:none" points="2420.31,2132.02 2420.31,2113.12 "/>
<polyline clip-path="url(#clip770)" style="stroke:#000000; stroke-linecap:round; stroke-linejoin:round; stroke-width:4; stroke-opacity:1; fill:none" points="3074.28,2132.02 3074.28,2113.12 "/>
<path clip-path="url(#clip770)" d="M392.448 2178.13 Q386.129 2178.13 382.929 2184.37 Q379.769 2190.56 379.769 2203.04 Q379.769 2215.48 382.929 2221.72 Q386.129 2227.91 392.448 2227.91 Q398.808 2227.91 401.968 2221.72 Q405.168 2215.48 405.168 2203.04 Q405.168 2190.56 401.968 2184.37 Q398.808 2178.13 392.448 2178.13 M392.448 2171.65 Q402.616 2171.65 407.963 2179.71 Q413.351 2187.73 413.351 2203.04 Q413.351 2218.31 407.963 2226.37 Q402.616 2234.39 392.448 2234.39 Q382.281 2234.39 376.893 2226.37 Q371.546 2218.31 371.546 2203.04 Q371.546 2187.73 376.893 2179.71 Q382.281 2171.65 392.448 2171.65 Z" fill="#000000" fill-rule="nonzero" fill-opacity="1" /><path clip-path="url(#clip770)" d="M427.732 2222.93 L436.279 2222.93 L436.279 2233.22 L427.732 2233.22 L427.732 2222.93 Z" fill="#000000" fill-rule="nonzero" fill-opacity="1" /><path clip-path="url(#clip770)" d="M471.603 2178.13 Q465.284 2178.13 462.083 2184.37 Q458.924 2190.56 458.924 2203.04 Q458.924 2215.48 462.083 2221.72 Q465.284 2227.91 471.603 2227.91 Q477.963 2227.91 481.123 2221.72 Q484.323 2215.48 484.323 2203.04 Q484.323 2190.56 481.123 2184.37 Q477.963 2178.13 471.603 2178.13 M471.603 2171.65 Q481.771 2171.65 487.118 2179.71 Q492.506 2187.73 492.506 2203.04 Q492.506 2218.31 487.118 2226.37 Q481.771 2234.39 471.603 2234.39 Q461.435 2234.39 456.048 2226.37 Q450.7 2218.31 450.7 2203.04 Q450.7 2187.73 456.048 2179.71 Q461.435 2171.65 471.603 2171.65 Z" fill="#000000" fill-rule="nonzero" fill-opacity="1" /><path clip-path="url(#clip770)" d="M524.386 2178.13 Q518.067 2178.13 514.867 2184.37 Q511.707 2190.56 511.707 2203.04 Q511.707 2215.48 514.867 2221.72 Q518.067 2227.91 524.386 2227.91 Q530.746 2227.91 533.906 2221.72 Q537.106 2215.48 537.106 2203.04 Q537.106 2190.56 533.906 2184.37 Q530.746 2178.13 524.386 2178.13 M524.386 2171.65 Q534.554 2171.65 539.901 2179.71 Q545.289 2187.73 545.289 2203.04 Q545.289 2218.31 539.901 2226.37 Q534.554 2234.39 524.386 2234.39 Q514.219 2234.39 508.831 2226.37 Q503.484 2218.31 503.484 2203.04 Q503.484 2187.73 508.831 2179.71 Q514.219 2171.65 524.386 2171.65 Z" fill="#000000" fill-rule="nonzero" fill-opacity="1" /><path clip-path="url(#clip770)" d="M1047.29 2178.13 Q1040.97 2178.13 1037.77 2184.37 Q1034.61 2190.56 1034.61 2203.04 Q1034.61 2215.48 1037.77 2221.72 Q1040.97 2227.91 1047.29 2227.91 Q1053.64 2227.91 1056.8 2221.72 Q1060 2215.48 1060 2203.04 Q1060 2190.56 1056.8 2184.37 Q1053.64 2178.13 1047.29 2178.13 M1047.29 2171.65 Q1057.45 2171.65 1062.8 2179.71 Q1068.19 2187.73 1068.19 2203.04 Q1068.19 2218.31 1062.8 2226.37 Q1057.45 2234.39 1047.29 2234.39 Q1037.12 2234.39 1031.73 2226.37 Q1026.38 2218.31 1026.38 2203.04 Q1026.38 2187.73 1031.73 2179.71 Q1037.12 2171.65 1047.29 2171.65 Z" fill="#000000" fill-rule="nonzero" fill-opacity="1" /><path clip-path="url(#clip770)" d="M1082.57 2222.93 L1091.12 2222.93 L1091.12 2233.22 L1082.57 2233.22 L1082.57 2222.93 Z" fill="#000000" fill-rule="nonzero" fill-opacity="1" /><path clip-path="url(#clip770)" d="M1115.99 2226.33 L1144.55 2226.33 L1144.55 2233.22 L1106.14 2233.22 L1106.14 2226.33 Q1110.8 2221.51 1118.82 2213.41 Q1126.89 2205.27 1128.95 2202.92 Q1132.88 2198.5 1134.42 2195.47 Q1136 2192.39 1136 2189.43 Q1136 2184.61 1132.6 2181.57 Q1129.23 2178.53 1123.81 2178.53 Q1119.96 2178.53 1115.66 2179.87 Q1111.41 2181.21 1106.55 2183.92 L1106.55 2175.66 Q1111.49 2173.67 1115.79 2172.66 Q1120.08 2171.65 1123.64 2171.65 Q1133.04 2171.65 1138.63 2176.35 Q1144.22 2181.04 1144.22 2188.9 Q1144.22 2192.63 1142.81 2195.99 Q1141.43 2199.31 1137.74 2203.85 Q1136.73 2205.03 1131.3 2210.66 Q1125.87 2216.25 1115.99 2226.33 Z" fill="#000000" fill-rule="nonzero" fill-opacity="1" /><path clip-path="url(#clip770)" d="M1161.8 2172.74 L1193.93 2172.74 L1193.93 2179.63 L1169.3 2179.63 L1169.3 2194.45 Q1171.08 2193.85 1172.86 2193.56 Q1174.65 2193.24 1176.43 2193.24 Q1186.56 2193.24 1192.47 2198.79 Q1198.38 2204.34 1198.38 2213.82 Q1198.38 2223.58 1192.31 2229.01 Q1186.23 2234.39 1175.17 2234.39 Q1171.36 2234.39 1167.39 2233.75 Q1163.46 2233.1 1159.25 2231.8 L1159.25 2223.58 Q1162.9 2225.56 1166.79 2226.54 Q1170.68 2227.51 1175.01 2227.51 Q1182.02 2227.51 1186.11 2223.82 Q1190.2 2220.14 1190.2 2213.82 Q1190.2 2207.5 1186.11 2203.81 Q1182.02 2200.12 1175.01 2200.12 Q1171.73 2200.12 1168.45 2200.85 Q1165.21 2201.58 1161.8 2203.12 L1161.8 2172.74 Z" fill="#000000" fill-rule="nonzero" fill-opacity="1" /><path clip-path="url(#clip770)" d="M1700.38 2178.13 Q1694.06 2178.13 1690.86 2184.37 Q1687.7 2190.56 1687.7 2203.04 Q1687.7 2215.48 1690.86 2221.72 Q1694.06 2227.91 1700.38 2227.91 Q1706.74 2227.91 1709.9 2221.72 Q1713.1 2215.48 1713.1 2203.04 Q1713.1 2190.56 1709.9 2184.37 Q1706.74 2178.13 1700.38 2178.13 M1700.38 2171.65 Q1710.55 2171.65 1715.89 2179.71 Q1721.28 2187.73 1721.28 2203.04 Q1721.28 2218.31 1715.89 2226.37 Q1710.55 2234.39 1700.38 2234.39 Q1690.21 2234.39 1684.82 2226.37 Q1679.48 2218.31 1679.48 2203.04 Q1679.48 2187.73 1684.82 2179.71 Q1690.21 2171.65 1700.38 2171.65 Z" fill="#000000" fill-rule="nonzero" fill-opacity="1" /><path clip-path="url(#clip770)" d="M1735.66 2222.93 L1744.21 2222.93 L1744.21 2233.22 L1735.66 2233.22 L1735.66 2222.93 Z" fill="#000000" fill-rule="nonzero" fill-opacity="1" /><path clip-path="url(#clip770)" d="M1762.12 2172.74 L1794.24 2172.74 L1794.24 2179.63 L1769.61 2179.63 L1769.61 2194.45 Q1771.39 2193.85 1773.17 2193.56 Q1774.96 2193.24 1776.74 2193.24 Q1786.87 2193.24 1792.78 2198.79 Q1798.7 2204.34 1798.7 2213.82 Q1798.7 2223.58 1792.62 2229.01 Q1786.54 2234.39 1775.48 2234.39 Q1771.68 2234.39 1767.71 2233.75 Q1763.78 2233.1 1759.56 2231.8 L1759.56 2223.58 Q1763.21 2225.56 1767.1 2226.54 Q1770.99 2227.51 1775.32 2227.51 Q1782.33 2227.51 1786.42 2223.82 Q1790.51 2220.14 1790.51 2213.82 Q1790.51 2207.5 1786.42 2203.81 Q1782.33 2200.12 1775.32 2200.12 Q1772.04 2200.12 1768.76 2200.85 Q1765.52 2201.58 1762.12 2203.12 L1762.12 2172.74 Z" fill="#000000" fill-rule="nonzero" fill-opacity="1" /><path clip-path="url(#clip770)" d="M1832.32 2178.13 Q1826 2178.13 1822.8 2184.37 Q1819.64 2190.56 1819.64 2203.04 Q1819.64 2215.48 1822.8 2221.72 Q1826 2227.91 1832.32 2227.91 Q1838.68 2227.91 1841.84 2221.72 Q1845.04 2215.48 1845.04 2203.04 Q1845.04 2190.56 1841.84 2184.37 Q1838.68 2178.13 1832.32 2178.13 M1832.32 2171.65 Q1842.49 2171.65 1847.83 2179.71 Q1853.22 2187.73 1853.22 2203.04 Q1853.22 2218.31 1847.83 2226.37 Q1842.49 2234.39 1832.32 2234.39 Q1822.15 2234.39 1816.76 2226.37 Q1811.42 2218.31 1811.42 2203.04 Q1811.42 2187.73 1816.76 2179.71 Q1822.15 2171.65 1832.32 2171.65 Z" fill="#000000" fill-rule="nonzero" fill-opacity="1" /><path clip-path="url(#clip770)" d="M2355.22 2178.13 Q2348.9 2178.13 2345.7 2184.37 Q2342.54 2190.56 2342.54 2203.04 Q2342.54 2215.48 2345.7 2221.72 Q2348.9 2227.91 2355.22 2227.91 Q2361.58 2227.91 2364.74 2221.72 Q2367.94 2215.48 2367.94 2203.04 Q2367.94 2190.56 2364.74 2184.37 Q2361.58 2178.13 2355.22 2178.13 M2355.22 2171.65 Q2365.38 2171.65 2370.73 2179.71 Q2376.12 2187.73 2376.12 2203.04 Q2376.12 2218.31 2370.73 2226.37 Q2365.38 2234.39 2355.22 2234.39 Q2345.05 2234.39 2339.66 2226.37 Q2334.31 2218.31 2334.31 2203.04 Q2334.31 2187.73 2339.66 2179.71 Q2345.05 2171.65 2355.22 2171.65 Z" fill="#000000" fill-rule="nonzero" fill-opacity="1" /><path clip-path="url(#clip770)" d="M2390.5 2222.93 L2399.05 2222.93 L2399.05 2233.22 L2390.5 2233.22 L2390.5 2222.93 Z" fill="#000000" fill-rule="nonzero" fill-opacity="1" /><path clip-path="url(#clip770)" d="M2414.81 2172.74 L2453.69 2172.74 L2453.69 2176.22 L2431.74 2233.22 L2423.19 2233.22 L2443.85 2179.63 L2414.81 2179.63 L2414.81 2172.74 Z" fill="#000000" fill-rule="nonzero" fill-opacity="1" /><path clip-path="url(#clip770)" d="M2469.74 2172.74 L2501.86 2172.74 L2501.86 2179.63 L2477.23 2179.63 L2477.23 2194.45 Q2479.01 2193.85 2480.79 2193.56 Q2482.58 2193.24 2484.36 2193.24 Q2494.49 2193.24 2500.4 2198.79 Q2506.32 2204.34 2506.32 2213.82 Q2506.32 2223.58 2500.24 2229.01 Q2494.16 2234.39 2483.1 2234.39 Q2479.3 2234.39 2475.33 2233.75 Q2471.4 2233.1 2467.18 2231.8 L2467.18 2223.58 Q2470.83 2225.56 2474.72 2226.54 Q2478.61 2227.51 2482.94 2227.51 Q2489.95 2227.51 2494.04 2223.82 Q2498.13 2220.14 2498.13 2213.82 Q2498.13 2207.5 2494.04 2203.81 Q2489.95 2200.12 2482.94 2200.12 Q2479.66 2200.12 2476.38 2200.85 Q2473.14 2201.58 2469.74 2203.12 L2469.74 2172.74 Z" fill="#000000" fill-rule="nonzero" fill-opacity="1" /><path clip-path="url(#clip770)" d="M2990.41 2226.33 L3003.77 2226.33 L3003.77 2180.19 L2989.23 2183.11 L2989.23 2175.66 L3003.69 2172.74 L3011.88 2172.74 L3011.88 2226.33 L3025.24 2226.33 L3025.24 2233.22 L2990.41 2233.22 L2990.41 2226.33 Z" fill="#000000" fill-rule="nonzero" fill-opacity="1" /><path clip-path="url(#clip770)" d="M3041.77 2222.93 L3050.32 2222.93 L3050.32 2233.22 L3041.77 2233.22 L3041.77 2222.93 Z" fill="#000000" fill-rule="nonzero" fill-opacity="1" /><path clip-path="url(#clip770)" d="M3085.64 2178.13 Q3079.32 2178.13 3076.12 2184.37 Q3072.96 2190.56 3072.96 2203.04 Q3072.96 2215.48 3076.12 2221.72 Q3079.32 2227.91 3085.64 2227.91 Q3092 2227.91 3095.16 2221.72 Q3098.36 2215.48 3098.36 2203.04 Q3098.36 2190.56 3095.16 2184.37 Q3092 2178.13 3085.64 2178.13 M3085.64 2171.65 Q3095.81 2171.65 3101.16 2179.71 Q3106.55 2187.73 3106.55 2203.04 Q3106.55 2218.31 3101.16 2226.37 Q3095.81 2234.39 3085.64 2234.39 Q3075.48 2234.39 3070.09 2226.37 Q3064.74 2218.31 3064.74 2203.04 Q3064.74 2187.73 3070.09 2179.71 Q3075.48 2171.65 3085.64 2171.65 Z" fill="#000000" fill-rule="nonzero" fill-opacity="1" /><path clip-path="url(#clip770)" d="M3138.43 2178.13 Q3132.11 2178.13 3128.91 2184.37 Q3125.75 2190.56 3125.75 2203.04 Q3125.75 2215.48 3128.91 2221.72 Q3132.11 2227.91 3138.43 2227.91 Q3144.79 2227.91 3147.95 2221.72 Q3151.15 2215.48 3151.15 2203.04 Q3151.15 2190.56 3147.95 2184.37 Q3144.79 2178.13 3138.43 2178.13 M3138.43 2171.65 Q3148.59 2171.65 3153.94 2179.71 Q3159.33 2187.73 3159.33 2203.04 Q3159.33 2218.31 3153.94 2226.37 Q3148.59 2234.39 3138.43 2234.39 Q3128.26 2234.39 3122.87 2226.37 Q3117.52 2218.31 3117.52 2203.04 Q3117.52 2187.73 3122.87 2179.71 Q3128.26 2171.65 3138.43 2171.65 Z" fill="#000000" fill-rule="nonzero" fill-opacity="1" /><path clip-path="url(#clip770)" d="M1789.3 2285.6 L1772.72 2352.3 Q1772.26 2354.41 1772.26 2354.93 Q1772.26 2355.64 1772.43 2355.93 Q1772.67 2356.28 1773.95 2356.57 Q1775.3 2356.87 1777.99 2356.87 Q1778.99 2356.87 1779.34 2356.87 Q1779.69 2356.87 1780.22 2356.98 Q1780.75 2357.1 1780.92 2357.39 Q1781.1 2357.69 1781.1 2358.15 Q1781.1 2360.56 1778.99 2360.56 Q1777 2360.56 1772.84 2360.38 Q1768.68 2360.2 1766.63 2360.2 Q1764.64 2360.2 1760.6 2360.38 Q1756.56 2360.56 1754.63 2360.56 Q1753.93 2360.56 1753.52 2360.2 Q1753.11 2359.91 1753.11 2359.56 L1753.05 2359.27 Q1753.05 2357.63 1753.69 2357.22 Q1754.34 2356.87 1755.8 2356.87 Q1760.84 2356.81 1762.3 2356.11 Q1763.77 2355.4 1764.47 2352.88 L1769.86 2331.45 Q1762.65 2338.66 1755.68 2338.66 Q1748.95 2338.66 1744.38 2333.39 Q1739.87 2328.06 1739.87 2319.45 Q1739.87 2313.07 1742.39 2306.63 Q1744.97 2300.18 1748.95 2295.32 Q1752.99 2290.46 1758.26 2287.42 Q1763.53 2284.32 1768.74 2284.32 Q1772.08 2284.32 1775.07 2286.25 Q1778.11 2288.18 1779.93 2292.69 Q1781.45 2290.11 1784.26 2287.3 Q1787.07 2284.43 1788.07 2284.43 Q1788.65 2284.43 1788.94 2284.84 Q1789.3 2285.19 1789.3 2285.6 M1778.23 2297.49 Q1778.23 2296.91 1777.76 2295.44 Q1777.35 2293.98 1776.41 2291.99 Q1775.54 2289.94 1773.49 2288.47 Q1771.44 2286.95 1768.74 2286.95 Q1764.88 2286.95 1760.72 2290.7 Q1756.62 2294.39 1753.93 2300.83 Q1752.23 2305.04 1750.3 2312.89 Q1748.37 2320.74 1748.37 2324.72 Q1748.37 2325.66 1748.42 2326.71 Q1748.54 2327.76 1749.01 2329.52 Q1749.48 2331.28 1750.18 2332.62 Q1750.94 2333.97 1752.46 2334.97 Q1753.99 2335.96 1756.04 2335.96 Q1760.49 2335.96 1764.94 2332.16 Q1769.39 2328.35 1771.26 2324.95 Q1771.49 2324.6 1774.83 2311.31 Q1778.23 2298.02 1778.23 2297.49 Z" fill="#000000" fill-rule="nonzero" fill-opacity="1" /><polyline clip-path="url(#clip770)" style="stroke:#000000; stroke-linecap:round; stroke-linejoin:round; stroke-width:4; stroke-opacity:1; fill:none" points="379.942,2132.02 379.942,191.758 "/>
<polyline clip-path="url(#clip770)" style="stroke:#000000; stroke-linecap:round; stroke-linejoin:round; stroke-width:4; stroke-opacity:1; fill:none" points="379.942,1808.27 398.839,1808.27 "/>
<polyline clip-path="url(#clip770)" style="stroke:#000000; stroke-linecap:round; stroke-linejoin:round; stroke-width:4; stroke-opacity:1; fill:none" points="379.942,1432.88 398.839,1432.88 "/>
<polyline clip-path="url(#clip770)" style="stroke:#000000; stroke-linecap:round; stroke-linejoin:round; stroke-width:4; stroke-opacity:1; fill:none" points="379.942,1057.49 398.839,1057.49 "/>
<polyline clip-path="url(#clip770)" style="stroke:#000000; stroke-linecap:round; stroke-linejoin:round; stroke-width:4; stroke-opacity:1; fill:none" points="379.942,682.101 398.839,682.101 "/>
<polyline clip-path="url(#clip770)" style="stroke:#000000; stroke-linecap:round; stroke-linejoin:round; stroke-width:4; stroke-opacity:1; fill:none" points="379.942,306.712 398.839,306.712 "/>
<path clip-path="url(#clip770)" d="M180.843 1783.42 Q174.523 1783.42 171.323 1789.66 Q168.163 1795.85 168.163 1808.33 Q168.163 1820.77 171.323 1827.01 Q174.523 1833.2 180.843 1833.2 Q187.203 1833.2 190.362 1827.01 Q193.563 1820.77 193.563 1808.33 Q193.563 1795.85 190.362 1789.66 Q187.203 1783.42 180.843 1783.42 M180.843 1776.94 Q191.011 1776.94 196.358 1785 Q201.745 1793.02 201.745 1808.33 Q201.745 1823.6 196.358 1831.66 Q191.011 1839.69 180.843 1839.69 Q170.675 1839.69 165.287 1831.66 Q159.94 1823.6 159.94 1808.33 Q159.94 1793.02 165.287 1785 Q170.675 1776.94 180.843 1776.94 Z" fill="#000000" fill-rule="nonzero" fill-opacity="1" /><path clip-path="url(#clip770)" d="M216.126 1828.22 L224.674 1828.22 L224.674 1838.51 L216.126 1838.51 L216.126 1828.22 Z" fill="#000000" fill-rule="nonzero" fill-opacity="1" /><path clip-path="url(#clip770)" d="M242.741 1837.25 L242.741 1829.8 Q245.819 1831.26 248.979 1832.03 Q252.139 1832.8 255.177 1832.8 Q263.279 1832.8 267.532 1827.37 Q271.826 1821.9 272.434 1810.8 Q270.084 1814.29 266.479 1816.15 Q262.874 1818.01 258.499 1818.01 Q249.425 1818.01 244.118 1812.54 Q238.852 1807.03 238.852 1797.52 Q238.852 1788.2 244.361 1782.57 Q249.87 1776.94 259.025 1776.94 Q269.517 1776.94 275.026 1785 Q280.576 1793.02 280.576 1808.33 Q280.576 1822.63 273.771 1831.18 Q267.006 1839.69 255.541 1839.69 Q252.463 1839.69 249.303 1839.08 Q246.143 1838.47 242.741 1837.25 M259.025 1811.61 Q264.535 1811.61 267.735 1807.85 Q270.975 1804.08 270.975 1797.52 Q270.975 1790.99 267.735 1787.23 Q264.535 1783.42 259.025 1783.42 Q253.516 1783.42 250.275 1787.23 Q247.075 1790.99 247.075 1797.52 Q247.075 1804.08 250.275 1807.85 Q253.516 1811.61 259.025 1811.61 Z" fill="#000000" fill-rule="nonzero" fill-opacity="1" /><path clip-path="url(#clip770)" d="M295.362 1778.03 L327.486 1778.03 L327.486 1784.92 L302.856 1784.92 L302.856 1799.74 Q304.638 1799.14 306.421 1798.85 Q308.203 1798.53 309.986 1798.53 Q320.113 1798.53 326.027 1804.08 Q331.942 1809.63 331.942 1819.11 Q331.942 1828.87 325.865 1834.3 Q319.789 1839.69 308.73 1839.69 Q304.922 1839.69 300.952 1839.04 Q297.023 1838.39 292.81 1837.09 L292.81 1828.87 Q296.456 1830.85 300.344 1831.83 Q304.233 1832.8 308.568 1832.8 Q315.576 1832.8 319.667 1829.11 Q323.759 1825.43 323.759 1819.11 Q323.759 1812.79 319.667 1809.1 Q315.576 1805.41 308.568 1805.41 Q305.287 1805.41 302.005 1806.14 Q298.765 1806.87 295.362 1808.41 L295.362 1778.03 Z" fill="#000000" fill-rule="nonzero" fill-opacity="1" /><path clip-path="url(#clip770)" d="M163.019 1456.23 L176.387 1456.23 L176.387 1410.09 L161.844 1413.01 L161.844 1405.56 L176.306 1402.64 L184.489 1402.64 L184.489 1456.23 L197.857 1456.23 L197.857 1463.12 L163.019 1463.12 L163.019 1456.23 Z" fill="#000000" fill-rule="nonzero" fill-opacity="1" /><path clip-path="url(#clip770)" d="M214.384 1452.83 L222.932 1452.83 L222.932 1463.12 L214.384 1463.12 L214.384 1452.83 Z" fill="#000000" fill-rule="nonzero" fill-opacity="1" /><path clip-path="url(#clip770)" d="M258.256 1408.03 Q251.936 1408.03 248.736 1414.27 Q245.576 1420.46 245.576 1432.94 Q245.576 1445.38 248.736 1451.62 Q251.936 1457.81 258.256 1457.81 Q264.616 1457.81 267.775 1451.62 Q270.975 1445.38 270.975 1432.94 Q270.975 1420.46 267.775 1414.27 Q264.616 1408.03 258.256 1408.03 M258.256 1401.55 Q268.423 1401.55 273.771 1409.61 Q279.158 1417.63 279.158 1432.94 Q279.158 1448.21 273.771 1456.27 Q268.423 1464.3 258.256 1464.3 Q248.088 1464.3 242.7 1456.27 Q237.353 1448.21 237.353 1432.94 Q237.353 1417.63 242.7 1409.61 Q248.088 1401.55 258.256 1401.55 Z" fill="#000000" fill-rule="nonzero" fill-opacity="1" /><path clip-path="url(#clip770)" d="M311.039 1408.03 Q304.719 1408.03 301.519 1414.27 Q298.36 1420.46 298.36 1432.94 Q298.36 1445.38 301.519 1451.62 Q304.719 1457.81 311.039 1457.81 Q317.399 1457.81 320.559 1451.62 Q323.759 1445.38 323.759 1432.94 Q323.759 1420.46 320.559 1414.27 Q317.399 1408.03 311.039 1408.03 M311.039 1401.55 Q321.207 1401.55 326.554 1409.61 Q331.942 1417.63 331.942 1432.94 Q331.942 1448.21 326.554 1456.27 Q321.207 1464.3 311.039 1464.3 Q300.871 1464.3 295.483 1456.27 Q290.136 1448.21 290.136 1432.94 Q290.136 1417.63 295.483 1409.61 Q300.871 1401.55 311.039 1401.55 Z" fill="#000000" fill-rule="nonzero" fill-opacity="1" /><path clip-path="url(#clip770)" d="M164.761 1080.84 L178.129 1080.84 L178.129 1034.7 L163.586 1037.62 L163.586 1030.17 L178.048 1027.25 L186.231 1027.25 L186.231 1080.84 L199.599 1080.84 L199.599 1087.73 L164.761 1087.73 L164.761 1080.84 Z" fill="#000000" fill-rule="nonzero" fill-opacity="1" /><path clip-path="url(#clip770)" d="M216.126 1077.44 L224.674 1077.44 L224.674 1087.73 L216.126 1087.73 L216.126 1077.44 Z" fill="#000000" fill-rule="nonzero" fill-opacity="1" /><path clip-path="url(#clip770)" d="M259.997 1032.64 Q253.678 1032.64 250.478 1038.88 Q247.318 1045.08 247.318 1057.55 Q247.318 1069.99 250.478 1076.23 Q253.678 1082.42 259.997 1082.42 Q266.357 1082.42 269.517 1076.23 Q272.717 1069.99 272.717 1057.55 Q272.717 1045.08 269.517 1038.88 Q266.357 1032.64 259.997 1032.64 M259.997 1026.16 Q270.165 1026.16 275.512 1034.22 Q280.9 1042.24 280.9 1057.55 Q280.9 1072.82 275.512 1080.89 Q270.165 1088.91 259.997 1088.91 Q249.83 1088.91 244.442 1080.89 Q239.095 1072.82 239.095 1057.55 Q239.095 1042.24 244.442 1034.22 Q249.83 1026.16 259.997 1026.16 Z" fill="#000000" fill-rule="nonzero" fill-opacity="1" /><path clip-path="url(#clip770)" d="M295.362 1027.25 L327.486 1027.25 L327.486 1034.14 L302.856 1034.14 L302.856 1048.96 Q304.638 1048.36 306.421 1048.07 Q308.203 1047.75 309.986 1047.75 Q320.113 1047.75 326.027 1053.3 Q331.942 1058.85 331.942 1068.33 Q331.942 1078.09 325.865 1083.52 Q319.789 1088.91 308.73 1088.91 Q304.922 1088.91 300.952 1088.26 Q297.023 1087.61 292.81 1086.31 L292.81 1078.09 Q296.456 1080.07 300.344 1081.05 Q304.233 1082.02 308.568 1082.02 Q315.576 1082.02 319.667 1078.33 Q323.759 1074.65 323.759 1068.33 Q323.759 1062.01 319.667 1058.32 Q315.576 1054.64 308.568 1054.64 Q305.287 1054.64 302.005 1055.36 Q298.765 1056.09 295.362 1057.63 L295.362 1027.25 Z" fill="#000000" fill-rule="nonzero" fill-opacity="1" /><path clip-path="url(#clip770)" d="M163.019 705.455 L176.387 705.455 L176.387 659.315 L161.844 662.232 L161.844 654.778 L176.306 651.861 L184.489 651.861 L184.489 705.455 L197.857 705.455 L197.857 712.341 L163.019 712.341 L163.019 705.455 Z" fill="#000000" fill-rule="nonzero" fill-opacity="1" /><path clip-path="url(#clip770)" d="M214.384 702.052 L222.932 702.052 L222.932 712.341 L214.384 712.341 L214.384 702.052 Z" fill="#000000" fill-rule="nonzero" fill-opacity="1" /><path clip-path="url(#clip770)" d="M242.174 705.455 L255.541 705.455 L255.541 659.315 L240.999 662.232 L240.999 654.778 L255.46 651.861 L263.643 651.861 L263.643 705.455 L277.011 705.455 L277.011 712.341 L242.174 712.341 L242.174 705.455 Z" fill="#000000" fill-rule="nonzero" fill-opacity="1" /><path clip-path="url(#clip770)" d="M311.039 657.249 Q304.719 657.249 301.519 663.488 Q298.36 669.685 298.36 682.162 Q298.36 694.599 301.519 700.837 Q304.719 707.035 311.039 707.035 Q317.399 707.035 320.559 700.837 Q323.759 694.599 323.759 682.162 Q323.759 669.685 320.559 663.488 Q317.399 657.249 311.039 657.249 M311.039 650.768 Q321.207 650.768 326.554 658.829 Q331.942 666.85 331.942 682.162 Q331.942 697.434 326.554 705.495 Q321.207 713.516 311.039 713.516 Q300.871 713.516 295.483 705.495 Q290.136 697.434 290.136 682.162 Q290.136 666.85 295.483 658.829 Q300.871 650.768 311.039 650.768 Z" fill="#000000" fill-rule="nonzero" fill-opacity="1" /><path clip-path="url(#clip770)" d="M164.761 330.065 L178.129 330.065 L178.129 283.926 L163.586 286.842 L163.586 279.389 L178.048 276.472 L186.231 276.472 L186.231 330.065 L199.599 330.065 L199.599 336.952 L164.761 336.952 L164.761 330.065 Z" fill="#000000" fill-rule="nonzero" fill-opacity="1" /><path clip-path="url(#clip770)" d="M216.126 326.663 L224.674 326.663 L224.674 336.952 L216.126 336.952 L216.126 326.663 Z" fill="#000000" fill-rule="nonzero" fill-opacity="1" /><path clip-path="url(#clip770)" d="M243.915 330.065 L257.283 330.065 L257.283 283.926 L242.741 286.842 L242.741 279.389 L257.202 276.472 L265.385 276.472 L265.385 330.065 L278.753 330.065 L278.753 336.952 L243.915 336.952 L243.915 330.065 Z" fill="#000000" fill-rule="nonzero" fill-opacity="1" /><path clip-path="url(#clip770)" d="M295.362 276.472 L327.486 276.472 L327.486 283.358 L302.856 283.358 L302.856 298.185 Q304.638 297.577 306.421 297.294 Q308.203 296.969 309.986 296.969 Q320.113 296.969 326.027 302.519 Q331.942 308.069 331.942 317.548 Q331.942 327.311 325.865 332.739 Q319.789 338.127 308.73 338.127 Q304.922 338.127 300.952 337.478 Q297.023 336.83 292.81 335.534 L292.81 327.311 Q296.456 329.296 300.344 330.268 Q304.233 331.24 308.568 331.24 Q315.576 331.24 319.667 327.554 Q323.759 323.867 323.759 317.548 Q323.759 311.229 319.667 307.542 Q315.576 303.856 308.568 303.856 Q305.287 303.856 302.005 304.585 Q298.765 305.314 295.362 306.854 L295.362 276.472 Z" fill="#000000" fill-rule="nonzero" fill-opacity="1" /><path clip-path="url(#clip770)" d="M23.6941 1415.71 L33.6478 1415.71 Q31.1593 1420.22 29.9441 1424.79 Q28.6709 1429.31 28.6709 1433.94 Q28.6709 1444.29 35.2681 1450.02 Q41.8074 1455.75 53.6708 1455.75 Q65.5342 1455.75 72.1313 1450.02 Q78.6707 1444.29 78.6707 1433.94 Q78.6707 1429.31 77.4554 1424.79 Q76.1822 1420.22 73.6938 1415.71 L83.5317 1415.71 Q85.6151 1420.16 86.6567 1424.97 Q87.6984 1429.71 87.6984 1435.09 Q87.6984 1449.73 78.497 1458.36 Q69.2957 1466.98 53.6708 1466.98 Q37.8144 1466.98 28.7288 1458.3 Q19.6432 1449.56 19.6432 1434.4 Q19.6432 1429.48 20.6849 1424.79 Q21.6687 1420.1 23.6941 1415.71 Z" fill="#000000" fill-rule="nonzero" fill-opacity="1" /><path clip-path="url(#clip770)" d="M28.6709 1372.07 Q28.6709 1380.64 35.3839 1385.61 Q42.0389 1390.59 53.6708 1390.59 Q65.3027 1390.59 72.0156 1385.67 Q78.6707 1380.7 78.6707 1372.07 Q78.6707 1363.57 71.9577 1358.59 Q65.2448 1353.61 53.6708 1353.61 Q42.1547 1353.61 35.4417 1358.59 Q28.6709 1363.57 28.6709 1372.07 M19.6432 1372.07 Q19.6432 1358.18 28.6709 1350.26 Q37.6987 1342.33 53.6708 1342.33 Q69.5851 1342.33 78.6707 1350.26 Q87.6984 1358.18 87.6984 1372.07 Q87.6984 1386.02 78.6707 1393.95 Q69.5851 1401.82 53.6708 1401.82 Q37.6987 1401.82 28.6709 1393.95 Q19.6432 1386.02 19.6432 1372.07 Z" fill="#000000" fill-rule="nonzero" fill-opacity="1" /><path clip-path="url(#clip770)" d="M50.9509 1269.24 L56.1592 1269.24 L56.1592 1318.2 Q67.1545 1317.5 72.9415 1311.6 Q78.6707 1305.64 78.6707 1295.05 Q78.6707 1288.91 77.166 1283.18 Q75.6614 1277.4 72.6522 1271.73 L82.7216 1271.73 Q85.1521 1277.46 86.4252 1283.47 Q87.6984 1289.49 87.6984 1295.68 Q87.6984 1311.19 78.6707 1320.28 Q69.6429 1329.31 54.2495 1329.31 Q38.3352 1329.31 29.0181 1320.74 Q19.6432 1312.12 19.6432 1297.54 Q19.6432 1284.46 28.0922 1276.88 Q36.4834 1269.24 50.9509 1269.24 M47.8259 1279.89 Q39.0875 1280 33.8792 1284.8 Q28.6709 1289.55 28.6709 1297.42 Q28.6709 1306.33 33.7056 1311.71 Q38.7403 1317.04 47.8838 1317.85 L47.8259 1279.89 Z" fill="#000000" fill-rule="nonzero" fill-opacity="1" /><path clip-path="url(#clip770)" d="M-4.02566 1218.95 L4.82846 1218.95 L4.82846 1229.13 Q4.82846 1234.86 7.14327 1237.12 Q9.45807 1239.32 15.4766 1239.32 L21.2057 1239.32 L21.2057 1221.78 L29.4811 1221.78 L29.4811 1239.32 L86.0202 1239.32 L86.0202 1250.02 L29.4811 1250.02 L29.4811 1260.21 L21.2057 1260.21 L21.2057 1250.02 L16.6918 1250.02 Q5.87012 1250.02 0.951169 1244.99 Q-4.02566 1239.96 -4.02566 1229.02 L-4.02566 1218.95 Z" fill="#000000" fill-rule="nonzero" fill-opacity="1" /><path clip-path="url(#clip770)" d="M-4.02566 1177.22 L4.82846 1177.22 L4.82846 1187.41 Q4.82846 1193.14 7.14327 1195.4 Q9.45807 1197.59 15.4766 1197.59 L21.2057 1197.59 L21.2057 1180.06 L29.4811 1180.06 L29.4811 1197.59 L86.0202 1197.59 L86.0202 1208.3 L29.4811 1208.3 L29.4811 1218.49 L21.2057 1218.49 L21.2057 1208.3 L16.6918 1208.3 Q5.87012 1208.3 0.951169 1203.27 Q-4.02566 1198.23 -4.02566 1187.29 L-4.02566 1177.22 Z" fill="#000000" fill-rule="nonzero" fill-opacity="1" /><path clip-path="url(#clip770)" d="M21.2057 1168.31 L21.2057 1157.66 L86.0202 1157.66 L86.0202 1168.31 L21.2057 1168.31 M-4.02566 1168.31 L-4.02566 1157.66 L9.45807 1157.66 L9.45807 1168.31 L-4.02566 1168.31 Z" fill="#000000" fill-rule="nonzero" fill-opacity="1" /><path clip-path="url(#clip770)" d="M23.6941 1088.74 L33.6478 1088.74 Q31.1593 1093.25 29.9441 1097.83 Q28.6709 1102.34 28.6709 1106.97 Q28.6709 1117.33 35.2681 1123.06 Q41.8074 1128.79 53.6708 1128.79 Q65.5342 1128.79 72.1313 1123.06 Q78.6707 1117.33 78.6707 1106.97 Q78.6707 1102.34 77.4554 1097.83 Q76.1822 1093.25 73.6938 1088.74 L83.5317 1088.74 Q85.6151 1093.2 86.6567 1098 Q87.6984 1102.75 87.6984 1108.13 Q87.6984 1122.77 78.497 1131.39 Q69.2957 1140.01 53.6708 1140.01 Q37.8144 1140.01 28.7288 1131.33 Q19.6432 1122.59 19.6432 1107.43 Q19.6432 1102.51 20.6849 1097.83 Q21.6687 1093.14 23.6941 1088.74 Z" fill="#000000" fill-rule="nonzero" fill-opacity="1" /><path clip-path="url(#clip770)" d="M21.2057 1070.22 L21.2057 1059.57 L86.0202 1059.57 L86.0202 1070.22 L21.2057 1070.22 M-4.02566 1070.22 L-4.02566 1059.57 L9.45807 1059.57 L9.45807 1070.22 L-4.02566 1070.22 Z" fill="#000000" fill-rule="nonzero" fill-opacity="1" /><path clip-path="url(#clip770)" d="M50.9509 981.855 L56.1592 981.855 L56.1592 1030.81 Q67.1545 1030.12 72.9415 1024.22 Q78.6707 1018.26 78.6707 1007.67 Q78.6707 1001.53 77.166 995.802 Q75.6614 990.015 72.6522 984.343 L82.7216 984.343 Q85.1521 990.073 86.4252 996.091 Q87.6984 1002.11 87.6984 1008.3 Q87.6984 1023.81 78.6707 1032.9 Q69.6429 1041.92 54.2495 1041.92 Q38.3352 1041.92 29.0181 1033.36 Q19.6432 1024.74 19.6432 1010.15 Q19.6432 997.075 28.0922 989.494 Q36.4834 981.855 50.9509 981.855 M47.8259 992.503 Q39.0875 992.619 33.8792 997.422 Q28.6709 1002.17 28.6709 1010.04 Q28.6709 1018.95 33.7056 1024.33 Q38.7403 1029.66 47.8838 1030.47 L47.8259 992.503 Z" fill="#000000" fill-rule="nonzero" fill-opacity="1" /><path clip-path="url(#clip770)" d="M46.9 910.501 L86.0202 910.501 L86.0202 921.149 L47.2472 921.149 Q38.0459 921.149 33.4741 924.737 Q28.9024 928.325 28.9024 935.501 Q28.9024 944.124 34.4001 949.101 Q39.8977 954.077 49.3884 954.077 L86.0202 954.077 L86.0202 964.783 L21.2057 964.783 L21.2057 954.077 L31.2751 954.077 Q25.4302 950.258 22.5367 945.107 Q19.6432 939.899 19.6432 933.128 Q19.6432 921.959 26.5876 916.23 Q33.4741 910.501 46.9 910.501 Z" fill="#000000" fill-rule="nonzero" fill-opacity="1" /><path clip-path="url(#clip770)" d="M2.80301 878.731 L21.2057 878.731 L21.2057 856.798 L29.4811 856.798 L29.4811 878.731 L64.6661 878.731 Q72.5943 878.731 74.8512 876.589 Q77.1082 874.39 77.1082 867.735 L77.1082 856.798 L86.0202 856.798 L86.0202 867.735 Q86.0202 880.062 81.4484 884.749 Q76.8188 889.436 64.6661 889.436 L29.4811 889.436 L29.4811 897.249 L21.2057 897.249 L21.2057 889.436 L2.80301 889.436 L2.80301 878.731 Z" fill="#000000" fill-rule="nonzero" fill-opacity="1" /><path clip-path="url(#clip770)" d="M870.573 73.8171 L853.131 121.114 L888.079 121.114 L870.573 73.8171 M863.317 61.1494 L877.894 61.1494 L914.115 156.189 L900.747 156.189 L892.09 131.809 L849.248 131.809 L840.591 156.189 L827.032 156.189 L863.317 61.1494 Z" fill="#000000" fill-rule="nonzero" fill-opacity="1" /><path clip-path="url(#clip770)" d="M972.934 86.9941 L972.934 98.0705 Q967.969 95.5242 962.622 94.251 Q957.274 92.9779 951.545 92.9779 Q942.824 92.9779 938.432 95.6515 Q934.103 98.3251 934.103 103.672 Q934.103 107.746 937.222 110.102 Q940.342 112.393 949.763 114.494 L953.773 115.385 Q966.25 118.059 971.47 122.96 Q976.753 127.798 976.753 136.519 Q976.753 146.45 968.86 152.243 Q961.03 158.035 947.28 158.035 Q941.551 158.035 935.313 156.89 Q929.138 155.807 922.263 153.579 L922.263 141.485 Q928.756 144.858 935.058 146.577 Q941.36 148.232 947.535 148.232 Q955.81 148.232 960.266 145.431 Q964.722 142.567 964.722 137.411 Q964.722 132.636 961.476 130.09 Q958.293 127.544 947.407 125.188 L943.333 124.234 Q932.448 121.942 927.61 117.231 Q922.772 112.457 922.772 104.182 Q922.772 94.1237 929.902 88.6492 Q937.031 83.1747 950.145 83.1747 Q956.638 83.1747 962.367 84.1296 Q968.096 85.0844 972.934 86.9941 Z" fill="#000000" fill-rule="nonzero" fill-opacity="1" /><path clip-path="url(#clip770)" d="M1025.07 162.81 Q1020.1 175.541 1015.39 179.424 Q1010.68 183.307 1002.79 183.307 L993.432 183.307 L993.432 173.504 L1000.31 173.504 Q1005.14 173.504 1007.82 171.212 Q1010.49 168.921 1013.74 160.391 L1015.84 155.044 L987.002 84.8934 L999.415 84.8934 L1021.7 140.657 L1043.98 84.8934 L1056.39 84.8934 L1025.07 162.81 Z" fill="#000000" fill-rule="nonzero" fill-opacity="1" /><path clip-path="url(#clip770)" d="M1128.07 98.5797 Q1132.46 90.6862 1138.57 86.9305 Q1144.68 83.1747 1152.96 83.1747 Q1164.1 83.1747 1170.14 91.0045 Q1176.19 98.7707 1176.19 113.157 L1176.19 156.189 L1164.41 156.189 L1164.41 113.539 Q1164.41 103.29 1160.79 98.3251 Q1157.16 93.3598 1149.71 93.3598 Q1140.61 93.3598 1135.32 99.4073 Q1130.04 105.455 1130.04 115.894 L1130.04 156.189 L1118.26 156.189 L1118.26 113.539 Q1118.26 103.227 1114.63 98.3251 Q1111.01 93.3598 1103.43 93.3598 Q1094.46 93.3598 1089.17 99.4709 Q1083.89 105.518 1083.89 115.894 L1083.89 156.189 L1072.11 156.189 L1072.11 84.8934 L1083.89 84.8934 L1083.89 95.9698 Q1087.9 89.4131 1093.5 86.2939 Q1099.1 83.1747 1106.8 83.1747 Q1114.57 83.1747 1119.98 87.1214 Q1125.46 91.0682 1128.07 98.5797 Z" fill="#000000" fill-rule="nonzero" fill-opacity="1" /><path clip-path="url(#clip770)" d="M1210.88 145.495 L1210.88 183.307 L1199.11 183.307 L1199.11 84.8934 L1210.88 84.8934 L1210.88 95.7151 Q1214.58 89.3494 1220.18 86.2939 Q1225.84 83.1747 1233.67 83.1747 Q1246.66 83.1747 1254.74 93.4871 Q1262.89 103.8 1262.89 120.605 Q1262.89 137.411 1254.74 147.723 Q1246.66 158.035 1233.67 158.035 Q1225.84 158.035 1220.18 154.98 Q1214.58 151.861 1210.88 145.495 M1250.73 120.605 Q1250.73 107.683 1245.39 100.362 Q1240.1 92.9779 1230.81 92.9779 Q1221.51 92.9779 1216.17 100.362 Q1210.88 107.683 1210.88 120.605 Q1210.88 133.527 1216.17 140.912 Q1221.51 148.232 1230.81 148.232 Q1240.1 148.232 1245.39 140.912 Q1250.73 133.527 1250.73 120.605 Z" fill="#000000" fill-rule="nonzero" fill-opacity="1" /><path clip-path="url(#clip770)" d="M1293.89 64.6505 L1293.89 84.8934 L1318.02 84.8934 L1318.02 93.9964 L1293.89 93.9964 L1293.89 132.7 Q1293.89 141.421 1296.25 143.904 Q1298.67 146.386 1305.99 146.386 L1318.02 146.386 L1318.02 156.189 L1305.99 156.189 Q1292.43 156.189 1287.27 151.16 Q1282.12 146.068 1282.12 132.7 L1282.12 93.9964 L1273.52 93.9964 L1273.52 84.8934 L1282.12 84.8934 L1282.12 64.6505 L1293.89 64.6505 Z" fill="#000000" fill-rule="nonzero" fill-opacity="1" /><path clip-path="url(#clip770)" d="M1361.05 93.1052 Q1351.63 93.1052 1346.16 100.489 Q1340.68 107.81 1340.68 120.605 Q1340.68 133.4 1346.09 140.784 Q1351.57 148.105 1361.05 148.105 Q1370.41 148.105 1375.88 140.721 Q1381.36 133.336 1381.36 120.605 Q1381.36 107.937 1375.88 100.553 Q1370.41 93.1052 1361.05 93.1052 M1361.05 83.1747 Q1376.33 83.1747 1385.05 93.1052 Q1393.77 103.036 1393.77 120.605 Q1393.77 138.111 1385.05 148.105 Q1376.33 158.035 1361.05 158.035 Q1345.71 158.035 1336.99 148.105 Q1328.33 138.111 1328.33 120.605 Q1328.33 103.036 1336.99 93.1052 Q1345.71 83.1747 1361.05 83.1747 Z" fill="#000000" fill-rule="nonzero" fill-opacity="1" /><path clip-path="url(#clip770)" d="M1424.77 64.6505 L1424.77 84.8934 L1448.9 84.8934 L1448.9 93.9964 L1424.77 93.9964 L1424.77 132.7 Q1424.77 141.421 1427.13 143.904 Q1429.55 146.386 1436.87 146.386 L1448.9 146.386 L1448.9 156.189 L1436.87 156.189 Q1423.31 156.189 1418.15 151.16 Q1413 146.068 1413 132.7 L1413 93.9964 L1404.4 93.9964 L1404.4 84.8934 L1413 84.8934 L1413 64.6505 L1424.77 64.6505 Z" fill="#000000" fill-rule="nonzero" fill-opacity="1" /><path clip-path="url(#clip770)" d="M1464.3 84.8934 L1476.02 84.8934 L1476.02 156.189 L1464.3 156.189 L1464.3 84.8934 M1464.3 57.139 L1476.02 57.139 L1476.02 71.9711 L1464.3 71.9711 L1464.3 57.139 Z" fill="#000000" fill-rule="nonzero" fill-opacity="1" /><path clip-path="url(#clip770)" d="M1551.83 87.6307 L1551.83 98.5797 Q1546.87 95.8425 1541.84 94.5057 Q1536.87 93.1052 1531.78 93.1052 Q1520.38 93.1052 1514.08 100.362 Q1507.78 107.555 1507.78 120.605 Q1507.78 133.655 1514.08 140.912 Q1520.38 148.105 1531.78 148.105 Q1536.87 148.105 1541.84 146.768 Q1546.87 145.368 1551.83 142.63 L1551.83 153.452 Q1546.93 155.744 1541.65 156.89 Q1536.43 158.035 1530.51 158.035 Q1514.4 158.035 1504.92 147.914 Q1495.43 137.792 1495.43 120.605 Q1495.43 103.163 1504.98 93.1689 Q1514.59 83.1747 1531.27 83.1747 Q1536.68 83.1747 1541.84 84.3205 Q1546.99 85.4027 1551.83 87.6307 Z" fill="#000000" fill-rule="nonzero" fill-opacity="1" /><path clip-path="url(#clip770)" d="M1685.32 68.4699 L1685.32 82.0289 Q1678.83 75.9815 1671.44 72.9896 Q1664.12 69.9977 1655.85 69.9977 Q1639.55 69.9977 1630.89 79.9918 Q1622.24 89.9223 1622.24 108.765 Q1622.24 127.544 1630.89 137.538 Q1639.55 147.468 1655.85 147.468 Q1664.12 147.468 1671.44 144.476 Q1678.83 141.485 1685.32 135.437 L1685.32 148.869 Q1678.57 153.452 1671 155.744 Q1663.49 158.035 1655.08 158.035 Q1633.5 158.035 1621.09 144.858 Q1608.68 131.618 1608.68 108.765 Q1608.68 85.8483 1621.09 72.6713 Q1633.5 59.4306 1655.08 59.4306 Q1663.61 59.4306 1671.12 61.7223 Q1678.7 63.9503 1685.32 68.4699 Z" fill="#000000" fill-rule="nonzero" fill-opacity="1" /><path clip-path="url(#clip770)" d="M1732.3 93.1052 Q1722.88 93.1052 1717.4 100.489 Q1711.93 107.81 1711.93 120.605 Q1711.93 133.4 1717.34 140.784 Q1722.81 148.105 1732.3 148.105 Q1741.66 148.105 1747.13 140.721 Q1752.61 133.336 1752.61 120.605 Q1752.61 107.937 1747.13 100.553 Q1741.66 93.1052 1732.3 93.1052 M1732.3 83.1747 Q1747.58 83.1747 1756.3 93.1052 Q1765.02 103.036 1765.02 120.605 Q1765.02 138.111 1756.3 148.105 Q1747.58 158.035 1732.3 158.035 Q1716.96 158.035 1708.24 148.105 Q1699.58 138.111 1699.58 120.605 Q1699.58 103.036 1708.24 93.1052 Q1716.96 83.1747 1732.3 83.1747 Z" fill="#000000" fill-rule="nonzero" fill-opacity="1" /><path clip-path="url(#clip770)" d="M1845.42 117.613 L1845.42 123.342 L1791.56 123.342 Q1792.33 135.437 1798.82 141.803 Q1805.38 148.105 1817.03 148.105 Q1823.77 148.105 1830.08 146.45 Q1836.44 144.795 1842.68 141.485 L1842.68 152.561 Q1836.38 155.234 1829.76 156.635 Q1823.14 158.035 1816.33 158.035 Q1799.27 158.035 1789.27 148.105 Q1779.34 138.174 1779.34 121.242 Q1779.34 103.736 1788.76 93.4871 Q1798.25 83.1747 1814.29 83.1747 Q1828.68 83.1747 1837.02 92.4686 Q1845.42 101.699 1845.42 117.613 M1833.7 114.176 Q1833.58 104.563 1828.29 98.8343 Q1823.07 93.1052 1814.42 93.1052 Q1804.61 93.1052 1798.69 98.6434 Q1792.84 104.182 1791.95 114.239 L1833.7 114.176 Z" fill="#000000" fill-rule="nonzero" fill-opacity="1" /><path clip-path="url(#clip770)" d="M1900.74 57.139 L1900.74 66.8785 L1889.53 66.8785 Q1883.23 66.8785 1880.75 69.4248 Q1878.33 71.9711 1878.33 78.5914 L1878.33 84.8934 L1897.62 84.8934 L1897.62 93.9964 L1878.33 93.9964 L1878.33 156.189 L1866.55 156.189 L1866.55 93.9964 L1855.35 93.9964 L1855.35 84.8934 L1866.55 84.8934 L1866.55 79.9282 Q1866.55 68.0243 1872.09 62.6135 Q1877.63 57.139 1889.66 57.139 L1900.74 57.139 Z" fill="#000000" fill-rule="nonzero" fill-opacity="1" /><path clip-path="url(#clip770)" d="M1946.63 57.139 L1946.63 66.8785 L1935.43 66.8785 Q1929.13 66.8785 1926.64 69.4248 Q1924.23 71.9711 1924.23 78.5914 L1924.23 84.8934 L1943.51 84.8934 L1943.51 93.9964 L1924.23 93.9964 L1924.23 156.189 L1912.45 156.189 L1912.45 93.9964 L1901.24 93.9964 L1901.24 84.8934 L1912.45 84.8934 L1912.45 79.9282 Q1912.45 68.0243 1917.99 62.6135 Q1923.52 57.139 1935.56 57.139 L1946.63 57.139 Z" fill="#000000" fill-rule="nonzero" fill-opacity="1" /><path clip-path="url(#clip770)" d="M1948.61 140.02 L1962.04 140.02 L1962.04 156.189 L1948.61 156.189 L1948.61 140.02 Z" fill="#000000" fill-rule="nonzero" fill-opacity="1" /><path clip-path="url(#clip770)" d="M2097.22 123.597 Q2097.22 123.983 2096.71 125.465 L2086.27 153.935 Q2085.69 155.61 2085.11 155.932 Q2084.53 156.189 2082.15 156.189 L2021.09 156.189 Q2019.61 156.189 2019.03 156.125 Q2018.45 156.061 2018 155.738 Q2017.55 155.416 2017.55 154.708 Q2017.55 153.42 2018 152.84 Q2018.51 152.26 2019.09 152.196 Q2019.67 152.131 2021.09 152.131 Q2024.31 152.131 2026.24 151.938 Q2028.17 151.745 2029.4 151.487 Q2030.69 151.165 2031.33 150.263 Q2032.04 149.362 2032.36 148.589 Q2032.68 147.751 2033.13 145.883 L2050.78 75.0306 Q2051.3 72.905 2051.3 72.5829 Q2051.3 71.3591 2050.53 71.0371 Q2049.82 70.6506 2047.76 70.4574 L2042.73 70.1997 Q2041.19 70.1997 2040.54 70.1353 Q2039.96 70.0709 2039.51 69.7488 Q2039.06 69.4268 2039.06 68.7182 Q2039.06 67.4944 2039.51 66.9147 Q2040.03 66.2706 2040.41 66.2062 Q2040.86 66.0774 2041.57 66.0774 L2059.09 66.4638 L2078.61 66.0774 Q2080.73 66.0774 2080.73 67.6876 Q2080.73 69.4912 2079.83 69.8776 Q2078.93 70.1997 2075.71 70.1997 Q2069.53 70.1997 2066.69 70.8438 Q2063.92 71.4879 2063.15 72.5829 Q2062.44 73.6135 2061.73 76.3832 L2043.89 147.623 Q2043.25 150.006 2043.25 150.65 Q2043.25 151.358 2043.57 151.616 Q2043.96 151.809 2044.99 151.938 Q2046.15 152.131 2047.88 152.131 L2060.25 152.131 Q2063.99 152.131 2067.27 151.552 Q2070.56 150.972 2073.07 150.135 Q2075.65 149.297 2077.96 147.751 Q2080.28 146.206 2081.89 144.853 Q2083.57 143.436 2085.18 141.246 Q2086.85 138.991 2087.82 137.446 Q2088.85 135.835 2090.01 133.259 Q2091.17 130.618 2091.75 129.136 Q2092.39 127.591 2093.36 124.95 Q2093.94 123.597 2094.13 123.211 Q2094.33 122.824 2094.65 122.502 Q2095.03 122.18 2095.61 122.18 Q2096.39 122.18 2096.77 122.631 Q2097.22 123.082 2097.22 123.597 Z" fill="#000000" fill-rule="nonzero" fill-opacity="1" /><path clip-path="url(#clip770)" d="M2113.86 123.211 Q2113.86 100.924 2122.17 82.9532 Q2125.72 75.4171 2130.68 69.1047 Q2135.64 62.7924 2138.92 60.0227 Q2142.21 57.2529 2143.11 57.2529 Q2144.4 57.2529 2144.46 58.5412 Q2144.46 59.1853 2142.72 60.7956 Q2121.46 82.4379 2121.53 123.211 Q2121.53 164.112 2142.21 184.917 Q2144.46 187.171 2144.46 187.88 Q2144.46 189.168 2143.11 189.168 Q2142.21 189.168 2139.05 186.527 Q2135.89 183.886 2131 177.832 Q2126.1 171.777 2122.56 164.37 Q2113.86 146.399 2113.86 123.211 Z" fill="#000000" fill-rule="nonzero" fill-opacity="1" /><path clip-path="url(#clip770)" d="M2211.1 68.2029 Q2211.1 69.1691 2210.39 70.5862 Q2209.75 71.8744 2208.39 72.7118 Q2207.11 73.4847 2205.69 73.4847 Q2205.24 73.4847 2204.21 73.2271 Q2202.47 72.4541 2199.76 70.715 Q2197.06 68.9759 2194.61 67.8809 Q2192.23 66.7215 2189.59 66.5926 Q2187.27 66.5926 2185.34 67.43 Q2183.6 68.3962 2182.44 70.4574 Q2181.92 71.2947 2181.92 72.7118 Q2181.92 74.7085 2183.02 77.3494 Q2184.11 79.9903 2186.37 83.4041 Q2188.68 86.8179 2190.36 89.1368 Q2192.03 91.3912 2194.93 95.127 Q2195.19 95.4491 2195.32 95.6423 Q2195.45 95.7712 2195.64 96.0932 Q2195.83 96.3509 2196.03 96.5441 Q2202.15 104.209 2203.69 112.647 Q2204.08 115.61 2204.08 118.702 Q2204.08 124.885 2202.21 132.164 Q2200.6 138.798 2197.19 144.531 Q2193.77 150.199 2188.62 153.935 Q2183.53 157.671 2177.99 157.671 Q2172.52 157.671 2168.01 155.288 Q2163.5 152.84 2160.79 148.653 Q2157.12 143.114 2157.12 135.449 Q2157.12 131.133 2158.15 127.462 Q2159.57 121.6 2162.92 116.19 Q2166.27 110.779 2171.1 106.592 Q2178.44 100.409 2186.43 98.6697 Q2182.69 91.5844 2180.5 86.1094 Q2178.38 80.57 2178.38 75.8679 Q2178.38 71.7456 2179.92 69.1047 Q2181.28 66.2706 2184.05 64.6603 Q2186.37 63.2432 2189.72 62.5347 Q2191.78 62.2771 2193.13 62.2771 Q2197.7 62.2771 2208.33 64.7891 Q2211.1 65.4332 2211.1 68.2029 M2195 123.983 Q2195 120.054 2194.35 117.413 Q2193.13 110.972 2188.23 102.084 L2187.85 101.439 Q2181.6 103.243 2176.51 108.718 Q2170.13 115.417 2166.91 128.106 Q2165.17 135.191 2165.17 139.185 Q2165.17 143.5 2166.78 147.236 Q2168.33 150.714 2171.23 152.711 Q2174.19 154.708 2178.12 154.708 Q2181.08 154.708 2183.66 153.033 Q2186.24 151.294 2188.11 148.267 Q2189.97 145.239 2191.26 141.954 Q2192.61 138.605 2193.64 134.676 Q2195 129.394 2195 123.983 Z" fill="#000000" fill-rule="nonzero" fill-opacity="1" /><path clip-path="url(#clip770)" d="M2220.39 187.88 Q2220.39 187.236 2222.06 185.626 Q2243.32 163.983 2243.32 123.211 Q2243.32 82.3091 2222.9 61.6329 Q2220.39 59.2497 2220.39 58.5412 Q2220.39 57.2529 2221.68 57.2529 Q2222.58 57.2529 2225.74 59.8938 Q2228.96 62.5347 2233.79 68.5894 Q2238.68 74.6441 2242.29 82.0515 Q2250.99 100.022 2250.99 123.211 Q2250.99 145.497 2242.68 163.468 Q2239.13 171.004 2234.17 177.316 Q2229.21 183.629 2225.93 186.398 Q2222.64 189.168 2221.68 189.168 Q2220.39 189.168 2220.39 187.88 Z" fill="#000000" fill-rule="nonzero" fill-opacity="1" /><path clip-path="url(#clip770)" d="M2307.64 136.157 Q2307.76 134.547 2310.28 134.547 L2391.11 134.547 Q2394.91 134.547 2394.98 136.028 Q2394.98 137.639 2391.37 137.574 L2311.18 137.574 Q2307.64 137.639 2307.64 136.157 M2307.64 110.393 Q2307.64 108.782 2310.41 108.847 L2390.98 108.847 Q2394.91 108.847 2394.98 110.393 Q2394.98 111.874 2391.63 111.874 L2310.28 111.874 Q2307.64 111.874 2307.64 110.393 Z" fill="#000000" fill-rule="nonzero" fill-opacity="1" /><path clip-path="url(#clip770)" d="M2510.58 137.317 Q2508.97 145.239 2505.69 150.779 Q2501.63 157.671 2495.45 157.671 Q2490.23 157.671 2486.75 154.064 Q2483.27 150.392 2483.27 144.595 Q2483.27 142.856 2483.98 139.958 Q2484.24 138.669 2484.24 137.059 Q2484.24 126.624 2461.63 125.851 Q2459.76 133.259 2458.48 138.283 Q2457.25 143.243 2456.87 144.724 Q2456.48 146.206 2456.16 147.429 Q2455.9 148.653 2455.45 150.263 Q2454.8 152.904 2454.35 154.193 Q2453.9 155.481 2452.68 156.576 Q2451.52 157.671 2449.65 157.671 Q2448.04 157.671 2446.95 156.705 Q2445.85 155.738 2445.85 154.064 Q2445.85 152.904 2446.37 151.036 L2458.48 102.663 Q2458.8 101.311 2459.44 100.344 Q2460.09 99.3782 2460.67 98.9273 Q2461.31 98.4765 2462.08 98.2188 Q2462.86 97.9612 2463.18 97.9612 Q2463.5 97.8967 2463.76 97.8967 Q2465.5 97.8967 2466.53 98.8629 Q2467.62 99.7647 2467.62 101.439 Q2467.62 101.697 2467.17 103.501 Q2466.78 105.24 2466.14 107.881 Q2465.5 110.521 2465.24 111.745 L2462.6 122.051 Q2466.27 120.827 2469.55 118.637 Q2472.9 116.447 2479.47 110.779 Q2482.5 108.267 2484.3 106.85 Q2486.17 105.369 2489.26 103.372 Q2492.36 101.311 2495.32 100.344 Q2498.28 99.3138 2501.12 99.3138 Q2503.31 99.3138 2504.59 100.344 Q2505.88 101.311 2506.14 102.212 Q2506.4 103.05 2506.4 103.951 Q2506.4 106.592 2504.34 108.847 Q2502.28 111.101 2499.25 111.101 Q2496.54 111.101 2495.38 109.62 Q2494.22 108.138 2494.22 106.464 Q2494.22 105.175 2494.87 103.565 Q2491.26 105.111 2488.17 107.365 Q2485.08 109.555 2479.73 114.128 Q2472.13 120.634 2467.62 123.082 Q2470.2 123.146 2472.13 123.339 Q2474.13 123.468 2477.48 123.919 Q2480.83 124.37 2483.27 125.336 Q2485.72 126.238 2488.11 127.655 Q2490.55 129.072 2491.84 131.391 Q2493.19 133.71 2493.19 136.673 Q2493.19 138.09 2492.55 140.988 Q2491.45 145.755 2491.45 148.396 Q2491.45 151.745 2492.49 153.226 Q2493.58 154.708 2495.71 154.708 Q2499.76 154.708 2502.34 150.521 Q2504.98 146.27 2507.17 138.412 Q2507.49 136.93 2507.82 136.479 Q2508.14 136.028 2509.04 136.028 Q2510.58 136.028 2510.58 137.317 Z" fill="#000000" fill-rule="nonzero" fill-opacity="1" /><path clip-path="url(#clip770)" d="M2521.06 187.3 Q2521.06 186.656 2521.58 185.239 L2568.15 60.7956 Q2568.15 60.6668 2568.47 59.9582 Q2568.79 59.2497 2568.98 58.7988 Q2569.18 58.2835 2569.56 57.8971 Q2570.01 57.5106 2570.53 57.5106 Q2571.82 57.5106 2571.82 59.1209 Q2571.82 59.2497 2571.43 60.7956 L2524.73 185.368 Q2523.96 187.622 2523.44 188.266 Q2522.99 188.911 2522.22 188.911 Q2521.06 188.911 2521.06 187.3 Z" fill="#000000" fill-rule="nonzero" fill-opacity="1" /><path clip-path="url(#clip770)" d="M2640.36 68.2029 Q2640.36 69.1691 2639.65 70.5862 Q2639.01 71.8744 2637.66 72.7118 Q2636.37 73.4847 2634.95 73.4847 Q2634.5 73.4847 2633.47 73.2271 Q2631.73 72.4541 2629.03 70.715 Q2626.32 68.9759 2623.87 67.8809 Q2621.49 66.7215 2618.85 66.5926 Q2616.53 66.5926 2614.6 67.43 Q2612.86 68.3962 2611.7 70.4574 Q2611.18 71.2947 2611.18 72.7118 Q2611.18 74.7085 2612.28 77.3494 Q2613.37 79.9903 2615.63 83.4041 Q2617.95 86.8179 2619.62 89.1368 Q2621.3 91.3912 2624.19 95.127 Q2624.45 95.4491 2624.58 95.6423 Q2624.71 95.7712 2624.9 96.0932 Q2625.1 96.3509 2625.29 96.5441 Q2631.41 104.209 2632.95 112.647 Q2633.34 115.61 2633.34 118.702 Q2633.34 124.885 2631.47 132.164 Q2629.86 138.798 2626.45 144.531 Q2623.03 150.199 2617.88 153.935 Q2612.79 157.671 2607.25 157.671 Q2601.78 157.671 2597.27 155.288 Q2592.76 152.84 2590.06 148.653 Q2586.38 143.114 2586.38 135.449 Q2586.38 131.133 2587.42 127.462 Q2588.83 121.6 2592.18 116.19 Q2595.53 110.779 2600.36 106.592 Q2607.7 100.409 2615.69 98.6697 Q2611.96 91.5844 2609.77 86.1094 Q2607.64 80.57 2607.64 75.8679 Q2607.64 71.7456 2609.19 69.1047 Q2610.54 66.2706 2613.31 64.6603 Q2615.63 63.2432 2618.98 62.5347 Q2621.04 62.2771 2622.39 62.2771 Q2626.96 62.2771 2637.59 64.7891 Q2640.36 65.4332 2640.36 68.2029 M2624.26 123.983 Q2624.26 120.054 2623.61 117.413 Q2622.39 110.972 2617.5 102.084 L2617.11 101.439 Q2610.86 103.243 2605.77 108.718 Q2599.4 115.417 2596.18 128.106 Q2594.44 135.191 2594.44 139.185 Q2594.44 143.5 2596.05 147.236 Q2597.59 150.714 2600.49 152.711 Q2603.45 154.708 2607.38 154.708 Q2610.35 154.708 2612.92 153.033 Q2615.5 151.294 2617.37 148.267 Q2619.23 145.239 2620.52 141.954 Q2621.88 138.605 2622.91 134.676 Q2624.26 129.394 2624.26 123.983 Z" fill="#000000" fill-rule="nonzero" fill-opacity="1" /><path clip-path="url(#clip770)" d="M2691.96 17.7663 L2679.2 69.1217 Q2678.84 70.7449 2678.84 71.1507 Q2678.84 71.6918 2678.97 71.9172 Q2679.15 72.1877 2680.14 72.4132 Q2681.18 72.6386 2683.25 72.6386 Q2684.02 72.6386 2684.29 72.6386 Q2684.56 72.6386 2684.97 72.7288 Q2685.37 72.819 2685.51 73.0444 Q2685.64 73.2698 2685.64 73.6305 Q2685.64 75.4792 2684.02 75.4792 Q2682.49 75.4792 2679.29 75.3439 Q2676.09 75.2086 2674.51 75.2086 Q2672.97 75.2086 2669.86 75.3439 Q2666.75 75.4792 2665.26 75.4792 Q2664.72 75.4792 2664.41 75.2086 Q2664.09 74.9832 2664.09 74.7127 L2664.05 74.4872 Q2664.05 73.2248 2664.54 72.9091 Q2665.04 72.6386 2666.17 72.6386 Q2670.04 72.5935 2671.17 72.0525 Q2672.3 71.5114 2672.84 69.5726 L2676.99 53.0703 Q2671.44 58.6162 2666.08 58.6162 Q2660.89 58.6162 2657.37 54.5582 Q2653.9 50.4552 2653.9 43.8272 Q2653.9 38.9126 2655.84 33.9529 Q2657.82 28.9932 2660.89 25.2509 Q2664 21.5086 2668.06 19.164 Q2672.12 16.7743 2676.13 16.7743 Q2678.7 16.7743 2681 18.2622 Q2683.34 19.7501 2684.74 23.2219 Q2685.91 21.2381 2688.08 19.0738 Q2690.24 16.8645 2691.01 16.8645 Q2691.46 16.8645 2691.69 17.1801 Q2691.96 17.4506 2691.96 17.7663 M2683.43 26.9192 Q2683.43 26.4683 2683.07 25.3411 Q2682.76 24.2139 2682.04 22.6809 Q2681.36 21.1028 2679.78 19.9756 Q2678.2 18.8033 2676.13 18.8033 Q2673.15 18.8033 2669.95 21.6889 Q2666.8 24.5295 2664.72 29.4892 Q2663.42 32.7355 2661.93 38.7774 Q2660.44 44.8192 2660.44 47.8852 Q2660.44 48.6066 2660.49 49.4182 Q2660.58 50.2298 2660.94 51.5824 Q2661.3 52.9351 2661.84 53.9721 Q2662.42 55.0091 2663.6 55.7756 Q2664.77 56.5421 2666.35 56.5421 Q2669.77 56.5421 2673.2 53.6114 Q2676.63 50.6807 2678.07 48.0655 Q2678.25 47.795 2680.82 37.56 Q2683.43 27.325 2683.43 26.9192 Z" fill="#000000" fill-rule="nonzero" fill-opacity="1" /><polyline clip-path="url(#clip772)" style="stroke:#1e90ff; stroke-linecap:round; stroke-linejoin:round; stroke-width:10; stroke-opacity:1; fill:none" points="458.417,2077.11 510.735,1624.91 563.052,1359.35 615.369,1164.65 667.686,1015.44 720.004,899.26 772.321,808.38 824.638,737.579 876.955,683.041 929.273,641.864 981.59,611.764 1033.91,590.942 1086.22,577.893 1138.54,571.423 1190.86,570.497 1243.18,574.289 1295.49,582.066 1347.81,593.237 1400.13,607.282 1452.45,623.759 1504.76,642.303 1557.08,662.58 1609.4,684.324 1661.71,707.295 1714.03,731.285 1766.35,756.124 1818.67,781.658 1870.98,807.761 1923.3,834.322 1975.62,861.245 2027.93,888.456 2080.25,915.885 2132.57,943.475 2184.89,971.181 2237.2,998.965 2289.52,1026.8 2341.84,1054.65 2394.16,1082.5 2446.47,1110.34 2498.79,1138.13 2551.11,1165.88 2603.42,1193.54 2655.74,1221.08 2708.06,1248.46 2760.38,1275.63 2812.69,1302.49 2865.01,1329.1 2917.33,1355.44 2969.65,1381.5 3021.96,1407.29 3074.28,1432.88 "/>
<polyline clip-path="url(#clip772)" style="stroke:#0000ff; stroke-linecap:round; stroke-linejoin:round; stroke-width:10; stroke-opacity:1; fill:none" points="458.417,1710.04 510.735,1261.11 563.052,1008.45 615.369,829.762 667.686,698.423 720.004,600.587 772.321,528.103 824.638,475.417 876.955,438.504 929.273,414.527 981.59,400.937 1033.91,395.886 1086.22,397.894 1138.54,405.774 1190.86,418.502 1243.18,435.175 1295.49,455.139 1347.81,477.8 1400.13,502.669 1452.45,529.339 1504.76,557.441 1557.08,586.695 1609.4,616.83 1661.71,647.646 1714.03,678.963 1766.35,710.617 1818.67,742.481 1870.98,774.439 1923.3,806.402 1975.62,838.291 2027.93,870.041 2080.25,901.601 2132.57,932.918 2184.89,963.96 2237.2,994.694 2289.52,1025.1 2341.84,1055.16 2394.16,1084.86 2446.47,1114.18 2498.79,1143.12 2551.11,1171.67 2603.42,1199.81 2655.74,1227.53 2708.06,1254.83 2760.38,1281.67 2812.69,1308.03 2865.01,1333.92 2917.33,1359.34 2969.65,1384.3 3021.96,1408.8 3074.28,1432.88 "/>
<polyline clip-path="url(#clip772)" style="stroke:#000080; stroke-linecap:round; stroke-linejoin:round; stroke-width:10; stroke-opacity:1; fill:none" points="458.417,1542.03 510.735,1093.35 563.052,845.307 615.369,677.896 667.686,556.729 720.004,467.906 772.321,403.778 824.638,358.681 876.955,330.817 929.273,313.926 981.59,307.895 1033.91,310.298 1086.22,319.161 1138.54,333.451 1190.86,352.182 1243.18,374.501 1295.49,399.809 1347.81,427.591 1400.13,457.152 1452.45,488.246 1504.76,520.538 1557.08,553.644 1609.4,587.404 1661.71,621.607 1714.03,656.064 1766.35,690.653 1818.67,725.2 1870.98,759.667 1923.3,793.937 1975.62,827.936 2027.93,861.595 2080.25,894.895 2132.57,927.797 2184.89,960.238 2237.2,992.222 2289.52,1023.7 2341.84,1054.7 2394.16,1085.17 2446.47,1115.14 2498.79,1144.53 2551.11,1173.44 2603.42,1201.81 2655.74,1229.63 2708.06,1256.92 2760.38,1283.69 2812.69,1309.89 2865.01,1335.49 2917.33,1360.64 2969.65,1385.25 3021.96,1409.31 3074.28,1432.87 "/>
<polyline clip-path="url(#clip772)" style="stroke:#ff0000; stroke-linecap:round; stroke-linejoin:round; stroke-width:10; stroke-opacity:1; fill:none" stroke-dasharray="5, 10" points="458.417,1432.88 510.735,987.096 563.052,745.538 615.369,580.169 667.686,462.686 720.004,379.08 772.321,320.815 824.638,282.116 876.955,258.822 929.273,247.81 981.59,246.671 1033.91,253.507 1086.22,266.803 1138.54,285.331 1190.86,308.089 1243.18,334.254 1295.49,363.147 1347.81,394.201 1400.13,426.945 1452.45,460.987 1504.76,495.995 1557.08,531.694 1609.4,567.851 1661.71,604.272 1714.03,640.794 1766.35,677.278 1818.67,713.612 1870.98,749.7 1923.3,785.461 1975.62,820.831 2027.93,855.757 2080.25,890.193 2132.57,924.105 2184.89,957.465 2237.2,990.251 2289.52,1022.45 2341.84,1054.04 2394.16,1085.02 2446.47,1115.39 2498.79,1145.14 2551.11,1174.27 2603.42,1202.79 2655.74,1230.7 2708.06,1258.01 2760.38,1284.71 2812.69,1310.83 2865.01,1336.37 2917.33,1361.33 2969.65,1385.73 3021.96,1409.58 3074.28,1432.88 "/>
<path clip-path="url(#clip770)" d="M2115.72 645.233 L3060.33 645.233 L3060.33 256.433 L2115.72 256.433  Z" fill="#ffffff" fill-rule="evenodd" fill-opacity="1"/>
<polyline clip-path="url(#clip770)" style="stroke:#000000; stroke-linecap:round; stroke-linejoin:round; stroke-width:4; stroke-opacity:1; fill:none" points="2115.72,645.233 3060.33,645.233 3060.33,256.433 2115.72,256.433 2115.72,645.233 "/>
<polyline clip-path="url(#clip770)" style="stroke:#1e90ff; stroke-linecap:round; stroke-linejoin:round; stroke-width:15; stroke-opacity:1; fill:none" points="2146.53,334.193 2331.39,334.193 "/>
<path clip-path="url(#clip770)" d="M2362.2 308.273 L2371.64 308.273 L2394.63 351.641 L2394.63 308.273 L2401.43 308.273 L2401.43 360.113 L2391.99 360.113 L2369 316.745 L2369 360.113 L2362.2 360.113 L2362.2 308.273 Z" fill="#000000" fill-rule="nonzero" fill-opacity="1" /><path clip-path="url(#clip770)" d="M2438.55 327.822 L2483.06 327.822 L2483.06 333.655 L2438.55 333.655 L2438.55 327.822 M2438.55 341.988 L2483.06 341.988 L2483.06 347.891 L2438.55 347.891 L2438.55 341.988 Z" fill="#000000" fill-rule="nonzero" fill-opacity="1" /><path clip-path="url(#clip770)" d="M2520.88 308.273 L2548.41 308.273 L2548.41 314.176 L2527.3 314.176 L2527.3 326.884 Q2528.83 326.363 2530.36 326.12 Q2531.88 325.842 2533.41 325.842 Q2542.09 325.842 2547.16 330.599 Q2552.23 335.356 2552.23 343.481 Q2552.23 351.849 2547.02 356.502 Q2541.81 361.12 2532.33 361.12 Q2529.07 361.12 2525.67 360.564 Q2522.3 360.009 2518.69 358.898 L2518.69 351.849 Q2521.81 353.551 2525.15 354.384 Q2528.48 355.217 2532.2 355.217 Q2538.2 355.217 2541.71 352.057 Q2545.22 348.898 2545.22 343.481 Q2545.22 338.065 2541.71 334.905 Q2538.2 331.745 2532.2 331.745 Q2529.38 331.745 2526.57 332.37 Q2523.79 332.995 2520.88 334.315 L2520.88 308.273 Z" fill="#000000" fill-rule="nonzero" fill-opacity="1" /><path clip-path="url(#clip770)" d="M2581.05 312.891 Q2575.63 312.891 2572.89 318.238 Q2570.18 323.551 2570.18 334.245 Q2570.18 344.905 2572.89 350.252 Q2575.63 355.564 2581.05 355.564 Q2586.5 355.564 2589.21 350.252 Q2591.95 344.905 2591.95 334.245 Q2591.95 323.551 2589.21 318.238 Q2586.5 312.891 2581.05 312.891 M2581.05 307.336 Q2589.77 307.336 2594.35 314.245 Q2598.97 321.12 2598.97 334.245 Q2598.97 347.335 2594.35 354.245 Q2589.77 361.12 2581.05 361.12 Q2572.33 361.12 2567.72 354.245 Q2563.13 347.335 2563.13 334.245 Q2563.13 321.12 2567.72 314.245 Q2572.33 307.336 2581.05 307.336 Z" fill="#000000" fill-rule="nonzero" fill-opacity="1" /><polyline clip-path="url(#clip770)" style="stroke:#0000ff; stroke-linecap:round; stroke-linejoin:round; stroke-width:15; stroke-opacity:1; fill:none" points="2146.53,411.953 2331.39,411.953 "/>
<path clip-path="url(#clip770)" d="M2362.2 386.033 L2371.64 386.033 L2394.63 429.401 L2394.63 386.033 L2401.43 386.033 L2401.43 437.873 L2391.99 437.873 L2369 394.505 L2369 437.873 L2362.2 437.873 L2362.2 386.033 Z" fill="#000000" fill-rule="nonzero" fill-opacity="1" /><path clip-path="url(#clip770)" d="M2438.55 405.582 L2483.06 405.582 L2483.06 411.415 L2438.55 411.415 L2438.55 405.582 M2438.55 419.748 L2483.06 419.748 L2483.06 425.651 L2438.55 425.651 L2438.55 419.748 Z" fill="#000000" fill-rule="nonzero" fill-opacity="1" /><path clip-path="url(#clip770)" d="M2522.02 431.97 L2533.48 431.97 L2533.48 392.422 L2521.02 394.922 L2521.02 388.533 L2533.41 386.033 L2540.43 386.033 L2540.43 431.97 L2551.88 431.97 L2551.88 437.873 L2522.02 437.873 L2522.02 431.97 Z" fill="#000000" fill-rule="nonzero" fill-opacity="1" /><path clip-path="url(#clip770)" d="M2566.12 386.033 L2593.65 386.033 L2593.65 391.936 L2572.54 391.936 L2572.54 404.644 Q2574.07 404.123 2575.6 403.88 Q2577.13 403.602 2578.65 403.602 Q2587.33 403.602 2592.4 408.359 Q2597.47 413.116 2597.47 421.241 Q2597.47 429.609 2592.27 434.262 Q2587.06 438.88 2577.58 438.88 Q2574.31 438.88 2570.91 438.324 Q2567.54 437.769 2563.93 436.658 L2563.93 429.609 Q2567.06 431.311 2570.39 432.144 Q2573.72 432.977 2577.44 432.977 Q2583.45 432.977 2586.95 429.817 Q2590.46 426.658 2590.46 421.241 Q2590.46 415.825 2586.95 412.665 Q2583.45 409.505 2577.44 409.505 Q2574.63 409.505 2571.81 410.13 Q2569.04 410.755 2566.12 412.075 L2566.12 386.033 Z" fill="#000000" fill-rule="nonzero" fill-opacity="1" /><path clip-path="url(#clip770)" d="M2626.29 390.651 Q2620.88 390.651 2618.13 395.998 Q2615.42 401.311 2615.42 412.005 Q2615.42 422.665 2618.13 428.012 Q2620.88 433.324 2626.29 433.324 Q2631.74 433.324 2634.45 428.012 Q2637.2 422.665 2637.2 412.005 Q2637.2 401.311 2634.45 395.998 Q2631.74 390.651 2626.29 390.651 M2626.29 385.096 Q2635.01 385.096 2639.59 392.005 Q2644.21 398.88 2644.21 412.005 Q2644.21 425.095 2639.59 432.005 Q2635.01 438.88 2626.29 438.88 Q2617.58 438.88 2612.96 432.005 Q2608.38 425.095 2608.38 412.005 Q2608.38 398.88 2612.96 392.005 Q2617.58 385.096 2626.29 385.096 Z" fill="#000000" fill-rule="nonzero" fill-opacity="1" /><polyline clip-path="url(#clip770)" style="stroke:#000080; stroke-linecap:round; stroke-linejoin:round; stroke-width:15; stroke-opacity:1; fill:none" points="2146.53,489.713 2331.39,489.713 "/>
<path clip-path="url(#clip770)" d="M2362.2 463.793 L2371.64 463.793 L2394.63 507.161 L2394.63 463.793 L2401.43 463.793 L2401.43 515.633 L2391.99 515.633 L2369 472.265 L2369 515.633 L2362.2 515.633 L2362.2 463.793 Z" fill="#000000" fill-rule="nonzero" fill-opacity="1" /><path clip-path="url(#clip770)" d="M2438.55 483.342 L2483.06 483.342 L2483.06 489.175 L2438.55 489.175 L2438.55 483.342 M2438.55 497.508 L2483.06 497.508 L2483.06 503.411 L2438.55 503.411 L2438.55 497.508 Z" fill="#000000" fill-rule="nonzero" fill-opacity="1" /><path clip-path="url(#clip770)" d="M2540.08 469.904 L2522.37 497.578 L2540.08 497.578 L2540.08 469.904 M2538.24 463.793 L2547.06 463.793 L2547.06 497.578 L2554.45 497.578 L2554.45 503.411 L2547.06 503.411 L2547.06 515.633 L2540.08 515.633 L2540.08 503.411 L2516.68 503.411 L2516.68 496.64 L2538.24 463.793 Z" fill="#000000" fill-rule="nonzero" fill-opacity="1" /><path clip-path="url(#clip770)" d="M2566.12 463.793 L2593.65 463.793 L2593.65 469.696 L2572.54 469.696 L2572.54 482.404 Q2574.07 481.883 2575.6 481.64 Q2577.13 481.362 2578.65 481.362 Q2587.33 481.362 2592.4 486.119 Q2597.47 490.876 2597.47 499.001 Q2597.47 507.369 2592.27 512.022 Q2587.06 516.64 2577.58 516.64 Q2574.31 516.64 2570.91 516.084 Q2567.54 515.529 2563.93 514.418 L2563.93 507.369 Q2567.06 509.071 2570.39 509.904 Q2573.72 510.737 2577.44 510.737 Q2583.45 510.737 2586.95 507.577 Q2590.46 504.418 2590.46 499.001 Q2590.46 493.585 2586.95 490.425 Q2583.45 487.265 2577.44 487.265 Q2574.63 487.265 2571.81 487.89 Q2569.04 488.515 2566.12 489.835 L2566.12 463.793 Z" fill="#000000" fill-rule="nonzero" fill-opacity="1" /><path clip-path="url(#clip770)" d="M2626.29 468.411 Q2620.88 468.411 2618.13 473.758 Q2615.42 479.071 2615.42 489.765 Q2615.42 500.425 2618.13 505.772 Q2620.88 511.084 2626.29 511.084 Q2631.74 511.084 2634.45 505.772 Q2637.2 500.425 2637.2 489.765 Q2637.2 479.071 2634.45 473.758 Q2631.74 468.411 2626.29 468.411 M2626.29 462.856 Q2635.01 462.856 2639.59 469.765 Q2644.21 476.64 2644.21 489.765 Q2644.21 502.855 2639.59 509.765 Q2635.01 516.64 2626.29 516.64 Q2617.58 516.64 2612.96 509.765 Q2608.38 502.855 2608.38 489.765 Q2608.38 476.64 2612.96 469.765 Q2617.58 462.856 2626.29 462.856 Z" fill="#000000" fill-rule="nonzero" fill-opacity="1" /><polyline clip-path="url(#clip770)" style="stroke:#ff0000; stroke-linecap:round; stroke-linejoin:round; stroke-width:15; stroke-opacity:1; fill:none" stroke-dasharray="8, 15" points="2146.53,567.473 2331.39,567.473 "/>
<path clip-path="url(#clip770)" d="M2385.95 548.463 L2376.43 574.261 L2395.5 574.261 L2385.95 548.463 M2381.99 541.553 L2389.94 541.553 L2409.7 593.393 L2402.41 593.393 L2397.68 580.094 L2374.31 580.094 L2369.59 593.393 L2362.2 593.393 L2381.99 541.553 Z" fill="#000000" fill-rule="nonzero" fill-opacity="1" /><path clip-path="url(#clip770)" d="M2441.78 555.65 L2441.78 561.692 Q2439.07 560.303 2436.15 559.608 Q2433.24 558.914 2430.11 558.914 Q2425.36 558.914 2422.96 560.372 Q2420.6 561.831 2420.6 564.747 Q2420.6 566.97 2422.3 568.254 Q2424 569.504 2429.14 570.65 L2431.33 571.136 Q2438.13 572.595 2440.98 575.268 Q2443.86 577.907 2443.86 582.664 Q2443.86 588.081 2439.56 591.24 Q2435.29 594.4 2427.79 594.4 Q2424.66 594.4 2421.26 593.775 Q2417.89 593.185 2414.14 591.969 L2414.14 585.372 Q2417.68 587.212 2421.12 588.15 Q2424.56 589.053 2427.93 589.053 Q2432.44 589.053 2434.87 587.525 Q2437.3 585.962 2437.3 583.15 Q2437.3 580.546 2435.53 579.157 Q2433.79 577.768 2427.86 576.483 L2425.63 575.963 Q2419.7 574.713 2417.06 572.143 Q2414.42 569.539 2414.42 565.025 Q2414.42 559.539 2418.31 556.553 Q2422.2 553.567 2429.35 553.567 Q2432.89 553.567 2436.02 554.088 Q2439.14 554.608 2441.78 555.65 Z" fill="#000000" fill-rule="nonzero" fill-opacity="1" /><path clip-path="url(#clip770)" d="M2470.22 597.004 Q2467.51 603.949 2464.94 606.067 Q2462.37 608.185 2458.06 608.185 L2452.96 608.185 L2452.96 602.837 L2456.71 602.837 Q2459.35 602.837 2460.81 601.587 Q2462.27 600.337 2464.04 595.685 L2465.18 592.768 L2449.45 554.504 L2456.22 554.504 L2468.38 584.921 L2480.53 554.504 L2487.3 554.504 L2470.22 597.004 Z" fill="#000000" fill-rule="nonzero" fill-opacity="1" /><path clip-path="url(#clip770)" d="M2526.4 561.97 Q2528.79 557.664 2532.13 555.615 Q2535.46 553.567 2539.97 553.567 Q2546.05 553.567 2549.35 557.838 Q2552.65 562.074 2552.65 569.921 L2552.65 593.393 L2546.22 593.393 L2546.22 570.129 Q2546.22 564.539 2544.24 561.831 Q2542.27 559.122 2538.2 559.122 Q2533.24 559.122 2530.36 562.421 Q2527.47 565.72 2527.47 571.414 L2527.47 593.393 L2521.05 593.393 L2521.05 570.129 Q2521.05 564.504 2519.07 561.831 Q2517.09 559.122 2512.96 559.122 Q2508.06 559.122 2505.18 562.456 Q2502.3 565.754 2502.3 571.414 L2502.3 593.393 L2495.88 593.393 L2495.88 554.504 L2502.3 554.504 L2502.3 560.546 Q2504.49 556.97 2507.54 555.268 Q2510.6 553.567 2514.8 553.567 Q2519.04 553.567 2521.99 555.72 Q2524.97 557.872 2526.4 561.97 Z" fill="#000000" fill-rule="nonzero" fill-opacity="1" /><path clip-path="url(#clip770)" d="M2571.57 587.56 L2571.57 608.185 L2565.15 608.185 L2565.15 554.504 L2571.57 554.504 L2571.57 560.407 Q2573.58 556.935 2576.64 555.268 Q2579.73 553.567 2584 553.567 Q2591.08 553.567 2595.49 559.192 Q2599.94 564.817 2599.94 573.983 Q2599.94 583.15 2595.49 588.775 Q2591.08 594.4 2584 594.4 Q2579.73 594.4 2576.64 592.733 Q2573.58 591.032 2571.57 587.56 M2593.31 573.983 Q2593.31 566.935 2590.39 562.942 Q2587.51 558.914 2582.44 558.914 Q2577.37 558.914 2574.45 562.942 Q2571.57 566.935 2571.57 573.983 Q2571.57 581.032 2574.45 585.06 Q2577.37 589.053 2582.44 589.053 Q2587.51 589.053 2590.39 585.06 Q2593.31 581.032 2593.31 573.983 Z" fill="#000000" fill-rule="nonzero" fill-opacity="1" /><path clip-path="url(#clip770)" d="M2616.85 543.463 L2616.85 554.504 L2630.01 554.504 L2630.01 559.47 L2616.85 559.47 L2616.85 580.581 Q2616.85 585.337 2618.13 586.692 Q2619.45 588.046 2623.45 588.046 L2630.01 588.046 L2630.01 593.393 L2623.45 593.393 Q2616.05 593.393 2613.24 590.65 Q2610.42 587.872 2610.42 580.581 L2610.42 559.47 L2605.74 559.47 L2605.74 554.504 L2610.42 554.504 L2610.42 543.463 L2616.85 543.463 Z" fill="#000000" fill-rule="nonzero" fill-opacity="1" /><path clip-path="url(#clip770)" d="M2653.48 558.983 Q2648.34 558.983 2645.36 563.011 Q2642.37 567.004 2642.37 573.983 Q2642.37 580.963 2645.32 584.99 Q2648.31 588.983 2653.48 588.983 Q2658.58 588.983 2661.57 584.956 Q2664.56 580.928 2664.56 573.983 Q2664.56 567.074 2661.57 563.046 Q2658.58 558.983 2653.48 558.983 M2653.48 553.567 Q2661.81 553.567 2666.57 558.983 Q2671.33 564.4 2671.33 573.983 Q2671.33 583.532 2666.57 588.983 Q2661.81 594.4 2653.48 594.4 Q2645.11 594.4 2640.36 588.983 Q2635.63 583.532 2635.63 573.983 Q2635.63 564.4 2640.36 558.983 Q2645.11 553.567 2653.48 553.567 Z" fill="#000000" fill-rule="nonzero" fill-opacity="1" /><path clip-path="url(#clip770)" d="M2688.24 543.463 L2688.24 554.504 L2701.4 554.504 L2701.4 559.47 L2688.24 559.47 L2688.24 580.581 Q2688.24 585.337 2689.52 586.692 Q2690.84 588.046 2694.83 588.046 L2701.4 588.046 L2701.4 593.393 L2694.83 593.393 Q2687.44 593.393 2684.63 590.65 Q2681.81 587.872 2681.81 580.581 L2681.81 559.47 L2677.13 559.47 L2677.13 554.504 L2681.81 554.504 L2681.81 543.463 L2688.24 543.463 Z" fill="#000000" fill-rule="nonzero" fill-opacity="1" /><path clip-path="url(#clip770)" d="M2709.8 554.504 L2716.19 554.504 L2716.19 593.393 L2709.8 593.393 L2709.8 554.504 M2709.8 539.366 L2716.19 539.366 L2716.19 547.456 L2709.8 547.456 L2709.8 539.366 Z" fill="#000000" fill-rule="nonzero" fill-opacity="1" /><path clip-path="url(#clip770)" d="M2757.54 555.997 L2757.54 561.97 Q2754.83 560.477 2752.09 559.747 Q2749.38 558.983 2746.6 558.983 Q2740.39 558.983 2736.95 562.942 Q2733.51 566.865 2733.51 573.983 Q2733.51 581.101 2736.95 585.06 Q2740.39 588.983 2746.6 588.983 Q2749.38 588.983 2752.09 588.254 Q2754.83 587.49 2757.54 585.997 L2757.54 591.9 Q2754.87 593.15 2751.99 593.775 Q2749.14 594.4 2745.91 594.4 Q2737.13 594.4 2731.95 588.879 Q2726.78 583.358 2726.78 573.983 Q2726.78 564.47 2731.99 559.018 Q2737.23 553.567 2746.33 553.567 Q2749.28 553.567 2752.09 554.192 Q2754.9 554.782 2757.54 555.997 Z" fill="#000000" fill-rule="nonzero" fill-opacity="1" /><path clip-path="url(#clip770)" d="M2784.35 541.553 L2828.2 541.553 L2828.2 547.456 L2809.8 547.456 L2809.8 593.393 L2802.75 593.393 L2802.75 547.456 L2784.35 547.456 L2784.35 541.553 Z" fill="#000000" fill-rule="nonzero" fill-opacity="1" /><path clip-path="url(#clip770)" d="M2867.02 569.921 L2867.02 593.393 L2860.63 593.393 L2860.63 570.129 Q2860.63 564.608 2858.48 561.865 Q2856.33 559.122 2852.02 559.122 Q2846.85 559.122 2843.86 562.421 Q2840.87 565.72 2840.87 571.414 L2840.87 593.393 L2834.45 593.393 L2834.45 539.366 L2840.87 539.366 L2840.87 560.546 Q2843.17 557.039 2846.26 555.303 Q2849.38 553.567 2853.44 553.567 Q2860.15 553.567 2863.58 557.733 Q2867.02 561.865 2867.02 569.921 Z" fill="#000000" fill-rule="nonzero" fill-opacity="1" /><path clip-path="url(#clip770)" d="M2913.03 572.351 L2913.03 575.476 L2883.65 575.476 Q2884.07 582.074 2887.61 585.546 Q2891.19 588.983 2897.54 588.983 Q2901.22 588.983 2904.66 588.081 Q2908.13 587.178 2911.53 585.372 L2911.53 591.414 Q2908.1 592.872 2904.49 593.636 Q2900.87 594.4 2897.16 594.4 Q2887.85 594.4 2882.4 588.983 Q2876.99 583.567 2876.99 574.331 Q2876.99 564.782 2882.12 559.192 Q2887.3 553.567 2896.05 553.567 Q2903.9 553.567 2908.44 558.636 Q2913.03 563.671 2913.03 572.351 M2906.64 570.476 Q2906.57 565.233 2903.69 562.108 Q2900.84 558.983 2896.12 558.983 Q2890.77 558.983 2887.54 562.004 Q2884.35 565.025 2883.86 570.511 L2906.64 570.476 Z" fill="#000000" fill-rule="nonzero" fill-opacity="1" /><path clip-path="url(#clip770)" d="M2938.58 558.983 Q2933.44 558.983 2930.46 563.011 Q2927.47 567.004 2927.47 573.983 Q2927.47 580.963 2930.42 584.99 Q2933.41 588.983 2938.58 588.983 Q2943.69 588.983 2946.67 584.956 Q2949.66 580.928 2949.66 573.983 Q2949.66 567.074 2946.67 563.046 Q2943.69 558.983 2938.58 558.983 M2938.58 553.567 Q2946.92 553.567 2951.67 558.983 Q2956.43 564.4 2956.43 573.983 Q2956.43 583.532 2951.67 588.983 Q2946.92 594.4 2938.58 594.4 Q2930.21 594.4 2925.46 588.983 Q2920.74 583.532 2920.74 573.983 Q2920.74 564.4 2925.46 558.983 Q2930.21 553.567 2938.58 553.567 Z" fill="#000000" fill-rule="nonzero" fill-opacity="1" /><path clip-path="url(#clip770)" d="M2989.55 560.477 Q2988.48 559.852 2987.19 559.574 Q2985.94 559.261 2984.42 559.261 Q2979 559.261 2976.08 562.803 Q2973.2 566.31 2973.2 572.907 L2973.2 593.393 L2966.78 593.393 L2966.78 554.504 L2973.2 554.504 L2973.2 560.546 Q2975.21 557.004 2978.44 555.303 Q2981.67 553.567 2986.29 553.567 Q2986.95 553.567 2987.75 553.671 Q2988.55 553.74 2989.52 553.914 L2989.55 560.477 Z" fill="#000000" fill-rule="nonzero" fill-opacity="1" /><path clip-path="url(#clip770)" d="M3012.44 597.004 Q3009.73 603.949 3007.16 606.067 Q3004.59 608.185 3000.28 608.185 L2995.18 608.185 L2995.18 602.837 L2998.93 602.837 Q3001.57 602.837 3003.03 601.587 Q3004.49 600.337 3006.26 595.685 L3007.4 592.768 L2991.67 554.504 L2998.44 554.504 L3010.6 584.921 L3022.75 554.504 L3029.52 554.504 L3012.44 597.004 Z" fill="#000000" fill-rule="nonzero" fill-opacity="1" /></svg>
