<?xml version="1.0" encoding="utf-8"?>
<svg xmlns="http://www.w3.org/2000/svg" xmlns:xlink="http://www.w3.org/1999/xlink" width="800" height="600" viewBox="0 0 3200 2400">
<defs>
  <clipPath id="clip720">
    <rect x="0" y="0" width="3200" height="2400"/>
  </clipPath>
</defs>
<path clip-path="url(#clip720)" d="M0 2400 L3200 2400 L3200 0 L0 0  Z" fill="#ffffff" fill-rule="evenodd" fill-opacity="1"/>
<defs>
  <clipPath id="clip721">
    <rect x="395" y="190" width="2759" height="1942"/>
  </clipPath>
</defs>
<path clip-path="url(#clip720)" d="M394.319 2132.02 L3152.76 2132.02 L3152.76 190.732 L394.319 190.732  Z" fill="#ffffff" fill-rule="evenodd" fill-opacity="1"/>
<defs>
  <clipPath id="clip722">
    <rect x="394" y="190" width="2759" height="1942"/>
  </clipPath>
</defs>
<polyline clip-path="url(#clip722)" style="stroke:#000000; stroke-linecap:round; stroke-linejoin:round; stroke-width:2; stroke-opacity:0.1; fill:none" points="1020.24,2132.02 1020.24,190.732 "/>
<polyline clip-path="url(#clip722)" style="stroke:#000000; stroke-linecap:round; stroke-linejoin:round; stroke-width:2; stroke-opacity:0.1; fill:none" points="1705.06,2132.02 1705.06,190.732 "/>
<polyline clip-path="url(#clip722)" style="stroke:#000000; stroke-linecap:round; stroke-linejoin:round; stroke-width:2; stroke-opacity:0.1; fill:none" points="2389.87,2132.02 2389.87,190.732 "/>
<polyline clip-path="url(#clip722)" style="stroke:#000000; stroke-linecap:round; stroke-linejoin:round; stroke-width:2; stroke-opacity:0.1; fill:none" points="3074.69,2132.02 3074.69,190.732 "/>
<polyline clip-path="url(#clip722)" style="stroke:#000000; stroke-linecap:round; stroke-linejoin:round; stroke-width:2; stroke-opacity:0.1; fill:none" points="394.319,1832.06 3152.76,1832.06 "/>
<polyline clip-path="url(#clip722)" style="stroke:#000000; stroke-linecap:round; stroke-linejoin:round; stroke-width:2; stroke-opacity:0.1; fill:none" points="394.319,900.209 3152.76,900.209 "/>
<polyline clip-path="url(#clip720)" style="stroke:#000000; stroke-linecap:round; stroke-linejoin:round; stroke-width:4; stroke-opacity:1; fill:none" points="394.319,2132.02 3152.76,2132.02 "/>
<polyline clip-path="url(#clip720)" style="stroke:#000000; stroke-linecap:round; stroke-linejoin:round; stroke-width:4; stroke-opacity:1; fill:none" points="1020.24,2132.02 1020.24,2113.12 "/>
<polyline clip-path="url(#clip720)" style="stroke:#000000; stroke-linecap:round; stroke-linejoin:round; stroke-width:4; stroke-opacity:1; fill:none" points="1705.06,2132.02 1705.06,2113.12 "/>
<polyline clip-path="url(#clip720)" style="stroke:#000000; stroke-linecap:round; stroke-linejoin:round; stroke-width:4; stroke-opacity:1; fill:none" points="2389.87,2132.02 2389.87,2113.12 "/>
<polyline clip-path="url(#clip720)" style="stroke:#000000; stroke-linecap:round; stroke-linejoin:round; stroke-width:4; stroke-opacity:1; fill:none" points="3074.69,2132.02 3074.69,2113.12 "/>
<path clip-path="url(#clip720)" d="M975.964 2172.74 L1008.09 2172.74 L1008.09 2179.63 L983.458 2179.63 L983.458 2194.45 Q985.24 2193.85 987.023 2193.56 Q988.805 2193.24 990.588 2193.24 Q1000.71 2193.24 1006.63 2198.79 Q1012.54 2204.34 1012.54 2213.82 Q1012.54 2223.58 1006.47 2229.01 Q1000.39 2234.39 989.332 2234.39 Q985.524 2234.39 981.554 2233.75 Q977.625 2233.1 973.412 2231.8 L973.412 2223.58 Q977.058 2225.56 980.946 2226.54 Q984.835 2227.51 989.17 2227.51 Q996.178 2227.51 1000.27 2223.82 Q1004.36 2220.14 1004.36 2213.82 Q1004.36 2207.5 1000.27 2203.81 Q996.178 2200.12 989.17 2200.12 Q985.888 2200.12 982.607 2200.85 Q979.367 2201.58 975.964 2203.12 L975.964 2172.74 Z" fill="#000000" fill-rule="nonzero" fill-opacity="1" /><path clip-path="url(#clip720)" d="M1046.17 2178.13 Q1039.85 2178.13 1036.65 2184.37 Q1033.49 2190.56 1033.49 2203.04 Q1033.49 2215.48 1036.65 2221.72 Q1039.85 2227.91 1046.17 2227.91 Q1052.53 2227.91 1055.69 2221.72 Q1058.89 2215.48 1058.89 2203.04 Q1058.89 2190.56 1055.69 2184.37 Q1052.53 2178.13 1046.17 2178.13 M1046.17 2171.65 Q1056.33 2171.65 1061.68 2179.71 Q1067.07 2187.73 1067.07 2203.04 Q1067.07 2218.31 1061.68 2226.37 Q1056.33 2234.39 1046.17 2234.39 Q1036 2234.39 1030.61 2226.37 Q1025.26 2218.31 1025.26 2203.04 Q1025.26 2187.73 1030.61 2179.71 Q1036 2171.65 1046.17 2171.65 Z" fill="#000000" fill-rule="nonzero" fill-opacity="1" /><path clip-path="url(#clip720)" d="M1634.37 2226.33 L1647.74 2226.33 L1647.74 2180.19 L1633.19 2183.11 L1633.19 2175.66 L1647.65 2172.74 L1655.84 2172.74 L1655.84 2226.33 L1669.21 2226.33 L1669.21 2233.22 L1634.37 2233.22 L1634.37 2226.33 Z" fill="#000000" fill-rule="nonzero" fill-opacity="1" /><path clip-path="url(#clip720)" d="M1703.23 2178.13 Q1696.91 2178.13 1693.71 2184.37 Q1690.55 2190.56 1690.55 2203.04 Q1690.55 2215.48 1693.71 2221.72 Q1696.91 2227.91 1703.23 2227.91 Q1709.59 2227.91 1712.75 2221.72 Q1715.95 2215.48 1715.95 2203.04 Q1715.95 2190.56 1712.75 2184.37 Q1709.59 2178.13 1703.23 2178.13 M1703.23 2171.65 Q1713.4 2171.65 1718.75 2179.71 Q1724.14 2187.73 1724.14 2203.04 Q1724.14 2218.31 1718.75 2226.37 Q1713.4 2234.39 1703.23 2234.39 Q1693.07 2234.39 1687.68 2226.37 Q1682.33 2218.31 1682.33 2203.04 Q1682.33 2187.73 1687.68 2179.71 Q1693.07 2171.65 1703.23 2171.65 Z" fill="#000000" fill-rule="nonzero" fill-opacity="1" /><path clip-path="url(#clip720)" d="M1756.02 2178.13 Q1749.7 2178.13 1746.5 2184.37 Q1743.34 2190.56 1743.34 2203.04 Q1743.34 2215.48 1746.5 2221.72 Q1749.7 2227.91 1756.02 2227.91 Q1762.38 2227.91 1765.54 2221.72 Q1768.74 2215.48 1768.74 2203.04 Q1768.74 2190.56 1765.54 2184.37 Q1762.38 2178.13 1756.02 2178.13 M1756.02 2171.65 Q1766.18 2171.65 1771.53 2179.71 Q1776.92 2187.73 1776.92 2203.04 Q1776.92 2218.31 1771.53 2226.37 Q1766.18 2234.39 1756.02 2234.39 Q1745.85 2234.39 1740.46 2226.37 Q1735.11 2218.31 1735.11 2203.04 Q1735.11 2187.73 1740.46 2179.71 Q1745.85 2171.65 1756.02 2171.65 Z" fill="#000000" fill-rule="nonzero" fill-opacity="1" /><path clip-path="url(#clip720)" d="M2319.18 2226.33 L2332.55 2226.33 L2332.55 2180.19 L2318.01 2183.11 L2318.01 2175.66 L2332.47 2172.74 L2340.65 2172.74 L2340.65 2226.33 L2354.02 2226.33 L2354.02 2233.22 L2319.18 2233.22 L2319.18 2226.33 Z" fill="#000000" fill-rule="nonzero" fill-opacity="1" /><path clip-path="url(#clip720)" d="M2370.63 2172.74 L2402.75 2172.74 L2402.75 2179.63 L2378.12 2179.63 L2378.12 2194.45 Q2379.91 2193.85 2381.69 2193.56 Q2383.47 2193.24 2385.25 2193.24 Q2395.38 2193.24 2401.29 2198.79 Q2407.21 2204.34 2407.21 2213.82 Q2407.21 2223.58 2401.13 2229.01 Q2395.06 2234.39 2384 2234.39 Q2380.19 2234.39 2376.22 2233.75 Q2372.29 2233.1 2368.08 2231.8 L2368.08 2223.58 Q2371.72 2225.56 2375.61 2226.54 Q2379.5 2227.51 2383.84 2227.51 Q2390.84 2227.51 2394.93 2223.82 Q2399.03 2220.14 2399.03 2213.82 Q2399.03 2207.5 2394.93 2203.81 Q2390.84 2200.12 2383.84 2200.12 Q2380.55 2200.12 2377.27 2200.85 Q2374.03 2201.58 2370.63 2203.12 L2370.63 2172.74 Z" fill="#000000" fill-rule="nonzero" fill-opacity="1" /><path clip-path="url(#clip720)" d="M2440.83 2178.13 Q2434.51 2178.13 2431.31 2184.37 Q2428.15 2190.56 2428.15 2203.04 Q2428.15 2215.48 2431.31 2221.72 Q2434.51 2227.91 2440.83 2227.91 Q2447.19 2227.91 2450.35 2221.72 Q2453.55 2215.48 2453.55 2203.04 Q2453.55 2190.56 2450.35 2184.37 Q2447.19 2178.13 2440.83 2178.13 M2440.83 2171.65 Q2451 2171.65 2456.35 2179.71 Q2461.73 2187.73 2461.73 2203.04 Q2461.73 2218.31 2456.35 2226.37 Q2451 2234.39 2440.83 2234.39 Q2430.66 2234.39 2425.28 2226.37 Q2419.93 2218.31 2419.93 2203.04 Q2419.93 2187.73 2425.28 2179.71 Q2430.66 2171.65 2440.83 2171.65 Z" fill="#000000" fill-rule="nonzero" fill-opacity="1" /><path clip-path="url(#clip720)" d="M3011.15 2226.33 L3039.71 2226.33 L3039.71 2233.22 L3001.3 2233.22 L3001.3 2226.33 Q3005.96 2221.51 3013.98 2213.41 Q3022.05 2205.27 3024.11 2202.92 Q3028.04 2198.5 3029.58 2195.47 Q3031.16 2192.39 3031.16 2189.43 Q3031.16 2184.61 3027.76 2181.57 Q3024.39 2178.53 3018.97 2178.53 Q3015.12 2178.53 3010.82 2179.87 Q3006.57 2181.21 3001.71 2183.92 L3001.71 2175.66 Q3006.65 2173.67 3010.95 2172.66 Q3015.24 2171.65 3018.8 2171.65 Q3028.2 2171.65 3033.79 2176.35 Q3039.38 2181.04 3039.38 2188.9 Q3039.38 2192.63 3037.97 2195.99 Q3036.59 2199.31 3032.9 2203.85 Q3031.89 2205.03 3026.46 2210.66 Q3021.03 2216.25 3011.15 2226.33 Z" fill="#000000" fill-rule="nonzero" fill-opacity="1" /><path clip-path="url(#clip720)" d="M3074.38 2178.13 Q3068.06 2178.13 3064.86 2184.37 Q3061.7 2190.56 3061.7 2203.04 Q3061.7 2215.48 3064.86 2221.72 Q3068.06 2227.91 3074.38 2227.91 Q3080.74 2227.91 3083.9 2221.72 Q3087.1 2215.48 3087.1 2203.04 Q3087.1 2190.56 3083.9 2184.37 Q3080.74 2178.13 3074.38 2178.13 M3074.38 2171.65 Q3084.55 2171.65 3089.9 2179.71 Q3095.29 2187.73 3095.29 2203.04 Q3095.29 2218.31 3089.9 2226.37 Q3084.55 2234.39 3074.38 2234.39 Q3064.22 2234.39 3058.83 2226.37 Q3053.48 2218.31 3053.48 2203.04 Q3053.48 2187.73 3058.83 2179.71 Q3064.22 2171.65 3074.38 2171.65 Z" fill="#000000" fill-rule="nonzero" fill-opacity="1" /><path clip-path="url(#clip720)" d="M3127.17 2178.13 Q3120.85 2178.13 3117.65 2184.37 Q3114.49 2190.56 3114.49 2203.04 Q3114.49 2215.48 3117.65 2221.72 Q3120.85 2227.91 3127.17 2227.91 Q3133.53 2227.91 3136.69 2221.72 Q3139.89 2215.48 3139.89 2203.04 Q3139.89 2190.56 3136.69 2184.37 Q3133.53 2178.13 3127.17 2178.13 M3127.17 2171.65 Q3137.33 2171.65 3142.68 2179.71 Q3148.07 2187.73 3148.07 2203.04 Q3148.07 2218.31 3142.68 2226.37 Q3137.33 2234.39 3127.17 2234.39 Q3117 2234.39 3111.61 2226.37 Q3106.26 2218.31 3106.26 2203.04 Q3106.26 2187.73 3111.61 2179.71 Q3117 2171.65 3127.17 2171.65 Z" fill="#000000" fill-rule="nonzero" fill-opacity="1" /><path clip-path="url(#clip720)" d="M1740.84 2288.02 L1756.58 2288.02 L1794.89 2360.3 L1794.89 2288.02 L1806.23 2288.02 L1806.23 2374.42 L1790.49 2374.42 L1752.18 2302.14 L1752.18 2374.42 L1740.84 2374.42 L1740.84 2288.02 Z" fill="#000000" fill-rule="nonzero" fill-opacity="1" /><polyline clip-path="url(#clip720)" style="stroke:#000000; stroke-linecap:round; stroke-linejoin:round; stroke-width:4; stroke-opacity:1; fill:none" points="394.319,2132.02 394.319,190.732 "/>
<polyline clip-path="url(#clip720)" style="stroke:#000000; stroke-linecap:round; stroke-linejoin:round; stroke-width:4; stroke-opacity:1; fill:none" points="394.319,1832.06 413.216,1832.06 "/>
<polyline clip-path="url(#clip720)" style="stroke:#000000; stroke-linecap:round; stroke-linejoin:round; stroke-width:4; stroke-opacity:1; fill:none" points="394.319,900.209 413.216,900.209 "/>
<path clip-path="url(#clip720)" d="M171.074 1866.7 L184.442 1866.7 L184.442 1820.56 L169.899 1823.47 L169.899 1816.02 L184.361 1813.1 L192.544 1813.1 L192.544 1866.7 L205.912 1866.7 L205.912 1873.58 L171.074 1873.58 L171.074 1866.7 Z" fill="#000000" fill-rule="nonzero" fill-opacity="1" /><path clip-path="url(#clip720)" d="M239.939 1818.49 Q233.62 1818.49 230.42 1824.73 Q227.26 1830.93 227.26 1843.41 Q227.26 1855.84 230.42 1862.08 Q233.62 1868.28 239.939 1868.28 Q246.299 1868.28 249.459 1862.08 Q252.659 1855.84 252.659 1843.41 Q252.659 1830.93 249.459 1824.73 Q246.299 1818.49 239.939 1818.49 M239.939 1812.01 Q250.107 1812.01 255.454 1820.07 Q260.842 1828.09 260.842 1843.41 Q260.842 1858.68 255.454 1866.74 Q250.107 1874.76 239.939 1874.76 Q229.772 1874.76 224.384 1866.74 Q219.037 1858.68 219.037 1843.41 Q219.037 1828.09 224.384 1820.07 Q229.772 1812.01 239.939 1812.01 Z" fill="#000000" fill-rule="nonzero" fill-opacity="1" /><path clip-path="url(#clip720)" d="M260.842 1801.69 L303.037 1801.69 L303.037 1807.28 L260.842 1807.28 L260.842 1801.69 Z" fill="#000000" fill-rule="nonzero" fill-opacity="1" /><path clip-path="url(#clip720)" d="M323.115 1820.02 L346.319 1820.02 L346.319 1825.62 L315.117 1825.62 L315.117 1820.02 Q318.902 1816.1 325.419 1809.52 Q331.968 1802.91 333.647 1801 Q336.84 1797.41 338.09 1794.94 Q339.374 1792.44 339.374 1790.04 Q339.374 1786.12 336.609 1783.65 Q333.877 1781.18 329.467 1781.18 Q326.34 1781.18 322.851 1782.27 Q319.395 1783.36 315.446 1785.56 L315.446 1778.85 Q319.461 1777.23 322.95 1776.41 Q326.439 1775.59 329.335 1775.59 Q336.971 1775.59 341.513 1779.41 Q346.055 1783.22 346.055 1789.61 Q346.055 1792.64 344.903 1795.37 Q343.784 1798.07 340.789 1801.75 Q339.966 1802.71 335.556 1807.28 Q331.146 1811.83 323.115 1820.02 Z" fill="#000000" fill-rule="nonzero" fill-opacity="1" /><path clip-path="url(#clip720)" d="M170.547 934.846 L183.915 934.846 L183.915 888.706 L169.373 891.623 L169.373 884.169 L183.834 881.253 L192.017 881.253 L192.017 934.846 L205.385 934.846 L205.385 941.733 L170.547 941.733 L170.547 934.846 Z" fill="#000000" fill-rule="nonzero" fill-opacity="1" /><path clip-path="url(#clip720)" d="M239.413 886.64 Q233.093 886.64 229.893 892.879 Q226.733 899.077 226.733 911.554 Q226.733 923.99 229.893 930.228 Q233.093 936.426 239.413 936.426 Q245.773 936.426 248.932 930.228 Q252.133 923.99 252.133 911.554 Q252.133 899.077 248.932 892.879 Q245.773 886.64 239.413 886.64 M239.413 880.159 Q249.581 880.159 254.928 888.22 Q260.315 896.241 260.315 911.554 Q260.315 926.825 254.928 934.887 Q249.581 942.908 239.413 942.908 Q229.245 942.908 223.857 934.887 Q218.51 926.825 218.51 911.554 Q218.51 896.241 223.857 888.22 Q229.245 880.159 239.413 880.159 Z" fill="#000000" fill-rule="nonzero" fill-opacity="1" /><path clip-path="url(#clip720)" d="M260.315 869.836 L302.511 869.836 L302.511 875.432 L260.315 875.432 L260.315 869.836 Z" fill="#000000" fill-rule="nonzero" fill-opacity="1" /><path clip-path="url(#clip720)" d="M318.013 888.169 L328.874 888.169 L328.874 850.681 L317.058 853.05 L317.058 846.994 L328.809 844.625 L335.457 844.625 L335.457 888.169 L346.319 888.169 L346.319 893.765 L318.013 893.765 L318.013 888.169 Z" fill="#000000" fill-rule="nonzero" fill-opacity="1" /><path clip-path="url(#clip720)" d="M0.865044 1321.56 Q4.08563 1321.56 6.07654 1323.61 Q8.06745 1325.6 8.06745 1328.12 Q8.06745 1329.93 6.95488 1331.28 Q5.84231 1332.57 3.90996 1332.57 Q1.91905 1332.57 -0.188966 1331.04 Q-2.29699 1329.52 -2.58977 1326.07 Q-4.75634 1328.35 -4.75634 1331.98 Q-4.75634 1333.8 -3.58522 1335.32 Q-2.47265 1336.78 -0.657415 1337.6 Q1.21638 1338.48 11.815 1340.47 Q15.2698 1341.11 18.6075 1341.7 Q21.9452 1342.29 25.4586 1342.99 L25.4586 1333.03 Q25.4586 1331.75 25.5172 1331.22 Q25.5757 1330.69 25.8685 1330.28 Q26.1613 1329.81 26.8054 1329.81 Q28.445 1329.81 28.8549 1330.57 Q29.2062 1331.28 29.2062 1333.39 L29.2062 1343.69 L67.2091 1350.89 Q68.3217 1351.07 71.8351 1351.83 Q75.2899 1352.53 80.9698 1354.23 Q86.7083 1355.93 90.1046 1357.63 Q92.0369 1358.56 93.8521 1359.79 Q95.7259 1360.97 97.5997 1362.66 Q99.4735 1364.36 100.586 1366.59 Q101.757 1368.81 101.757 1371.15 Q101.757 1375.14 99.5321 1378.24 Q97.307 1381.34 93.5008 1381.34 Q90.2802 1381.34 88.2893 1379.35 Q86.2984 1377.3 86.2984 1374.78 Q86.2984 1372.97 87.411 1371.68 Q88.5235 1370.33 90.4559 1370.33 Q91.2757 1370.33 92.2126 1370.63 Q93.1495 1370.92 94.2035 1371.56 Q95.3161 1372.21 96.0773 1373.61 Q96.8385 1375.02 96.9556 1376.95 Q99.1222 1374.67 99.1222 1371.15 Q99.1222 1370.04 98.6538 1369.05 Q98.2439 1368.05 97.1898 1367.23 Q96.1358 1366.35 95.0818 1365.71 Q94.0864 1365.06 92.154 1364.42 Q90.2802 1363.78 88.8749 1363.37 Q87.4695 1362.96 84.9516 1362.43 Q82.4337 1361.84 80.9112 1361.55 Q79.4473 1361.26 76.5781 1360.73 L29.2062 1351.77 L29.2062 1359.68 Q29.2062 1361.08 29.1476 1361.67 Q29.0891 1362.2 28.7963 1362.61 Q28.445 1363.01 27.7423 1363.01 Q26.6297 1363.01 26.1613 1362.55 Q25.6343 1362.02 25.5757 1361.43 Q25.4586 1360.85 25.4586 1359.44 L25.4586 1351.13 Q10.6439 1348.32 6.6621 1347.2 Q2.44606 1345.92 -0.481746 1343.93 Q-3.46811 1341.93 -4.87345 1339.71 Q-6.2788 1337.48 -6.80581 1335.67 Q-7.39137 1333.8 -7.39137 1331.98 Q-7.39137 1327.88 -5.16624 1324.72 Q-2.99966 1321.56 0.865044 1321.56 Z" fill="#000000" fill-rule="nonzero" fill-opacity="1" /><path clip-path="url(#clip720)" d="M79.1891 1238.67 Q80.8696 1238.67 80.8696 1240.1 Q81.0336 1244.74 82.5912 1246.62 Q84.1078 1248.47 87.059 1249.16 L133.828 1260.89 Q135.303 1261.3 135.467 1261.54 Q135.59 1261.79 135.59 1262.24 Q135.59 1262.81 135.303 1263.14 Q135.016 1263.43 133.992 1263.84 L84.5587 1284.74 Q84.2308 1284.91 83.7799 1285.11 Q83.329 1285.31 83.0421 1285.48 L127.351 1296.59 Q128.622 1296.91 129.278 1296.91 Q130.877 1296.91 131.901 1295.81 Q132.885 1294.66 133.008 1291.38 Q133.008 1289.7 133.91 1289.7 Q135.59 1289.7 135.59 1291.22 Q135.59 1292.61 135.467 1295.52 Q135.344 1298.43 135.344 1299.87 Q135.344 1301.26 135.467 1304.09 Q135.59 1306.92 135.59 1308.27 Q135.59 1309.33 134.648 1309.33 Q133.91 1309.33 133.541 1309.05 Q133.131 1308.76 133.09 1308.51 Q133.008 1308.27 133.008 1307.9 Q132.926 1305.44 132.434 1303.76 Q131.942 1302.08 131 1301.14 Q130.057 1300.15 129.114 1299.7 Q128.13 1299.21 126.696 1298.84 L81.6074 1287.61 Q80.8696 1287.61 80.8696 1293.31 Q80.8696 1294.29 80.8286 1294.7 Q80.7877 1295.07 80.5827 1295.36 Q80.3778 1295.64 79.9269 1295.64 Q78.7792 1295.64 78.5332 1295.15 Q78.2463 1294.66 78.2463 1293.23 L78.2463 1281.95 Q78.2463 1280.52 78.4923 1280.15 Q78.6972 1279.78 79.8449 1279.29 L123.662 1260.72 L86.3212 1251.33 Q85.5834 1251.09 84.5587 1251.09 Q82.9191 1251.09 81.9354 1252.32 Q80.9106 1253.51 80.8696 1256.79 Q80.8696 1258.3 79.9269 1258.3 Q79.1481 1258.3 78.7792 1258.02 Q78.3693 1257.69 78.3283 1257.44 Q78.2463 1257.16 78.2463 1256.79 Q78.2463 1255.39 78.3693 1252.52 Q78.4923 1249.65 78.4923 1248.22 Q78.4923 1246.83 78.3693 1244 Q78.2463 1241.13 78.2463 1239.73 Q78.2463 1239.24 78.4923 1239 Q78.6972 1238.71 78.9431 1238.67 L79.1891 1238.67 Z" fill="#000000" fill-rule="nonzero" fill-opacity="1" /><path clip-path="url(#clip720)" d="M45.4848 1114.11 Q46.1875 1113.41 47.1829 1113.41 Q48.1784 1113.41 48.8811 1114.11 Q49.5837 1114.81 49.5837 1115.81 L49.5837 1190.88 Q49.5837 1191.87 48.8811 1192.57 Q48.1784 1193.28 47.1829 1193.28 Q46.1875 1193.28 45.4848 1192.57 Q44.7821 1191.87 44.7821 1190.88 L44.7821 1115.81 Q44.7821 1114.81 45.4848 1114.11 Z" fill="#000000" fill-rule="nonzero" fill-opacity="1" /><path clip-path="url(#clip720)" d="M0.865044 1007.83 Q4.08563 1007.83 6.07654 1009.88 Q8.06745 1011.87 8.06745 1014.39 Q8.06745 1016.21 6.95488 1017.55 Q5.84231 1018.84 3.90996 1018.84 Q1.91905 1018.84 -0.188966 1017.32 Q-2.29699 1015.8 -2.58977 1012.34 Q-4.75634 1014.63 -4.75634 1018.26 Q-4.75634 1020.07 -3.58522 1021.59 Q-2.47265 1023.06 -0.657415 1023.88 Q1.21638 1024.76 11.815 1026.75 Q15.2698 1027.39 18.6075 1027.98 Q21.9452 1028.56 25.4586 1029.26 L25.4586 1019.31 Q25.4586 1018.02 25.5172 1017.49 Q25.5757 1016.97 25.8685 1016.56 Q26.1613 1016.09 26.8054 1016.09 Q28.445 1016.09 28.8549 1016.85 Q29.2062 1017.55 29.2062 1019.66 L29.2062 1029.97 L67.2091 1037.17 Q68.3217 1037.35 71.8351 1038.11 Q75.2899 1038.81 80.9698 1040.51 Q86.7083 1042.21 90.1046 1043.9 Q92.0369 1044.84 93.8521 1046.07 Q95.7259 1047.24 97.5997 1048.94 Q99.4735 1050.64 100.586 1052.86 Q101.757 1055.09 101.757 1057.43 Q101.757 1061.41 99.5321 1064.52 Q97.307 1067.62 93.5008 1067.62 Q90.2802 1067.62 88.2893 1065.63 Q86.2984 1063.58 86.2984 1061.06 Q86.2984 1059.25 87.411 1057.96 Q88.5235 1056.61 90.4559 1056.61 Q91.2757 1056.61 92.2126 1056.9 Q93.1495 1057.2 94.2035 1057.84 Q95.3161 1058.48 96.0773 1059.89 Q96.8385 1061.29 96.9556 1063.23 Q99.1222 1060.94 99.1222 1057.43 Q99.1222 1056.32 98.6538 1055.32 Q98.2439 1054.33 97.1898 1053.51 Q96.1358 1052.63 95.0818 1051.98 Q94.0864 1051.34 92.154 1050.7 Q90.2802 1050.05 88.8749 1049.64 Q87.4695 1049.23 84.9516 1048.71 Q82.4337 1048.12 80.9112 1047.83 Q79.4473 1047.53 76.5781 1047.01 L29.2062 1038.05 L29.2062 1045.95 Q29.2062 1047.36 29.1476 1047.94 Q29.0891 1048.47 28.7963 1048.88 Q28.445 1049.29 27.7423 1049.29 Q26.6297 1049.29 26.1613 1048.82 Q25.6343 1048.3 25.5757 1047.71 Q25.4586 1047.12 25.4586 1045.72 L25.4586 1037.4 Q10.6439 1034.59 6.6621 1033.48 Q2.44606 1032.19 -0.481746 1030.2 Q-3.46811 1028.21 -4.87345 1025.99 Q-6.2788 1023.76 -6.80581 1021.95 Q-7.39137 1020.07 -7.39137 1018.26 Q-7.39137 1014.16 -5.16624 1011 Q-2.99966 1007.83 0.865044 1007.83 Z" fill="#000000" fill-rule="nonzero" fill-opacity="1" /><path clip-path="url(#clip720)" d="M100.055 953.965 Q100.588 953.802 100.752 954.211 L108.458 969.664 L123.747 961.712 Q124.075 961.467 124.485 961.876 Q124.731 962.286 124.403 962.614 L112.147 974.706 L124.403 986.798 Q124.731 987.126 124.485 987.536 Q124.075 987.946 123.747 987.7 L108.458 979.748 L100.752 995.201 Q100.588 995.611 100.055 995.447 Q99.6452 995.324 99.6452 994.873 L102.514 977.821 L85.4629 975.28 Q84.971 975.116 84.971 974.706 Q84.971 974.296 85.4629 974.132 L102.514 971.591 L99.6452 954.539 Q99.6452 954.088 100.055 953.965 Z" fill="#000000" fill-rule="nonzero" fill-opacity="1" /><path clip-path="url(#clip720)" d="M869.949 70.2117 L869.949 105.923 L886.118 105.923 Q895.093 105.923 899.995 101.276 Q904.897 96.6294 904.897 88.0357 Q904.897 79.5057 899.995 74.8587 Q895.093 70.2117 886.118 70.2117 L869.949 70.2117 M857.09 59.6446 L886.118 59.6446 Q902.096 59.6446 910.244 66.9016 Q918.455 74.0948 918.455 88.0357 Q918.455 102.104 910.244 109.297 Q902.096 116.49 886.118 116.49 L869.949 116.49 L869.949 154.685 L857.09 154.685 L857.09 59.6446 Z" fill="#000000" fill-rule="nonzero" fill-opacity="1" /><path clip-path="url(#clip720)" d="M991.534 116.108 L991.534 121.838 L937.68 121.838 Q938.444 133.932 944.937 140.298 Q951.493 146.6 963.143 146.6 Q969.89 146.6 976.192 144.945 Q982.558 143.29 988.797 139.98 L988.797 151.056 Q982.494 153.73 975.874 155.13 Q969.254 156.531 962.442 156.531 Q945.382 156.531 935.388 146.6 Q925.458 136.67 925.458 119.737 Q925.458 102.231 934.879 91.9824 Q944.364 81.67 960.405 81.67 Q974.792 81.67 983.131 90.9639 Q991.534 100.194 991.534 116.108 M979.821 112.671 Q979.694 103.059 974.41 97.3296 Q969.19 91.6005 960.533 91.6005 Q950.73 91.6005 944.809 97.1387 Q938.953 102.677 938.062 112.735 L979.821 112.671 Z" fill="#000000" fill-rule="nonzero" fill-opacity="1" /><path clip-path="url(#clip720)" d="M1052.07 94.3377 Q1050.1 93.1919 1047.74 92.6827 Q1045.45 92.1097 1042.65 92.1097 Q1032.72 92.1097 1027.37 98.6028 Q1022.09 105.032 1022.09 117.127 L1022.09 154.685 L1010.31 154.685 L1010.31 83.3887 L1022.09 83.3887 L1022.09 94.4651 Q1025.78 87.972 1031.7 84.8528 Q1037.62 81.67 1046.09 81.67 Q1047.3 81.67 1048.76 81.861 Q1050.23 81.9883 1052.01 82.3066 L1052.07 94.3377 Z" fill="#000000" fill-rule="nonzero" fill-opacity="1" /><path clip-path="url(#clip720)" d="M1100.45 55.6343 L1100.45 65.3738 L1089.25 65.3738 Q1082.95 65.3738 1080.46 67.9201 Q1078.04 70.4663 1078.04 77.0867 L1078.04 83.3887 L1097.33 83.3887 L1097.33 92.4917 L1078.04 92.4917 L1078.04 154.685 L1066.27 154.685 L1066.27 92.4917 L1055.06 92.4917 L1055.06 83.3887 L1066.27 83.3887 L1066.27 78.4235 Q1066.27 66.5196 1071.81 61.1088 Q1077.34 55.6343 1089.37 55.6343 L1100.45 55.6343 Z" fill="#000000" fill-rule="nonzero" fill-opacity="1" /><path clip-path="url(#clip720)" d="M1137.88 91.6005 Q1128.46 91.6005 1122.99 98.9847 Q1117.51 106.305 1117.51 119.1 Q1117.51 131.895 1122.92 139.28 Q1128.4 146.6 1137.88 146.6 Q1147.24 146.6 1152.71 139.216 Q1158.19 131.832 1158.19 119.1 Q1158.19 106.433 1152.71 99.0484 Q1147.24 91.6005 1137.88 91.6005 M1137.88 81.67 Q1153.16 81.67 1161.88 91.6005 Q1170.6 101.531 1170.6 119.1 Q1170.6 136.606 1161.88 146.6 Q1153.16 156.531 1137.88 156.531 Q1122.54 156.531 1113.82 146.6 Q1105.16 136.606 1105.16 119.1 Q1105.16 101.531 1113.82 91.6005 Q1122.54 81.67 1137.88 81.67 Z" fill="#000000" fill-rule="nonzero" fill-opacity="1" /><path clip-path="url(#clip720)" d="M1231.33 94.3377 Q1229.36 93.1919 1227 92.6827 Q1224.71 92.1097 1221.91 92.1097 Q1211.98 92.1097 1206.63 98.6028 Q1201.35 105.032 1201.35 117.127 L1201.35 154.685 L1189.57 154.685 L1189.57 83.3887 L1201.35 83.3887 L1201.35 94.4651 Q1205.04 87.972 1210.96 84.8528 Q1216.88 81.67 1225.35 81.67 Q1226.56 81.67 1228.02 81.861 Q1229.48 81.9883 1231.27 82.3066 L1231.33 94.3377 Z" fill="#000000" fill-rule="nonzero" fill-opacity="1" /><path clip-path="url(#clip720)" d="M1296.83 97.075 Q1301.23 89.1815 1307.34 85.4258 Q1313.45 81.67 1321.72 81.67 Q1332.86 81.67 1338.91 89.4998 Q1344.96 97.266 1344.96 111.652 L1344.96 154.685 L1333.18 154.685 L1333.18 112.034 Q1333.18 101.786 1329.55 96.8204 Q1325.92 91.8551 1318.48 91.8551 Q1309.37 91.8551 1304.09 97.9025 Q1298.81 103.95 1298.81 114.39 L1298.81 154.685 L1287.03 154.685 L1287.03 112.034 Q1287.03 101.722 1283.4 96.8204 Q1279.77 91.8551 1272.2 91.8551 Q1263.22 91.8551 1257.94 97.9662 Q1252.66 104.014 1252.66 114.39 L1252.66 154.685 L1240.88 154.685 L1240.88 83.3887 L1252.66 83.3887 L1252.66 94.4651 Q1256.67 87.9084 1262.27 84.7892 Q1267.87 81.67 1275.57 81.67 Q1283.34 81.67 1288.75 85.6167 Q1294.22 89.5635 1296.83 97.075 Z" fill="#000000" fill-rule="nonzero" fill-opacity="1" /><path clip-path="url(#clip720)" d="M1400.72 118.846 Q1386.53 118.846 1381.05 122.092 Q1375.58 125.339 1375.58 133.169 Q1375.58 139.407 1379.65 143.099 Q1383.79 146.728 1390.85 146.728 Q1400.59 146.728 1406.45 139.853 Q1412.37 132.914 1412.37 121.456 L1412.37 118.846 L1400.72 118.846 M1424.08 114.008 L1424.08 154.685 L1412.37 154.685 L1412.37 143.863 Q1408.36 150.356 1402.38 153.475 Q1396.39 156.531 1387.74 156.531 Q1376.79 156.531 1370.29 150.42 Q1363.86 144.245 1363.86 133.932 Q1363.86 121.901 1371.88 115.79 Q1379.97 109.679 1395.95 109.679 L1412.37 109.679 L1412.37 108.533 Q1412.37 100.449 1407.02 96.0565 Q1401.74 91.6005 1392.13 91.6005 Q1386.02 91.6005 1380.22 93.0646 Q1374.43 94.5287 1369.08 97.4569 L1369.08 86.6352 Q1375.51 84.1526 1381.56 82.9431 Q1387.61 81.67 1393.34 81.67 Q1408.81 81.67 1416.44 89.6908 Q1424.08 97.7116 1424.08 114.008 Z" fill="#000000" fill-rule="nonzero" fill-opacity="1" /><path clip-path="url(#clip720)" d="M1507.47 111.652 L1507.47 154.685 L1495.76 154.685 L1495.76 112.034 Q1495.76 101.913 1491.81 96.884 Q1487.87 91.8551 1479.97 91.8551 Q1470.49 91.8551 1465.02 97.9025 Q1459.54 103.95 1459.54 114.39 L1459.54 154.685 L1447.76 154.685 L1447.76 83.3887 L1459.54 83.3887 L1459.54 94.4651 Q1463.74 88.0357 1469.41 84.8528 Q1475.14 81.67 1482.58 81.67 Q1494.87 81.67 1501.17 89.3088 Q1507.47 96.884 1507.47 111.652 Z" fill="#000000" fill-rule="nonzero" fill-opacity="1" /><path clip-path="url(#clip720)" d="M1582.14 86.126 L1582.14 97.075 Q1577.18 94.3377 1572.15 93.0009 Q1567.18 91.6005 1562.09 91.6005 Q1550.7 91.6005 1544.4 98.8574 Q1538.09 106.051 1538.09 119.1 Q1538.09 132.15 1544.4 139.407 Q1550.7 146.6 1562.09 146.6 Q1567.18 146.6 1572.15 145.263 Q1577.18 143.863 1582.14 141.126 L1582.14 151.947 Q1577.24 154.239 1571.96 155.385 Q1566.74 156.531 1560.82 156.531 Q1544.71 156.531 1535.23 146.409 Q1525.74 136.288 1525.74 119.1 Q1525.74 101.658 1535.29 91.6642 Q1544.9 81.67 1561.58 81.67 Q1566.99 81.67 1572.15 82.8158 Q1577.31 83.898 1582.14 86.126 Z" fill="#000000" fill-rule="nonzero" fill-opacity="1" /><path clip-path="url(#clip720)" d="M1663.5 116.108 L1663.5 121.838 L1609.64 121.838 Q1610.41 133.932 1616.9 140.298 Q1623.46 146.6 1635.11 146.6 Q1641.85 146.6 1648.16 144.945 Q1654.52 143.29 1660.76 139.98 L1660.76 151.056 Q1654.46 153.73 1647.84 155.13 Q1641.22 156.531 1634.41 156.531 Q1617.35 156.531 1607.35 146.6 Q1597.42 136.67 1597.42 119.737 Q1597.42 102.231 1606.84 91.9824 Q1616.33 81.67 1632.37 81.67 Q1646.76 81.67 1655.1 90.9639 Q1663.5 100.194 1663.5 116.108 M1651.78 112.671 Q1651.66 103.059 1646.37 97.3296 Q1641.15 91.6005 1632.5 91.6005 Q1622.69 91.6005 1616.77 97.1387 Q1610.92 102.677 1610.03 112.735 L1651.78 112.671 Z" fill="#000000" fill-rule="nonzero" fill-opacity="1" /><path clip-path="url(#clip720)" d="M1760.26 55.6343 L1760.26 65.3738 L1749.05 65.3738 Q1742.75 65.3738 1740.27 67.9201 Q1737.85 70.4663 1737.85 77.0867 L1737.85 83.3887 L1757.14 83.3887 L1757.14 92.4917 L1737.85 92.4917 L1737.85 154.685 L1726.07 154.685 L1726.07 92.4917 L1714.87 92.4917 L1714.87 83.3887 L1726.07 83.3887 L1726.07 78.4235 Q1726.07 66.5196 1731.61 61.1088 Q1737.15 55.6343 1749.18 55.6343 L1760.26 55.6343 Z" fill="#000000" fill-rule="nonzero" fill-opacity="1" /><path clip-path="url(#clip720)" d="M1797.69 91.6005 Q1788.27 91.6005 1782.79 98.9847 Q1777.32 106.305 1777.32 119.1 Q1777.32 131.895 1782.73 139.28 Q1788.2 146.6 1797.69 146.6 Q1807.04 146.6 1812.52 139.216 Q1817.99 131.832 1817.99 119.1 Q1817.99 106.433 1812.52 99.0484 Q1807.04 91.6005 1797.69 91.6005 M1797.69 81.67 Q1812.96 81.67 1821.69 91.6005 Q1830.41 101.531 1830.41 119.1 Q1830.41 136.606 1821.69 146.6 Q1812.96 156.531 1797.69 156.531 Q1782.35 156.531 1773.62 146.6 Q1764.97 136.606 1764.97 119.1 Q1764.97 101.531 1773.62 91.6005 Q1782.35 81.67 1797.69 81.67 Z" fill="#000000" fill-rule="nonzero" fill-opacity="1" /><path clip-path="url(#clip720)" d="M1891.14 94.3377 Q1889.16 93.1919 1886.81 92.6827 Q1884.52 92.1097 1881.71 92.1097 Q1871.78 92.1097 1866.44 98.6028 Q1861.15 105.032 1861.15 117.127 L1861.15 154.685 L1849.38 154.685 L1849.38 83.3887 L1861.15 83.3887 L1861.15 94.4651 Q1864.85 87.972 1870.77 84.8528 Q1876.69 81.67 1885.15 81.67 Q1886.36 81.67 1887.83 81.861 Q1889.29 81.9883 1891.07 82.3066 L1891.14 94.3377 Z" fill="#000000" fill-rule="nonzero" fill-opacity="1" /><path clip-path="url(#clip720)" d="M2012.25 122.092 Q2012.25 122.479 2011.74 123.96 L2001.3 152.43 Q2000.72 154.105 2000.14 154.427 Q1999.56 154.685 1997.18 154.685 L1936.12 154.685 Q1934.64 154.685 1934.06 154.62 Q1933.48 154.556 1933.03 154.234 Q1932.58 153.912 1932.58 153.203 Q1932.58 151.915 1933.03 151.335 Q1933.54 150.756 1934.12 150.691 Q1934.7 150.627 1936.12 150.627 Q1939.34 150.627 1941.27 150.433 Q1943.2 150.24 1944.43 149.983 Q1945.72 149.661 1946.36 148.759 Q1947.07 147.857 1947.39 147.084 Q1947.71 146.247 1948.16 144.379 L1965.81 73.5259 Q1966.33 71.4003 1966.33 71.0782 Q1966.33 69.8544 1965.55 69.5323 Q1964.85 69.1459 1962.79 68.9526 L1957.76 68.695 Q1956.22 68.695 1955.57 68.6306 Q1954.99 68.5662 1954.54 68.2441 Q1954.09 67.9221 1954.09 67.2135 Q1954.09 65.9897 1954.54 65.41 Q1955.06 64.7659 1955.44 64.7015 Q1955.89 64.5726 1956.6 64.5726 L1974.12 64.9591 L1993.64 64.5726 Q1995.76 64.5726 1995.76 66.1829 Q1995.76 67.9865 1994.86 68.3729 Q1993.96 68.695 1990.74 68.695 Q1984.56 68.695 1981.72 69.3391 Q1978.95 69.9832 1978.18 71.0782 Q1977.47 72.1088 1976.76 74.8785 L1958.92 146.118 Q1958.28 148.501 1958.28 149.145 Q1958.28 149.854 1958.6 150.111 Q1958.98 150.305 1960.02 150.433 Q1961.17 150.627 1962.91 150.627 L1975.28 150.627 Q1979.02 150.627 1982.3 150.047 Q1985.59 149.467 1988.1 148.63 Q1990.68 147.793 1992.99 146.247 Q1995.31 144.701 1996.92 143.348 Q1998.6 141.931 2000.21 139.741 Q2001.88 137.487 2002.85 135.941 Q2003.88 134.331 2005.04 131.754 Q2006.2 129.113 2006.78 127.632 Q2007.42 126.086 2008.39 123.445 Q2008.97 122.092 2009.16 121.706 Q2009.35 121.319 2009.68 120.997 Q2010.06 120.675 2010.64 120.675 Q2011.42 120.675 2011.8 121.126 Q2012.25 121.577 2012.25 122.092 Z" fill="#000000" fill-rule="nonzero" fill-opacity="1" /><path clip-path="url(#clip720)" d="M2028.89 121.706 Q2028.89 99.4194 2037.2 81.4485 Q2040.75 73.9123 2045.71 67.6 Q2050.67 61.2876 2053.95 58.5179 Q2057.24 55.7482 2058.14 55.7482 Q2059.43 55.7482 2059.49 57.0365 Q2059.49 57.6806 2057.75 59.2909 Q2036.49 80.9332 2036.56 121.706 Q2036.56 162.607 2057.24 183.412 Q2059.49 185.667 2059.49 186.375 Q2059.49 187.663 2058.14 187.663 Q2057.24 187.663 2054.08 185.023 Q2050.92 182.382 2046.03 176.327 Q2041.13 170.272 2037.59 162.865 Q2028.89 144.894 2028.89 121.706 Z" fill="#000000" fill-rule="nonzero" fill-opacity="1" /><path clip-path="url(#clip720)" d="M2126.13 66.6982 Q2126.13 67.6644 2125.42 69.0815 Q2124.78 70.3697 2123.42 71.2071 Q2122.14 71.98 2120.72 71.98 Q2120.27 71.98 2119.24 71.7223 Q2117.5 70.9494 2114.79 69.2103 Q2112.09 67.4712 2109.64 66.3762 Q2107.26 65.2168 2104.62 65.0879 Q2102.3 65.0879 2100.37 65.9253 Q2098.63 66.8915 2097.47 68.9526 Q2096.95 69.79 2096.95 71.2071 Q2096.95 73.2038 2098.05 75.8447 Q2099.14 78.4856 2101.4 81.8994 Q2103.71 85.3132 2105.39 87.632 Q2107.06 89.8865 2109.96 93.6223 Q2110.22 93.9444 2110.35 94.1376 Q2110.48 94.2664 2110.67 94.5885 Q2110.86 94.8462 2111.06 95.0394 Q2117.18 102.704 2118.72 111.142 Q2119.11 114.105 2119.11 117.197 Q2119.11 123.381 2117.24 130.659 Q2115.63 137.293 2112.22 143.026 Q2108.8 148.694 2103.65 152.43 Q2098.56 156.166 2093.02 156.166 Q2087.55 156.166 2083.04 153.783 Q2078.53 151.335 2075.82 147.148 Q2072.15 141.609 2072.15 133.944 Q2072.15 129.628 2073.18 125.957 Q2074.6 120.096 2077.95 114.685 Q2081.3 109.274 2086.13 105.088 Q2093.47 98.9041 2101.46 97.165 Q2097.72 90.0797 2095.53 84.6047 Q2093.41 79.0653 2093.41 74.3632 Q2093.41 70.2409 2094.95 67.6 Q2096.31 64.7659 2099.08 63.1556 Q2101.4 61.7385 2104.75 61.03 Q2106.81 60.7724 2108.16 60.7724 Q2112.73 60.7724 2123.36 63.2844 Q2126.13 63.9285 2126.13 66.6982 M2110.03 122.479 Q2110.03 118.55 2109.38 115.909 Q2108.16 109.468 2103.26 100.579 L2102.88 99.9347 Q2096.63 101.738 2091.54 107.213 Q2085.16 113.912 2081.94 126.601 Q2080.2 133.686 2080.2 137.68 Q2080.2 141.996 2081.81 145.731 Q2083.36 149.21 2086.26 151.206 Q2089.22 153.203 2093.15 153.203 Q2096.11 153.203 2098.69 151.528 Q2101.27 149.789 2103.13 146.762 Q2105 143.735 2106.29 140.45 Q2107.64 137.1 2108.67 133.171 Q2110.03 127.889 2110.03 122.479 Z" fill="#000000" fill-rule="nonzero" fill-opacity="1" /><path clip-path="url(#clip720)" d="M2135.42 186.375 Q2135.42 185.731 2137.09 184.121 Q2158.35 162.478 2158.35 121.706 Q2158.35 80.8044 2137.93 60.1282 Q2135.42 57.745 2135.42 57.0365 Q2135.42 55.7482 2136.71 55.7482 Q2137.61 55.7482 2140.77 58.3891 Q2143.99 61.03 2148.82 67.0847 Q2153.71 73.1394 2157.32 80.5468 Q2166.02 98.5176 2166.02 121.706 Q2166.02 143.992 2157.71 161.963 Q2154.16 169.499 2149.2 175.812 Q2144.24 182.124 2140.96 184.894 Q2137.67 187.663 2136.71 187.663 Q2135.42 187.663 2135.42 186.375 Z" fill="#000000" fill-rule="nonzero" fill-opacity="1" /><path clip-path="url(#clip720)" d="M2222.67 134.653 Q2222.79 133.042 2225.31 133.042 L2306.14 133.042 Q2309.94 133.042 2310.01 134.524 Q2310.01 136.134 2306.4 136.07 L2226.21 136.07 Q2222.67 136.134 2222.67 134.653 M2222.67 108.888 Q2222.67 107.278 2225.44 107.342 L2306.01 107.342 Q2309.94 107.342 2310.01 108.888 Q2310.01 110.369 2306.66 110.369 L2225.31 110.369 Q2222.67 110.369 2222.67 108.888 Z" fill="#000000" fill-rule="nonzero" fill-opacity="1" /><path clip-path="url(#clip720)" d="M2360.88 79.3873 L2360.88 75.265 Q2376.73 75.265 2384.91 66.8271 Q2387.16 66.8271 2387.55 67.3423 Q2387.93 67.8576 2387.93 70.2409 L2387.93 144.25 Q2387.93 148.179 2389.87 149.403 Q2391.8 150.627 2400.24 150.627 L2404.42 150.627 L2404.42 154.685 Q2399.79 154.298 2383.04 154.298 Q2366.29 154.298 2361.72 154.685 L2361.72 150.627 L2365.9 150.627 Q2374.21 150.627 2376.21 149.467 Q2378.21 148.243 2378.21 144.25 L2378.21 75.9091 Q2371.32 79.3873 2360.88 79.3873 Z" fill="#000000" fill-rule="nonzero" fill-opacity="1" /><path clip-path="url(#clip720)" d="M2426.2 185.796 Q2426.2 185.151 2426.72 183.734 L2473.29 59.2909 Q2473.29 59.1621 2473.61 58.4535 Q2473.93 57.745 2474.13 57.2941 Q2474.32 56.7788 2474.71 56.3924 Q2475.16 56.0059 2475.67 56.0059 Q2476.96 56.0059 2476.96 57.6162 Q2476.96 57.745 2476.57 59.2909 L2429.88 183.863 Q2429.1 186.118 2428.59 186.762 Q2428.14 187.406 2427.36 187.406 Q2426.2 187.406 2426.2 185.796 Z" fill="#000000" fill-rule="nonzero" fill-opacity="1" /><path clip-path="url(#clip720)" d="M2545.5 66.6982 Q2545.5 67.6644 2544.8 69.0815 Q2544.15 70.3697 2542.8 71.2071 Q2541.51 71.98 2540.09 71.98 Q2539.64 71.98 2538.61 71.7223 Q2536.87 70.9494 2534.17 69.2103 Q2531.46 67.4712 2529.01 66.3762 Q2526.63 65.2168 2523.99 65.0879 Q2521.67 65.0879 2519.74 65.9253 Q2518 66.8915 2516.84 68.9526 Q2516.33 69.79 2516.33 71.2071 Q2516.33 73.2038 2517.42 75.8447 Q2518.52 78.4856 2520.77 81.8994 Q2523.09 85.3132 2524.76 87.632 Q2526.44 89.8865 2529.34 93.6223 Q2529.59 93.9444 2529.72 94.1376 Q2529.85 94.2664 2530.04 94.5885 Q2530.24 94.8462 2530.43 95.0394 Q2536.55 102.704 2538.1 111.142 Q2538.48 114.105 2538.48 117.197 Q2538.48 123.381 2536.61 130.659 Q2535 137.293 2531.59 143.026 Q2528.18 148.694 2523.02 152.43 Q2517.94 156.166 2512.4 156.166 Q2506.92 156.166 2502.41 153.783 Q2497.9 151.335 2495.2 147.148 Q2491.53 141.609 2491.53 133.944 Q2491.53 129.628 2492.56 125.957 Q2493.97 120.096 2497.32 114.685 Q2500.67 109.274 2505.5 105.088 Q2512.85 98.9041 2520.83 97.165 Q2517.1 90.0797 2514.91 84.6047 Q2512.78 79.0653 2512.78 74.3632 Q2512.78 70.2409 2514.33 67.6 Q2515.68 64.7659 2518.45 63.1556 Q2520.77 61.7385 2524.12 61.03 Q2526.18 60.7724 2527.53 60.7724 Q2532.11 60.7724 2542.73 63.2844 Q2545.5 63.9285 2545.5 66.6982 M2529.4 122.479 Q2529.4 118.55 2528.76 115.909 Q2527.53 109.468 2522.64 100.579 L2522.25 99.9347 Q2516 101.738 2510.91 107.213 Q2504.54 113.912 2501.32 126.601 Q2499.58 133.686 2499.58 137.68 Q2499.58 141.996 2501.19 145.731 Q2502.73 149.21 2505.63 151.206 Q2508.6 153.203 2512.52 153.203 Q2515.49 153.203 2518.06 151.528 Q2520.64 149.789 2522.51 146.762 Q2524.38 143.735 2525.66 140.45 Q2527.02 137.1 2528.05 133.171 Q2529.4 127.889 2529.4 122.479 Z" fill="#000000" fill-rule="nonzero" fill-opacity="1" /><path clip-path="url(#clip720)" d="M2559.04 48.4137 Q2559.04 34.8422 2562.47 27.4477 Q2567.25 16.4462 2578.52 16.4462 Q2580.91 16.4462 2583.39 17.1225 Q2585.92 17.7538 2589.07 20.2336 Q2592.27 22.7135 2594.21 26.7714 Q2597.91 34.6168 2597.91 48.4137 Q2597.91 61.8951 2594.48 69.2445 Q2589.48 79.9755 2578.43 79.9755 Q2574.28 79.9755 2570.05 77.8563 Q2565.85 75.7372 2563.19 70.6422 Q2559.04 63.0223 2559.04 48.4137 M2566.71 47.2865 Q2566.71 61.2188 2567.7 66.7646 Q2568.83 72.7614 2571.89 75.3765 Q2575.01 77.9465 2578.43 77.9465 Q2582.13 77.9465 2585.2 75.1961 Q2588.31 72.4007 2589.25 66.4039 Q2590.29 60.4974 2590.25 47.2865 Q2590.25 34.4364 2589.34 29.2963 Q2588.13 23.2996 2584.88 20.9099 Q2581.68 18.4752 2578.43 18.4752 Q2577.21 18.4752 2575.91 18.8359 Q2574.64 19.1966 2572.8 20.2336 Q2570.95 21.2706 2569.5 23.8407 Q2568.11 26.4107 2567.43 30.2883 Q2566.71 35.2931 2566.71 47.2865 Z" fill="#000000" fill-rule="nonzero" fill-opacity="1" /><path clip-path="url(#clip720)" d="M2606.17 76.4586 Q2604.77 74.9707 2604.77 73.0319 Q2604.77 71.0931 2606.17 69.6954 Q2607.57 68.2526 2609.68 68.2526 Q2611.71 68.2526 2613.07 69.6052 Q2614.46 70.9128 2614.46 73.077 Q2614.46 75.1961 2612.98 76.5939 Q2611.53 77.9465 2609.68 77.9465 Q2607.57 77.9465 2606.17 76.4586 Z" fill="#000000" fill-rule="nonzero" fill-opacity="1" /><path clip-path="url(#clip720)" d="M2630.18 63.0674 Q2630.18 60.317 2631.67 59.28 Q2633.15 58.1979 2634.73 58.1979 Q2636.85 58.1979 2638.07 59.5505 Q2639.33 60.8581 2639.33 62.7067 Q2639.33 64.5553 2638.07 65.908 Q2636.85 67.2155 2634.73 67.2155 Q2633.7 67.2155 2633.15 67.0352 Q2634.37 71.2735 2638.07 74.3395 Q2641.81 77.4055 2646.73 77.4055 Q2652.9 77.4055 2656.6 71.4087 Q2658.81 67.5311 2658.81 58.7389 Q2658.81 50.9838 2657.14 47.1062 Q2654.57 41.1996 2649.3 41.1996 Q2641.81 41.1996 2637.39 47.6472 Q2636.85 48.4588 2636.22 48.5039 Q2635.32 48.5039 2635.09 48.008 Q2634.91 47.4669 2634.91 46.0692 L2634.91 18.7457 Q2634.91 16.5364 2635.81 16.5364 Q2636.18 16.5364 2636.94 16.8069 Q2642.76 19.3769 2649.21 19.422 Q2655.83 19.422 2661.79 16.7167 Q2662.24 16.4462 2662.51 16.4462 Q2663.41 16.4462 2663.45 17.4832 Q2663.45 17.8439 2662.69 18.9261 Q2661.97 19.9631 2660.39 21.3608 Q2658.81 22.7135 2656.78 24.021 Q2654.75 25.3286 2651.78 26.2303 Q2648.85 27.087 2645.6 27.087 Q2641.72 27.087 2637.75 25.8696 L2637.75 43.8598 Q2642.53 39.1707 2649.48 39.1707 Q2656.87 39.1707 2661.97 45.1223 Q2667.06 51.074 2667.06 59.3702 Q2667.06 68.0722 2661.02 74.0238 Q2655.02 79.9755 2646.91 79.9755 Q2639.51 79.9755 2634.82 74.7002 Q2630.18 69.4248 2630.18 63.0674 Z" fill="#000000" fill-rule="nonzero" fill-opacity="1" /><polyline clip-path="url(#clip722)" style="stroke:#009af9; stroke-linecap:round; stroke-linejoin:round; stroke-width:14; stroke-opacity:1; fill:none" points="472.388,911.59 540.869,1060.67 609.351,1169.16 677.832,1254.53 746.314,1324.93 814.795,1384.85 883.277,1437.01 951.759,1483.19 1020.24,1524.63 1088.72,1562.21 1157.2,1596.59 1225.68,1628.27 1294.17,1657.65 1362.65,1685.03 1431.13,1710.68 1499.61,1734.79 1568.09,1757.55 1636.57,1779.09 1705.06,1799.55 1773.54,1819.01 1842.02,1837.59 1910.5,1855.35 1978.98,1872.36 2047.46,1888.68 2115.95,1904.37 2184.43,1919.47 2252.91,1934.03 2321.39,1948.09 2389.87,1961.67 2458.35,1974.81 2526.83,1987.54 2595.32,1999.87 2663.8,2011.85 2732.28,2023.48 2800.76,2034.78 2869.24,2045.78 2937.72,2056.48 3006.21,2066.91 3074.69,2077.08 "/>
<polyline clip-path="url(#clip722)" style="stroke:#e26f46; stroke-linecap:round; stroke-linejoin:round; stroke-width:14; stroke-opacity:1; fill:none" stroke-dasharray="56, 35" points="472.388,899.973 540.869,1051.61 609.351,1161.66 677.832,1248.09 746.314,1319.28 814.795,1379.79 883.277,1432.43 951.759,1478.99 1020.24,1520.75 1088.72,1558.6 1157.2,1593.21 1225.68,1625.09 1294.17,1654.65 1362.65,1682.19 1431.13,1707.97 1499.61,1732.22 1568.09,1755.09 1636.57,1776.73 1705.06,1797.28 1773.54,1816.83 1842.02,1835.49 1910.5,1853.32 1978.98,1870.4 2047.46,1886.78 2115.95,1902.53 2184.43,1917.69 2252.91,1932.3 2321.39,1946.41 2389.87,1960.03 2458.35,1973.22 2526.83,1985.98 2595.32,1998.36 2663.8,2010.37 2732.28,2022.03 2800.76,2033.37 2869.24,2044.4 2937.72,2055.13 3006.21,2065.59 3074.69,2075.79 "/>
<polyline clip-path="url(#clip722)" style="stroke:#3da44d; stroke-linecap:round; stroke-linejoin:round; stroke-width:14; stroke-opacity:1; fill:none" points="472.388,245.674 540.869,409.765 609.351,526.189 677.832,616.495 746.314,690.28 814.795,752.664 883.277,806.704 951.759,854.371 1020.24,897.01 1088.72,935.582 1157.2,970.795 1225.68,1003.19 1294.17,1033.18 1362.65,1061.1 1431.13,1087.22 1499.61,1111.75 1568.09,1134.89 1636.57,1156.77 1705.06,1177.53 1773.54,1197.27 1842.02,1216.1 1910.5,1234.09 1978.98,1251.31 2047.46,1267.83 2115.95,1283.7 2184.43,1298.98 2252.91,1313.7 2321.39,1327.9 2389.87,1341.62 2458.35,1354.89 2526.83,1367.73 2595.32,1380.19 2663.8,1392.27 2732.28,1404 2800.76,1415.4 2869.24,1426.49 2937.72,1437.28 3006.21,1447.79 3074.69,1458.04 "/>
<path clip-path="url(#clip720)" d="M2056.08 566.481 L3060.81 566.481 L3060.81 255.441 L2056.08 255.441  Z" fill="#ffffff" fill-rule="evenodd" fill-opacity="1"/>
<polyline clip-path="url(#clip720)" style="stroke:#000000; stroke-linecap:round; stroke-linejoin:round; stroke-width:4; stroke-opacity:1; fill:none" points="2056.08,566.481 3060.81,566.481 3060.81,255.441 2056.08,255.441 2056.08,566.481 "/>
<polyline clip-path="url(#clip720)" style="stroke:#009af9; stroke-linecap:round; stroke-linejoin:round; stroke-width:21; stroke-opacity:1; fill:none" points="2086.73,333.201 2270.62,333.201 "/>
<path clip-path="url(#clip720)" d="M2343.08 311.274 L2343.08 318.67 Q2339.54 315.371 2335.51 313.74 Q2331.52 312.108 2327 312.108 Q2318.11 312.108 2313.39 317.559 Q2308.67 322.976 2308.67 333.253 Q2308.67 343.496 2313.39 348.948 Q2318.11 354.364 2327 354.364 Q2331.52 354.364 2335.51 352.732 Q2339.54 351.1 2343.08 347.802 L2343.08 355.128 Q2339.4 357.628 2335.27 358.878 Q2331.17 360.128 2326.59 360.128 Q2314.82 360.128 2308.04 352.941 Q2301.27 345.719 2301.27 333.253 Q2301.27 320.753 2308.04 313.566 Q2314.82 306.344 2326.59 306.344 Q2331.24 306.344 2335.34 307.594 Q2339.47 308.809 2343.08 311.274 Z" fill="#000000" fill-rule="nonzero" fill-opacity="1" /><path clip-path="url(#clip720)" d="M2368.7 324.712 Q2363.57 324.712 2360.58 328.739 Q2357.59 332.733 2357.59 339.712 Q2357.59 346.691 2360.54 350.719 Q2363.53 354.712 2368.7 354.712 Q2373.81 354.712 2376.79 350.684 Q2379.78 346.656 2379.78 339.712 Q2379.78 332.802 2376.79 328.774 Q2373.81 324.712 2368.7 324.712 M2368.7 319.295 Q2377.04 319.295 2381.79 324.712 Q2386.55 330.128 2386.55 339.712 Q2386.55 349.26 2381.79 354.712 Q2377.04 360.128 2368.7 360.128 Q2360.34 360.128 2355.58 354.712 Q2350.86 349.26 2350.86 339.712 Q2350.86 330.128 2355.58 324.712 Q2360.34 319.295 2368.7 319.295 Z" fill="#000000" fill-rule="nonzero" fill-opacity="1" /><path clip-path="url(#clip720)" d="M2429.47 335.649 L2429.47 359.121 L2423.08 359.121 L2423.08 335.857 Q2423.08 330.337 2420.93 327.594 Q2418.77 324.851 2414.47 324.851 Q2409.29 324.851 2406.31 328.149 Q2403.32 331.448 2403.32 337.142 L2403.32 359.121 L2396.9 359.121 L2396.9 320.233 L2403.32 320.233 L2403.32 326.274 Q2405.61 322.767 2408.7 321.031 Q2411.83 319.295 2415.89 319.295 Q2422.59 319.295 2426.03 323.462 Q2429.47 327.594 2429.47 335.649 Z" fill="#000000" fill-rule="nonzero" fill-opacity="1" /><path clip-path="url(#clip720)" d="M2467 321.378 L2467 327.42 Q2464.29 326.031 2461.38 325.337 Q2458.46 324.642 2455.34 324.642 Q2450.58 324.642 2448.18 326.101 Q2445.82 327.559 2445.82 330.476 Q2445.82 332.698 2447.52 333.983 Q2449.22 335.233 2454.36 336.378 L2456.55 336.864 Q2463.36 338.323 2466.2 340.996 Q2469.09 343.635 2469.09 348.392 Q2469.09 353.809 2464.78 356.968 Q2460.51 360.128 2453.01 360.128 Q2449.88 360.128 2446.48 359.503 Q2443.11 358.913 2439.36 357.698 L2439.36 351.1 Q2442.9 352.941 2446.34 353.878 Q2449.78 354.781 2453.15 354.781 Q2457.66 354.781 2460.09 353.253 Q2462.52 351.691 2462.52 348.878 Q2462.52 346.274 2460.75 344.885 Q2459.02 343.496 2453.08 342.212 L2450.86 341.691 Q2444.92 340.441 2442.28 337.871 Q2439.64 335.267 2439.64 330.753 Q2439.64 325.267 2443.53 322.281 Q2447.42 319.295 2454.57 319.295 Q2458.11 319.295 2461.24 319.816 Q2464.36 320.337 2467 321.378 Z" fill="#000000" fill-rule="nonzero" fill-opacity="1" /><path clip-path="url(#clip720)" d="M2485.58 309.191 L2485.58 320.233 L2498.74 320.233 L2498.74 325.198 L2485.58 325.198 L2485.58 346.309 Q2485.58 351.066 2486.86 352.42 Q2488.18 353.774 2492.18 353.774 L2498.74 353.774 L2498.74 359.121 L2492.18 359.121 Q2484.78 359.121 2481.97 356.378 Q2479.15 353.6 2479.15 346.309 L2479.15 325.198 L2474.47 325.198 L2474.47 320.233 L2479.15 320.233 L2479.15 309.191 L2485.58 309.191 Z" fill="#000000" fill-rule="nonzero" fill-opacity="1" /><path clip-path="url(#clip720)" d="M2529.68 326.205 Q2528.6 325.58 2527.31 325.302 Q2526.06 324.99 2524.54 324.99 Q2519.12 324.99 2516.2 328.531 Q2513.32 332.038 2513.32 338.635 L2513.32 359.121 L2506.9 359.121 L2506.9 320.233 L2513.32 320.233 L2513.32 326.274 Q2515.34 322.733 2518.56 321.031 Q2521.79 319.295 2526.41 319.295 Q2527.07 319.295 2527.87 319.399 Q2528.67 319.469 2529.64 319.642 L2529.68 326.205 Z" fill="#000000" fill-rule="nonzero" fill-opacity="1" /><path clip-path="url(#clip720)" d="M2535.72 343.774 L2535.72 320.233 L2542.11 320.233 L2542.11 343.531 Q2542.11 349.052 2544.26 351.83 Q2546.41 354.573 2550.72 354.573 Q2555.89 354.573 2558.88 351.274 Q2561.9 347.975 2561.9 342.281 L2561.9 320.233 L2568.29 320.233 L2568.29 359.121 L2561.9 359.121 L2561.9 353.149 Q2559.57 356.691 2556.48 358.427 Q2553.43 360.128 2549.36 360.128 Q2542.66 360.128 2539.19 355.962 Q2535.72 351.795 2535.72 343.774 M2551.79 319.295 L2551.79 319.295 Z" fill="#000000" fill-rule="nonzero" fill-opacity="1" /><path clip-path="url(#clip720)" d="M2609.43 321.726 L2609.43 327.698 Q2606.72 326.205 2603.98 325.476 Q2601.27 324.712 2598.49 324.712 Q2592.28 324.712 2588.84 328.67 Q2585.4 332.594 2585.4 339.712 Q2585.4 346.83 2588.84 350.788 Q2592.28 354.712 2598.49 354.712 Q2601.27 354.712 2603.98 353.982 Q2606.72 353.219 2609.43 351.725 L2609.43 357.628 Q2606.76 358.878 2603.88 359.503 Q2601.03 360.128 2597.8 360.128 Q2589.02 360.128 2583.84 354.607 Q2578.67 349.087 2578.67 339.712 Q2578.67 330.198 2583.88 324.746 Q2589.12 319.295 2598.22 319.295 Q2601.17 319.295 2603.98 319.92 Q2606.79 320.51 2609.43 321.726 Z" fill="#000000" fill-rule="nonzero" fill-opacity="1" /><path clip-path="url(#clip720)" d="M2626.86 309.191 L2626.86 320.233 L2640.02 320.233 L2640.02 325.198 L2626.86 325.198 L2626.86 346.309 Q2626.86 351.066 2628.15 352.42 Q2629.47 353.774 2633.46 353.774 L2640.02 353.774 L2640.02 359.121 L2633.46 359.121 Q2626.06 359.121 2623.25 356.378 Q2620.44 353.6 2620.44 346.309 L2620.44 325.198 L2615.75 325.198 L2615.75 320.233 L2620.44 320.233 L2620.44 309.191 L2626.86 309.191 Z" fill="#000000" fill-rule="nonzero" fill-opacity="1" /><path clip-path="url(#clip720)" d="M2648.42 320.233 L2654.81 320.233 L2654.81 359.121 L2648.42 359.121 L2648.42 320.233 M2648.42 305.094 L2654.81 305.094 L2654.81 313.184 L2648.42 313.184 L2648.42 305.094 Z" fill="#000000" fill-rule="nonzero" fill-opacity="1" /><path clip-path="url(#clip720)" d="M2663.6 320.233 L2670.37 320.233 L2682.52 352.871 L2694.67 320.233 L2701.45 320.233 L2686.86 359.121 L2678.18 359.121 L2663.6 320.233 Z" fill="#000000" fill-rule="nonzero" fill-opacity="1" /><path clip-path="url(#clip720)" d="M2743.53 338.08 L2743.53 341.205 L2714.15 341.205 Q2714.57 347.802 2718.11 351.274 Q2721.69 354.712 2728.04 354.712 Q2731.72 354.712 2735.16 353.809 Q2738.63 352.906 2742.04 351.1 L2742.04 357.142 Q2738.6 358.6 2734.99 359.364 Q2731.38 360.128 2727.66 360.128 Q2718.35 360.128 2712.9 354.712 Q2707.49 349.295 2707.49 340.059 Q2707.49 330.51 2712.63 324.92 Q2717.8 319.295 2726.55 319.295 Q2734.4 319.295 2738.94 324.365 Q2743.53 329.399 2743.53 338.08 M2737.14 336.205 Q2737.07 330.962 2734.19 327.837 Q2731.34 324.712 2726.62 324.712 Q2721.27 324.712 2718.04 327.733 Q2714.85 330.753 2714.36 336.239 L2737.14 336.205 Z" fill="#000000" fill-rule="nonzero" fill-opacity="1" /><path clip-path="url(#clip720)" d="M2776.9 307.281 L2787.35 307.281 L2800.58 342.559 L2813.88 307.281 L2824.33 307.281 L2824.33 359.121 L2817.49 359.121 L2817.49 313.601 L2804.12 349.156 L2797.07 349.156 L2783.7 313.601 L2783.7 359.121 L2776.9 359.121 L2776.9 307.281 Z" fill="#000000" fill-rule="nonzero" fill-opacity="1" /><path clip-path="url(#clip720)" d="M2871.24 338.08 L2871.24 341.205 L2841.86 341.205 Q2842.28 347.802 2845.82 351.274 Q2849.4 354.712 2855.75 354.712 Q2859.43 354.712 2862.87 353.809 Q2866.34 352.906 2869.74 351.1 L2869.74 357.142 Q2866.31 358.6 2862.69 359.364 Q2859.08 360.128 2855.37 360.128 Q2846.06 360.128 2840.61 354.712 Q2835.19 349.295 2835.19 340.059 Q2835.19 330.51 2840.33 324.92 Q2845.51 319.295 2854.26 319.295 Q2862.1 319.295 2866.65 324.365 Q2871.24 329.399 2871.24 338.08 M2864.85 336.205 Q2864.78 330.962 2861.9 327.837 Q2859.05 324.712 2854.33 324.712 Q2848.98 324.712 2845.75 327.733 Q2842.56 330.753 2842.07 336.239 L2864.85 336.205 Z" fill="#000000" fill-rule="nonzero" fill-opacity="1" /><path clip-path="url(#clip720)" d="M2888.04 309.191 L2888.04 320.233 L2901.2 320.233 L2901.2 325.198 L2888.04 325.198 L2888.04 346.309 Q2888.04 351.066 2889.33 352.42 Q2890.65 353.774 2894.64 353.774 L2901.2 353.774 L2901.2 359.121 L2894.64 359.121 Q2887.24 359.121 2884.43 356.378 Q2881.62 353.6 2881.62 346.309 L2881.62 325.198 L2876.93 325.198 L2876.93 320.233 L2881.62 320.233 L2881.62 309.191 L2888.04 309.191 Z" fill="#000000" fill-rule="nonzero" fill-opacity="1" /><path clip-path="url(#clip720)" d="M2941.93 335.649 L2941.93 359.121 L2935.54 359.121 L2935.54 335.857 Q2935.54 330.337 2933.39 327.594 Q2931.24 324.851 2926.93 324.851 Q2921.76 324.851 2918.77 328.149 Q2915.78 331.448 2915.78 337.142 L2915.78 359.121 L2909.36 359.121 L2909.36 305.094 L2915.78 305.094 L2915.78 326.274 Q2918.08 322.767 2921.17 321.031 Q2924.29 319.295 2928.35 319.295 Q2935.06 319.295 2938.49 323.462 Q2941.93 327.594 2941.93 335.649 Z" fill="#000000" fill-rule="nonzero" fill-opacity="1" /><path clip-path="url(#clip720)" d="M2969.74 324.712 Q2964.6 324.712 2961.62 328.739 Q2958.63 332.733 2958.63 339.712 Q2958.63 346.691 2961.58 350.719 Q2964.57 354.712 2969.74 354.712 Q2974.85 354.712 2977.83 350.684 Q2980.82 346.656 2980.82 339.712 Q2980.82 332.802 2977.83 328.774 Q2974.85 324.712 2969.74 324.712 M2969.74 319.295 Q2978.08 319.295 2982.83 324.712 Q2987.59 330.128 2987.59 339.712 Q2987.59 349.26 2982.83 354.712 Q2978.08 360.128 2969.74 360.128 Q2961.37 360.128 2956.62 354.712 Q2951.9 349.26 2951.9 339.712 Q2951.9 330.128 2956.62 324.712 Q2961.37 319.295 2969.74 319.295 Z" fill="#000000" fill-rule="nonzero" fill-opacity="1" /><path clip-path="url(#clip720)" d="M3023.77 326.135 L3023.77 305.094 L3030.16 305.094 L3030.16 359.121 L3023.77 359.121 L3023.77 353.288 Q3021.76 356.76 3018.67 358.462 Q3015.61 360.128 3011.3 360.128 Q3004.26 360.128 2999.81 354.503 Q2995.4 348.878 2995.4 339.712 Q2995.4 330.545 2999.81 324.92 Q3004.26 319.295 3011.3 319.295 Q3015.61 319.295 3018.67 320.996 Q3021.76 322.663 3023.77 326.135 M3002 339.712 Q3002 346.76 3004.88 350.788 Q3007.8 354.781 3012.87 354.781 Q3017.94 354.781 3020.85 350.788 Q3023.77 346.76 3023.77 339.712 Q3023.77 332.663 3020.85 328.67 Q3017.94 324.642 3012.87 324.642 Q3007.8 324.642 3004.88 328.67 Q3002 332.663 3002 339.712 Z" fill="#000000" fill-rule="nonzero" fill-opacity="1" /><polyline clip-path="url(#clip720)" style="stroke:#e26f46; stroke-linecap:round; stroke-linejoin:round; stroke-width:21; stroke-opacity:1; fill:none" stroke-dasharray="84, 53" points="2086.73,410.961 2270.62,410.961 "/>
<path clip-path="url(#clip720)" d="M2325.02 391.951 L2315.51 417.749 L2334.57 417.749 L2325.02 391.951 M2321.07 385.041 L2329.02 385.041 L2348.77 436.881 L2341.48 436.881 L2336.76 423.583 L2313.39 423.583 L2308.67 436.881 L2301.27 436.881 L2321.07 385.041 Z" fill="#000000" fill-rule="nonzero" fill-opacity="1" /><path clip-path="url(#clip720)" d="M2380.86 399.138 L2380.86 405.18 Q2378.15 403.791 2375.23 403.097 Q2372.31 402.402 2369.19 402.402 Q2364.43 402.402 2362.04 403.861 Q2359.68 405.319 2359.68 408.236 Q2359.68 410.458 2361.38 411.743 Q2363.08 412.993 2368.22 414.138 L2370.41 414.624 Q2377.21 416.083 2380.06 418.756 Q2382.94 421.395 2382.94 426.152 Q2382.94 431.569 2378.63 434.728 Q2374.36 437.888 2366.86 437.888 Q2363.74 437.888 2360.34 437.263 Q2356.97 436.673 2353.22 435.458 L2353.22 428.86 Q2356.76 430.701 2360.2 431.638 Q2363.63 432.541 2367 432.541 Q2371.52 432.541 2373.95 431.013 Q2376.38 429.451 2376.38 426.638 Q2376.38 424.034 2374.61 422.645 Q2372.87 421.256 2366.93 419.972 L2364.71 419.451 Q2358.77 418.201 2356.13 415.631 Q2353.5 413.027 2353.5 408.513 Q2353.5 403.027 2357.38 400.041 Q2361.27 397.055 2368.43 397.055 Q2371.97 397.055 2375.09 397.576 Q2378.22 398.097 2380.86 399.138 Z" fill="#000000" fill-rule="nonzero" fill-opacity="1" /><path clip-path="url(#clip720)" d="M2409.29 440.492 Q2406.59 447.437 2404.02 449.555 Q2401.45 451.673 2397.14 451.673 L2392.04 451.673 L2392.04 446.326 L2395.79 446.326 Q2398.43 446.326 2399.88 445.076 Q2401.34 443.826 2403.11 439.173 L2404.26 436.256 L2388.53 397.993 L2395.3 397.993 L2407.45 428.409 L2419.61 397.993 L2426.38 397.993 L2409.29 440.492 Z" fill="#000000" fill-rule="nonzero" fill-opacity="1" /><path clip-path="url(#clip720)" d="M2465.47 405.458 Q2467.87 401.152 2471.2 399.104 Q2474.54 397.055 2479.05 397.055 Q2485.13 397.055 2488.43 401.326 Q2491.72 405.562 2491.72 413.409 L2491.72 436.881 L2485.3 436.881 L2485.3 413.617 Q2485.3 408.027 2483.32 405.319 Q2481.34 402.611 2477.28 402.611 Q2472.31 402.611 2469.43 405.909 Q2466.55 409.208 2466.55 414.902 L2466.55 436.881 L2460.13 436.881 L2460.13 413.617 Q2460.13 407.993 2458.15 405.319 Q2456.17 402.611 2452.04 402.611 Q2447.14 402.611 2444.26 405.944 Q2441.38 409.243 2441.38 414.902 L2441.38 436.881 L2434.95 436.881 L2434.95 397.993 L2441.38 397.993 L2441.38 404.034 Q2443.56 400.458 2446.62 398.756 Q2449.68 397.055 2453.88 397.055 Q2458.11 397.055 2461.06 399.208 Q2464.05 401.361 2465.47 405.458 Z" fill="#000000" fill-rule="nonzero" fill-opacity="1" /><path clip-path="url(#clip720)" d="M2510.65 431.048 L2510.65 451.673 L2504.22 451.673 L2504.22 397.993 L2510.65 397.993 L2510.65 403.895 Q2512.66 400.423 2515.72 398.756 Q2518.81 397.055 2523.08 397.055 Q2530.16 397.055 2534.57 402.68 Q2539.02 408.305 2539.02 417.472 Q2539.02 426.638 2534.57 432.263 Q2530.16 437.888 2523.08 437.888 Q2518.81 437.888 2515.72 436.222 Q2512.66 434.52 2510.65 431.048 M2532.38 417.472 Q2532.38 410.423 2529.47 406.43 Q2526.59 402.402 2521.52 402.402 Q2516.45 402.402 2513.53 406.43 Q2510.65 410.423 2510.65 417.472 Q2510.65 424.52 2513.53 428.548 Q2516.45 432.541 2521.52 432.541 Q2526.59 432.541 2529.47 428.548 Q2532.38 424.52 2532.38 417.472 Z" fill="#000000" fill-rule="nonzero" fill-opacity="1" /><path clip-path="url(#clip720)" d="M2555.93 386.951 L2555.93 397.993 L2569.08 397.993 L2569.08 402.958 L2555.93 402.958 L2555.93 424.069 Q2555.93 428.826 2557.21 430.18 Q2558.53 431.534 2562.52 431.534 L2569.08 431.534 L2569.08 436.881 L2562.52 436.881 Q2555.13 436.881 2552.31 434.138 Q2549.5 431.36 2549.5 424.069 L2549.5 402.958 L2544.81 402.958 L2544.81 397.993 L2549.5 397.993 L2549.5 386.951 L2555.93 386.951 Z" fill="#000000" fill-rule="nonzero" fill-opacity="1" /><path clip-path="url(#clip720)" d="M2592.56 402.472 Q2587.42 402.472 2584.43 406.499 Q2581.45 410.493 2581.45 417.472 Q2581.45 424.451 2584.4 428.479 Q2587.38 432.472 2592.56 432.472 Q2597.66 432.472 2600.65 428.444 Q2603.63 424.416 2603.63 417.472 Q2603.63 410.562 2600.65 406.534 Q2597.66 402.472 2592.56 402.472 M2592.56 397.055 Q2600.89 397.055 2605.65 402.472 Q2610.4 407.888 2610.4 417.472 Q2610.4 427.02 2605.65 432.472 Q2600.89 437.888 2592.56 437.888 Q2584.19 437.888 2579.43 432.472 Q2574.71 427.02 2574.71 417.472 Q2574.71 407.888 2579.43 402.472 Q2584.19 397.055 2592.56 397.055 Z" fill="#000000" fill-rule="nonzero" fill-opacity="1" /><path clip-path="url(#clip720)" d="M2627.31 386.951 L2627.31 397.993 L2640.47 397.993 L2640.47 402.958 L2627.31 402.958 L2627.31 424.069 Q2627.31 428.826 2628.6 430.18 Q2629.92 431.534 2633.91 431.534 L2640.47 431.534 L2640.47 436.881 L2633.91 436.881 Q2626.52 436.881 2623.7 434.138 Q2620.89 431.36 2620.89 424.069 L2620.89 402.958 L2616.2 402.958 L2616.2 397.993 L2620.89 397.993 L2620.89 386.951 L2627.31 386.951 Z" fill="#000000" fill-rule="nonzero" fill-opacity="1" /><path clip-path="url(#clip720)" d="M2648.88 397.993 L2655.26 397.993 L2655.26 436.881 L2648.88 436.881 L2648.88 397.993 M2648.88 382.854 L2655.26 382.854 L2655.26 390.944 L2648.88 390.944 L2648.88 382.854 Z" fill="#000000" fill-rule="nonzero" fill-opacity="1" /><path clip-path="url(#clip720)" d="M2696.62 399.486 L2696.62 405.458 Q2693.91 403.965 2691.17 403.236 Q2688.46 402.472 2685.68 402.472 Q2679.47 402.472 2676.03 406.43 Q2672.59 410.354 2672.59 417.472 Q2672.59 424.59 2676.03 428.548 Q2679.47 432.472 2685.68 432.472 Q2688.46 432.472 2691.17 431.742 Q2693.91 430.979 2696.62 429.485 L2696.62 435.388 Q2693.95 436.638 2691.06 437.263 Q2688.22 437.888 2684.99 437.888 Q2676.2 437.888 2671.03 432.367 Q2665.86 426.847 2665.86 417.472 Q2665.86 407.958 2671.06 402.506 Q2676.31 397.055 2685.4 397.055 Q2688.35 397.055 2691.17 397.68 Q2693.98 398.27 2696.62 399.486 Z" fill="#000000" fill-rule="nonzero" fill-opacity="1" /><path clip-path="url(#clip720)" d="M2723.42 385.041 L2767.28 385.041 L2767.28 390.944 L2748.88 390.944 L2748.88 436.881 L2741.83 436.881 L2741.83 390.944 L2723.42 390.944 L2723.42 385.041 Z" fill="#000000" fill-rule="nonzero" fill-opacity="1" /><path clip-path="url(#clip720)" d="M2806.1 413.409 L2806.1 436.881 L2799.71 436.881 L2799.71 413.617 Q2799.71 408.097 2797.56 405.354 Q2795.4 402.611 2791.1 402.611 Q2785.92 402.611 2782.94 405.909 Q2779.95 409.208 2779.95 414.902 L2779.95 436.881 L2773.53 436.881 L2773.53 382.854 L2779.95 382.854 L2779.95 404.034 Q2782.24 400.527 2785.33 398.791 Q2788.46 397.055 2792.52 397.055 Q2799.22 397.055 2802.66 401.222 Q2806.1 405.354 2806.1 413.409 Z" fill="#000000" fill-rule="nonzero" fill-opacity="1" /><path clip-path="url(#clip720)" d="M2852.1 415.84 L2852.1 418.965 L2822.73 418.965 Q2823.15 425.562 2826.69 429.034 Q2830.26 432.472 2836.62 432.472 Q2840.3 432.472 2843.74 431.569 Q2847.21 430.666 2850.61 428.86 L2850.61 434.902 Q2847.17 436.36 2843.56 437.124 Q2839.95 437.888 2836.24 437.888 Q2826.93 437.888 2821.48 432.472 Q2816.06 427.055 2816.06 417.819 Q2816.06 408.27 2821.2 402.68 Q2826.38 397.055 2835.13 397.055 Q2842.97 397.055 2847.52 402.125 Q2852.1 407.159 2852.1 415.84 M2845.72 413.965 Q2845.65 408.722 2842.76 405.597 Q2839.92 402.472 2835.19 402.472 Q2829.85 402.472 2826.62 405.493 Q2823.42 408.513 2822.94 413.999 L2845.72 413.965 Z" fill="#000000" fill-rule="nonzero" fill-opacity="1" /><path clip-path="url(#clip720)" d="M2877.66 402.472 Q2872.52 402.472 2869.53 406.499 Q2866.55 410.493 2866.55 417.472 Q2866.55 424.451 2869.5 428.479 Q2872.49 432.472 2877.66 432.472 Q2882.76 432.472 2885.75 428.444 Q2888.74 424.416 2888.74 417.472 Q2888.74 410.562 2885.75 406.534 Q2882.76 402.472 2877.66 402.472 M2877.66 397.055 Q2885.99 397.055 2890.75 402.472 Q2895.51 407.888 2895.51 417.472 Q2895.51 427.02 2890.75 432.472 Q2885.99 437.888 2877.66 437.888 Q2869.29 437.888 2864.53 432.472 Q2859.81 427.02 2859.81 417.472 Q2859.81 407.888 2864.53 402.472 Q2869.29 397.055 2877.66 397.055 Z" fill="#000000" fill-rule="nonzero" fill-opacity="1" /><path clip-path="url(#clip720)" d="M2928.63 403.965 Q2927.56 403.34 2926.27 403.062 Q2925.02 402.75 2923.49 402.75 Q2918.08 402.75 2915.16 406.291 Q2912.28 409.798 2912.28 416.395 L2912.28 436.881 L2905.85 436.881 L2905.85 397.993 L2912.28 397.993 L2912.28 404.034 Q2914.29 400.493 2917.52 398.791 Q2920.75 397.055 2925.37 397.055 Q2926.03 397.055 2926.83 397.159 Q2927.62 397.229 2928.6 397.402 L2928.63 403.965 Z" fill="#000000" fill-rule="nonzero" fill-opacity="1" /><path clip-path="url(#clip720)" d="M2951.51 440.492 Q2948.8 447.437 2946.24 449.555 Q2943.67 451.673 2939.36 451.673 L2934.26 451.673 L2934.26 446.326 L2938.01 446.326 Q2940.65 446.326 2942.1 445.076 Q2943.56 443.826 2945.33 439.173 L2946.48 436.256 L2930.75 397.993 L2937.52 397.993 L2949.67 428.409 L2961.83 397.993 L2968.6 397.993 L2951.51 440.492 Z" fill="#000000" fill-rule="nonzero" fill-opacity="1" /><polyline clip-path="url(#clip720)" style="stroke:#3da44d; stroke-linecap:round; stroke-linejoin:round; stroke-width:21; stroke-opacity:1; fill:none" points="2086.73,488.721 2270.62,488.721 "/>
<path clip-path="url(#clip720)" d="M2301.27 462.801 L2310.72 462.801 L2333.7 506.169 L2333.7 462.801 L2340.51 462.801 L2340.51 514.641 L2331.07 514.641 L2308.08 471.273 L2308.08 514.641 L2301.27 514.641 L2301.27 462.801 Z" fill="#000000" fill-rule="nonzero" fill-opacity="1" /><path clip-path="url(#clip720)" d="M2387.45 493.6 L2387.45 496.725 L2358.08 496.725 Q2358.5 503.322 2362.04 506.794 Q2365.61 510.232 2371.97 510.232 Q2375.65 510.232 2379.09 509.329 Q2382.56 508.426 2385.96 506.62 L2385.96 512.662 Q2382.52 514.12 2378.91 514.884 Q2375.3 515.648 2371.59 515.648 Q2362.28 515.648 2356.83 510.232 Q2351.41 504.815 2351.41 495.579 Q2351.41 486.03 2356.55 480.44 Q2361.72 474.815 2370.47 474.815 Q2378.32 474.815 2382.87 479.885 Q2387.45 484.919 2387.45 493.6 M2381.06 491.725 Q2381 486.482 2378.11 483.357 Q2375.27 480.232 2370.54 480.232 Q2365.2 480.232 2361.97 483.253 Q2358.77 486.273 2358.29 491.759 L2381.06 491.725 Z" fill="#000000" fill-rule="nonzero" fill-opacity="1" /><path clip-path="url(#clip720)" d="M2422.73 476.898 L2422.73 482.94 Q2420.02 481.551 2417.11 480.857 Q2414.19 480.162 2411.06 480.162 Q2406.31 480.162 2403.91 481.621 Q2401.55 483.079 2401.55 485.996 Q2401.55 488.218 2403.25 489.503 Q2404.95 490.753 2410.09 491.898 L2412.28 492.384 Q2419.09 493.843 2421.93 496.516 Q2424.81 499.155 2424.81 503.912 Q2424.81 509.329 2420.51 512.488 Q2416.24 515.648 2408.74 515.648 Q2405.61 515.648 2402.21 515.023 Q2398.84 514.433 2395.09 513.218 L2395.09 506.62 Q2398.63 508.461 2402.07 509.398 Q2405.51 510.301 2408.88 510.301 Q2413.39 510.301 2415.82 508.773 Q2418.25 507.211 2418.25 504.398 Q2418.25 501.794 2416.48 500.405 Q2414.75 499.016 2408.81 497.732 L2406.59 497.211 Q2400.65 495.961 2398.01 493.391 Q2395.37 490.787 2395.37 486.273 Q2395.37 480.787 2399.26 477.801 Q2403.15 474.815 2410.3 474.815 Q2413.84 474.815 2416.97 475.336 Q2420.09 475.857 2422.73 476.898 Z" fill="#000000" fill-rule="nonzero" fill-opacity="1" /><path clip-path="url(#clip720)" d="M2441.31 464.711 L2441.31 475.753 L2454.47 475.753 L2454.47 480.718 L2441.31 480.718 L2441.31 501.829 Q2441.31 506.586 2442.59 507.94 Q2443.91 509.294 2447.9 509.294 L2454.47 509.294 L2454.47 514.641 L2447.9 514.641 Q2440.51 514.641 2437.7 511.898 Q2434.88 509.12 2434.88 501.829 L2434.88 480.718 L2430.2 480.718 L2430.2 475.753 L2434.88 475.753 L2434.88 464.711 L2441.31 464.711 Z" fill="#000000" fill-rule="nonzero" fill-opacity="1" /><path clip-path="url(#clip720)" d="M2496.13 493.6 L2496.13 496.725 L2466.76 496.725 Q2467.18 503.322 2470.72 506.794 Q2474.29 510.232 2480.65 510.232 Q2484.33 510.232 2487.77 509.329 Q2491.24 508.426 2494.64 506.62 L2494.64 512.662 Q2491.2 514.12 2487.59 514.884 Q2483.98 515.648 2480.27 515.648 Q2470.96 515.648 2465.51 510.232 Q2460.09 504.815 2460.09 495.579 Q2460.09 486.03 2465.23 480.44 Q2470.4 474.815 2479.15 474.815 Q2487 474.815 2491.55 479.885 Q2496.13 484.919 2496.13 493.6 M2489.74 491.725 Q2489.68 486.482 2486.79 483.357 Q2483.95 480.232 2479.22 480.232 Q2473.88 480.232 2470.65 483.253 Q2467.45 486.273 2466.97 491.759 L2489.74 491.725 Z" fill="#000000" fill-rule="nonzero" fill-opacity="1" /><path clip-path="url(#clip720)" d="M2529.15 481.725 Q2528.08 481.1 2526.79 480.822 Q2525.54 480.51 2524.02 480.51 Q2518.6 480.51 2515.68 484.051 Q2512.8 487.558 2512.8 494.155 L2512.8 514.641 L2506.38 514.641 L2506.38 475.753 L2512.8 475.753 L2512.8 481.794 Q2514.81 478.253 2518.04 476.551 Q2521.27 474.815 2525.89 474.815 Q2526.55 474.815 2527.35 474.919 Q2528.15 474.989 2529.12 475.162 L2529.15 481.725 Z" fill="#000000" fill-rule="nonzero" fill-opacity="1" /><path clip-path="url(#clip720)" d="M2549.36 480.232 Q2544.22 480.232 2541.24 484.259 Q2538.25 488.253 2538.25 495.232 Q2538.25 502.211 2541.2 506.239 Q2544.19 510.232 2549.36 510.232 Q2554.47 510.232 2557.45 506.204 Q2560.44 502.176 2560.44 495.232 Q2560.44 488.322 2557.45 484.294 Q2554.47 480.232 2549.36 480.232 M2549.36 474.815 Q2557.7 474.815 2562.45 480.232 Q2567.21 485.648 2567.21 495.232 Q2567.21 504.78 2562.45 510.232 Q2557.7 515.648 2549.36 515.648 Q2540.99 515.648 2536.24 510.232 Q2531.52 504.78 2531.52 495.232 Q2531.52 485.648 2536.24 480.232 Q2540.99 474.815 2549.36 474.815 Z" fill="#000000" fill-rule="nonzero" fill-opacity="1" /><path clip-path="url(#clip720)" d="M2573.22 475.753 L2579.99 475.753 L2592.14 508.391 L2604.29 475.753 L2611.06 475.753 L2596.48 514.641 L2587.8 514.641 L2573.22 475.753 Z" fill="#000000" fill-rule="nonzero" fill-opacity="1" /><path clip-path="url(#clip720)" d="M2641.97 462.801 L2649.01 462.801 L2649.01 494.294 Q2649.01 502.627 2652.04 506.308 Q2655.06 509.954 2661.83 509.954 Q2668.56 509.954 2671.58 506.308 Q2674.61 502.627 2674.61 494.294 L2674.61 462.801 L2681.65 462.801 L2681.65 495.162 Q2681.65 505.301 2676.62 510.475 Q2671.62 515.648 2661.83 515.648 Q2652 515.648 2646.97 510.475 Q2641.97 505.301 2641.97 495.162 L2641.97 462.801 Z" fill="#000000" fill-rule="nonzero" fill-opacity="1" /><path clip-path="url(#clip720)" d="M2694.81 462.801 L2724.6 462.801 L2724.6 468.704 L2701.83 468.704 L2701.83 483.982 L2722.38 483.982 L2722.38 489.884 L2701.83 489.884 L2701.83 514.641 L2694.81 514.641 L2694.81 462.801 Z" fill="#000000" fill-rule="nonzero" fill-opacity="1" /><path clip-path="url(#clip720)" d="M2771.06 507.245 L2771.06 493.322 L2759.6 493.322 L2759.6 487.558 L2778.01 487.558 L2778.01 509.815 Q2773.94 512.697 2769.05 514.19 Q2764.15 515.648 2758.6 515.648 Q2746.44 515.648 2739.57 508.565 Q2732.73 501.447 2732.73 488.773 Q2732.73 476.065 2739.57 468.982 Q2746.44 461.864 2758.6 461.864 Q2763.67 461.864 2768.22 463.114 Q2772.8 464.364 2776.65 466.794 L2776.65 474.26 Q2772.76 470.961 2768.39 469.294 Q2764.01 467.628 2759.19 467.628 Q2749.67 467.628 2744.88 472.94 Q2740.13 478.253 2740.13 488.773 Q2740.13 499.259 2744.88 504.572 Q2749.67 509.884 2759.19 509.884 Q2762.9 509.884 2765.82 509.259 Q2768.74 508.6 2771.06 507.245 Z" fill="#000000" fill-rule="nonzero" fill-opacity="1" /><path clip-path="url(#clip720)" d="M2790.82 462.801 L2801.27 462.801 L2814.5 498.079 L2827.8 462.801 L2838.25 462.801 L2838.25 514.641 L2831.41 514.641 L2831.41 469.121 L2818.04 504.676 L2810.99 504.676 L2797.63 469.121 L2797.63 514.641 L2790.82 514.641 L2790.82 462.801 Z" fill="#000000" fill-rule="nonzero" fill-opacity="1" /></svg>
