<?xml version="1.0" encoding="utf-8"?>
<svg xmlns="http://www.w3.org/2000/svg" xmlns:xlink="http://www.w3.org/1999/xlink" width="800" height="600" viewBox="0 0 3200 2400">
<defs>
  <clipPath id="clip670">
    <rect x="0" y="0" width="3200" height="2400"/>
  </clipPath>
</defs>
<path clip-path="url(#clip670)" d="M0 2400 L3200 2400 L3200 0 L0 0  Z" fill="#ffffff" fill-rule="evenodd" fill-opacity="1"/>
<defs>
  <clipPath id="clip671">
    <rect x="361" y="0" width="1992" height="2400"/>
  </clipPath>
</defs>
<path clip-path="url(#clip670)" d="M395.142 2132.02 L3152.76 2132.02 L3152.76 190.732 L395.142 190.732  Z" fill="#ffffff" fill-rule="evenodd" fill-opacity="1"/>
<defs>
  <clipPath id="clip672">
    <rect x="395" y="190" width="2759" height="1942"/>
  </clipPath>
</defs>
<polyline clip-path="url(#clip672)" style="stroke:#000000; stroke-linecap:round; stroke-linejoin:round; stroke-width:2; stroke-opacity:0.1; fill:none" points="1020.88,2132.02 1020.88,190.732 "/>
<polyline clip-path="url(#clip672)" style="stroke:#000000; stroke-linecap:round; stroke-linejoin:round; stroke-width:2; stroke-opacity:0.1; fill:none" points="1705.49,2132.02 1705.49,190.732 "/>
<polyline clip-path="url(#clip672)" style="stroke:#000000; stroke-linecap:round; stroke-linejoin:round; stroke-width:2; stroke-opacity:0.1; fill:none" points="2390.1,2132.02 2390.1,190.732 "/>
<polyline clip-path="url(#clip672)" style="stroke:#000000; stroke-linecap:round; stroke-linejoin:round; stroke-width:2; stroke-opacity:0.1; fill:none" points="3074.71,2132.02 3074.71,190.732 "/>
<polyline clip-path="url(#clip672)" style="stroke:#000000; stroke-linecap:round; stroke-linejoin:round; stroke-width:2; stroke-opacity:0.1; fill:none" points="395.142,1959.75 3152.76,1959.75 "/>
<polyline clip-path="url(#clip672)" style="stroke:#000000; stroke-linecap:round; stroke-linejoin:round; stroke-width:2; stroke-opacity:0.1; fill:none" points="395.142,1258.09 3152.76,1258.09 "/>
<polyline clip-path="url(#clip672)" style="stroke:#000000; stroke-linecap:round; stroke-linejoin:round; stroke-width:2; stroke-opacity:0.1; fill:none" points="395.142,556.428 3152.76,556.428 "/>
<polyline clip-path="url(#clip670)" style="stroke:#000000; stroke-linecap:round; stroke-linejoin:round; stroke-width:4; stroke-opacity:1; fill:none" points="395.142,2132.02 3152.76,2132.02 "/>
<polyline clip-path="url(#clip670)" style="stroke:#000000; stroke-linecap:round; stroke-linejoin:round; stroke-width:4; stroke-opacity:1; fill:none" points="1020.88,2132.02 1020.88,2113.12 "/>
<polyline clip-path="url(#clip670)" style="stroke:#000000; stroke-linecap:round; stroke-linejoin:round; stroke-width:4; stroke-opacity:1; fill:none" points="1705.49,2132.02 1705.49,2113.12 "/>
<polyline clip-path="url(#clip670)" style="stroke:#000000; stroke-linecap:round; stroke-linejoin:round; stroke-width:4; stroke-opacity:1; fill:none" points="2390.1,2132.02 2390.1,2113.12 "/>
<polyline clip-path="url(#clip670)" style="stroke:#000000; stroke-linecap:round; stroke-linejoin:round; stroke-width:4; stroke-opacity:1; fill:none" points="3074.71,2132.02 3074.71,2113.12 "/>
<path clip-path="url(#clip670)" d="M976.6 2172.74 L1008.72 2172.74 L1008.72 2179.63 L984.094 2179.63 L984.094 2194.45 Q985.876 2193.85 987.659 2193.56 Q989.441 2193.24 991.224 2193.24 Q1001.35 2193.24 1007.27 2198.79 Q1013.18 2204.34 1013.18 2213.82 Q1013.18 2223.58 1007.1 2229.01 Q1001.03 2234.39 989.968 2234.39 Q986.16 2234.39 982.19 2233.75 Q978.261 2233.1 974.048 2231.8 L974.048 2223.58 Q977.694 2225.56 981.582 2226.54 Q985.471 2227.51 989.806 2227.51 Q996.814 2227.51 1000.91 2223.82 Q1005 2220.14 1005 2213.82 Q1005 2207.5 1000.91 2203.81 Q996.814 2200.12 989.806 2200.12 Q986.525 2200.12 983.243 2200.85 Q980.003 2201.58 976.6 2203.12 L976.6 2172.74 Z" fill="#000000" fill-rule="nonzero" fill-opacity="1" /><path clip-path="url(#clip670)" d="M1046.8 2178.13 Q1040.48 2178.13 1037.28 2184.37 Q1034.12 2190.56 1034.12 2203.04 Q1034.12 2215.48 1037.28 2221.72 Q1040.48 2227.91 1046.8 2227.91 Q1053.16 2227.91 1056.32 2221.72 Q1059.52 2215.48 1059.52 2203.04 Q1059.52 2190.56 1056.32 2184.37 Q1053.16 2178.13 1046.8 2178.13 M1046.8 2171.65 Q1056.97 2171.65 1062.32 2179.71 Q1067.7 2187.73 1067.7 2203.04 Q1067.7 2218.31 1062.32 2226.37 Q1056.97 2234.39 1046.8 2234.39 Q1036.63 2234.39 1031.25 2226.37 Q1025.9 2218.31 1025.9 2203.04 Q1025.9 2187.73 1031.25 2179.71 Q1036.63 2171.65 1046.8 2171.65 Z" fill="#000000" fill-rule="nonzero" fill-opacity="1" /><path clip-path="url(#clip670)" d="M1634.8 2226.33 L1648.17 2226.33 L1648.17 2180.19 L1633.62 2183.11 L1633.62 2175.66 L1648.09 2172.74 L1656.27 2172.74 L1656.27 2226.33 L1669.64 2226.33 L1669.64 2233.22 L1634.8 2233.22 L1634.8 2226.33 Z" fill="#000000" fill-rule="nonzero" fill-opacity="1" /><path clip-path="url(#clip670)" d="M1703.66 2178.13 Q1697.35 2178.13 1694.15 2184.37 Q1690.99 2190.56 1690.99 2203.04 Q1690.99 2215.48 1694.15 2221.72 Q1697.35 2227.91 1703.66 2227.91 Q1710.02 2227.91 1713.18 2221.72 Q1716.38 2215.48 1716.38 2203.04 Q1716.38 2190.56 1713.18 2184.37 Q1710.02 2178.13 1703.66 2178.13 M1703.66 2171.65 Q1713.83 2171.65 1719.18 2179.71 Q1724.57 2187.73 1724.57 2203.04 Q1724.57 2218.31 1719.18 2226.37 Q1713.83 2234.39 1703.66 2234.39 Q1693.5 2234.39 1688.11 2226.37 Q1682.76 2218.31 1682.76 2203.04 Q1682.76 2187.73 1688.11 2179.71 Q1693.5 2171.65 1703.66 2171.65 Z" fill="#000000" fill-rule="nonzero" fill-opacity="1" /><path clip-path="url(#clip670)" d="M1756.45 2178.13 Q1750.13 2178.13 1746.93 2184.37 Q1743.77 2190.56 1743.77 2203.04 Q1743.77 2215.48 1746.93 2221.72 Q1750.13 2227.91 1756.45 2227.91 Q1762.81 2227.91 1765.97 2221.72 Q1769.17 2215.48 1769.17 2203.04 Q1769.17 2190.56 1765.97 2184.37 Q1762.81 2178.13 1756.45 2178.13 M1756.45 2171.65 Q1766.62 2171.65 1771.96 2179.71 Q1777.35 2187.73 1777.35 2203.04 Q1777.35 2218.31 1771.96 2226.37 Q1766.62 2234.39 1756.45 2234.39 Q1746.28 2234.39 1740.89 2226.37 Q1735.55 2218.31 1735.55 2203.04 Q1735.55 2187.73 1740.89 2179.71 Q1746.28 2171.65 1756.45 2171.65 Z" fill="#000000" fill-rule="nonzero" fill-opacity="1" /><path clip-path="url(#clip670)" d="M2319.41 2226.33 L2332.78 2226.33 L2332.78 2180.19 L2318.24 2183.11 L2318.24 2175.66 L2332.7 2172.74 L2340.88 2172.74 L2340.88 2226.33 L2354.25 2226.33 L2354.25 2233.22 L2319.41 2233.22 L2319.41 2226.33 Z" fill="#000000" fill-rule="nonzero" fill-opacity="1" /><path clip-path="url(#clip670)" d="M2370.86 2172.74 L2402.98 2172.74 L2402.98 2179.63 L2378.35 2179.63 L2378.35 2194.45 Q2380.13 2193.85 2381.92 2193.56 Q2383.7 2193.24 2385.48 2193.24 Q2395.61 2193.24 2401.52 2198.79 Q2407.44 2204.34 2407.44 2213.82 Q2407.44 2223.58 2401.36 2229.01 Q2395.28 2234.39 2384.23 2234.39 Q2380.42 2234.39 2376.45 2233.75 Q2372.52 2233.1 2368.31 2231.8 L2368.31 2223.58 Q2371.95 2225.56 2375.84 2226.54 Q2379.73 2227.51 2384.06 2227.51 Q2391.07 2227.51 2395.16 2223.82 Q2399.25 2220.14 2399.25 2213.82 Q2399.25 2207.5 2395.16 2203.81 Q2391.07 2200.12 2384.06 2200.12 Q2380.78 2200.12 2377.5 2200.85 Q2374.26 2201.58 2370.86 2203.12 L2370.86 2172.74 Z" fill="#000000" fill-rule="nonzero" fill-opacity="1" /><path clip-path="url(#clip670)" d="M2441.06 2178.13 Q2434.74 2178.13 2431.54 2184.37 Q2428.38 2190.56 2428.38 2203.04 Q2428.38 2215.48 2431.54 2221.72 Q2434.74 2227.91 2441.06 2227.91 Q2447.42 2227.91 2450.58 2221.72 Q2453.78 2215.48 2453.78 2203.04 Q2453.78 2190.56 2450.58 2184.37 Q2447.42 2178.13 2441.06 2178.13 M2441.06 2171.65 Q2451.23 2171.65 2456.57 2179.71 Q2461.96 2187.73 2461.96 2203.04 Q2461.96 2218.31 2456.57 2226.37 Q2451.23 2234.39 2441.06 2234.39 Q2430.89 2234.39 2425.5 2226.37 Q2420.16 2218.31 2420.16 2203.04 Q2420.16 2187.73 2425.5 2179.71 Q2430.89 2171.65 2441.06 2171.65 Z" fill="#000000" fill-rule="nonzero" fill-opacity="1" /><path clip-path="url(#clip670)" d="M3011.17 2226.33 L3039.73 2226.33 L3039.73 2233.22 L3001.33 2233.22 L3001.33 2226.33 Q3005.99 2221.51 3014.01 2213.41 Q3022.07 2205.27 3024.13 2202.92 Q3028.06 2198.5 3029.6 2195.47 Q3031.18 2192.39 3031.18 2189.43 Q3031.18 2184.61 3027.78 2181.57 Q3024.42 2178.53 3018.99 2178.53 Q3015.14 2178.53 3010.85 2179.87 Q3006.59 2181.21 3001.73 2183.92 L3001.73 2175.66 Q3006.68 2173.67 3010.97 2172.66 Q3015.26 2171.65 3018.83 2171.65 Q3028.23 2171.65 3033.82 2176.35 Q3039.41 2181.04 3039.41 2188.9 Q3039.41 2192.63 3037.99 2195.99 Q3036.61 2199.31 3032.93 2203.85 Q3031.91 2205.03 3026.48 2210.66 Q3021.06 2216.25 3011.17 2226.33 Z" fill="#000000" fill-rule="nonzero" fill-opacity="1" /><path clip-path="url(#clip670)" d="M3074.41 2178.13 Q3068.09 2178.13 3064.89 2184.37 Q3061.73 2190.56 3061.73 2203.04 Q3061.73 2215.48 3064.89 2221.72 Q3068.09 2227.91 3074.41 2227.91 Q3080.77 2227.91 3083.93 2221.72 Q3087.13 2215.48 3087.13 2203.04 Q3087.13 2190.56 3083.93 2184.37 Q3080.77 2178.13 3074.41 2178.13 M3074.41 2171.65 Q3084.57 2171.65 3089.92 2179.71 Q3095.31 2187.73 3095.31 2203.04 Q3095.31 2218.31 3089.92 2226.37 Q3084.57 2234.39 3074.41 2234.39 Q3064.24 2234.39 3058.85 2226.37 Q3053.5 2218.31 3053.5 2203.04 Q3053.5 2187.73 3058.85 2179.71 Q3064.24 2171.65 3074.41 2171.65 Z" fill="#000000" fill-rule="nonzero" fill-opacity="1" /><path clip-path="url(#clip670)" d="M3127.19 2178.13 Q3120.87 2178.13 3117.67 2184.37 Q3114.51 2190.56 3114.51 2203.04 Q3114.51 2215.48 3117.67 2221.72 Q3120.87 2227.91 3127.19 2227.91 Q3133.55 2227.91 3136.71 2221.72 Q3139.91 2215.48 3139.91 2203.04 Q3139.91 2190.56 3136.71 2184.37 Q3133.55 2178.13 3127.19 2178.13 M3127.19 2171.65 Q3137.36 2171.65 3142.7 2179.71 Q3148.09 2187.73 3148.09 2203.04 Q3148.09 2218.31 3142.7 2226.37 Q3137.36 2234.39 3127.19 2234.39 Q3117.02 2234.39 3111.63 2226.37 Q3106.29 2218.31 3106.29 2203.04 Q3106.29 2187.73 3111.63 2179.71 Q3117.02 2171.65 3127.19 2171.65 Z" fill="#000000" fill-rule="nonzero" fill-opacity="1" /><path clip-path="url(#clip670)" d="M1741.25 2288.02 L1756.99 2288.02 L1795.3 2360.3 L1795.3 2288.02 L1806.65 2288.02 L1806.65 2374.42 L1790.9 2374.42 L1752.59 2302.14 L1752.59 2374.42 L1741.25 2374.42 L1741.25 2288.02 Z" fill="#000000" fill-rule="nonzero" fill-opacity="1" /><polyline clip-path="url(#clip670)" style="stroke:#000000; stroke-linecap:round; stroke-linejoin:round; stroke-width:4; stroke-opacity:1; fill:none" points="395.142,2132.02 395.142,190.732 "/>
<polyline clip-path="url(#clip670)" style="stroke:#000000; stroke-linecap:round; stroke-linejoin:round; stroke-width:4; stroke-opacity:1; fill:none" points="395.142,1959.75 414.039,1959.75 "/>
<polyline clip-path="url(#clip670)" style="stroke:#000000; stroke-linecap:round; stroke-linejoin:round; stroke-width:4; stroke-opacity:1; fill:none" points="395.142,1258.09 414.039,1258.09 "/>
<polyline clip-path="url(#clip670)" style="stroke:#000000; stroke-linecap:round; stroke-linejoin:round; stroke-width:4; stroke-opacity:1; fill:none" points="395.142,556.428 414.039,556.428 "/>
<path clip-path="url(#clip670)" d="M170.547 1994.39 L183.915 1994.39 L183.915 1948.25 L169.373 1951.16 L169.373 1943.71 L183.834 1940.79 L192.017 1940.79 L192.017 1994.39 L205.385 1994.39 L205.385 2001.27 L170.547 2001.27 L170.547 1994.39 Z" fill="#000000" fill-rule="nonzero" fill-opacity="1" /><path clip-path="url(#clip670)" d="M239.413 1946.18 Q233.093 1946.18 229.893 1952.42 Q226.733 1958.62 226.733 1971.09 Q226.733 1983.53 229.893 1989.77 Q233.093 1995.97 239.413 1995.97 Q245.773 1995.97 248.932 1989.77 Q252.133 1983.53 252.133 1971.09 Q252.133 1958.62 248.932 1952.42 Q245.773 1946.18 239.413 1946.18 M239.413 1939.7 Q249.581 1939.7 254.928 1947.76 Q260.315 1955.78 260.315 1971.09 Q260.315 1986.37 254.928 1994.43 Q249.581 2002.45 239.413 2002.45 Q229.245 2002.45 223.857 1994.43 Q218.51 1986.37 218.51 1971.09 Q218.51 1955.78 223.857 1947.76 Q229.245 1939.7 239.413 1939.7 Z" fill="#000000" fill-rule="nonzero" fill-opacity="1" /><path clip-path="url(#clip670)" d="M260.315 1929.38 L302.511 1929.38 L302.511 1934.97 L260.315 1934.97 L260.315 1929.38 Z" fill="#000000" fill-rule="nonzero" fill-opacity="1" /><path clip-path="url(#clip670)" d="M337.004 1926.81 Q341.777 1927.83 344.443 1931.06 Q347.142 1934.28 347.142 1939.02 Q347.142 1946.29 342.139 1950.28 Q337.136 1954.26 327.92 1954.26 Q324.826 1954.26 321.535 1953.63 Q318.276 1953.04 314.787 1951.82 L314.787 1945.41 Q317.552 1947.02 320.844 1947.84 Q324.135 1948.66 327.723 1948.66 Q333.976 1948.66 337.235 1946.2 Q340.526 1943.73 340.526 1939.02 Q340.526 1934.68 337.465 1932.24 Q334.437 1929.77 329.006 1929.77 L323.279 1929.77 L323.279 1924.31 L329.269 1924.31 Q334.174 1924.31 336.774 1922.37 Q339.374 1920.39 339.374 1916.7 Q339.374 1912.92 336.675 1910.91 Q334.009 1908.87 329.006 1908.87 Q326.274 1908.87 323.148 1909.46 Q320.021 1910.06 316.269 1911.31 L316.269 1905.38 Q320.054 1904.33 323.345 1903.8 Q326.669 1903.28 329.599 1903.28 Q337.169 1903.28 341.579 1906.73 Q345.99 1910.16 345.99 1916.01 Q345.99 1920.1 343.653 1922.93 Q341.316 1925.72 337.004 1926.81 Z" fill="#000000" fill-rule="nonzero" fill-opacity="1" /><path clip-path="url(#clip670)" d="M171.897 1292.73 L185.265 1292.73 L185.265 1246.59 L170.722 1249.5 L170.722 1242.05 L185.184 1239.13 L193.367 1239.13 L193.367 1292.73 L206.735 1292.73 L206.735 1299.61 L171.897 1299.61 L171.897 1292.73 Z" fill="#000000" fill-rule="nonzero" fill-opacity="1" /><path clip-path="url(#clip670)" d="M240.762 1244.52 Q234.443 1244.52 231.243 1250.76 Q228.083 1256.96 228.083 1269.43 Q228.083 1281.87 231.243 1288.11 Q234.443 1294.31 240.762 1294.31 Q247.122 1294.31 250.282 1288.11 Q253.482 1281.87 253.482 1269.43 Q253.482 1256.96 250.282 1250.76 Q247.122 1244.52 240.762 1244.52 M240.762 1238.04 Q250.93 1238.04 256.277 1246.1 Q261.665 1254.12 261.665 1269.43 Q261.665 1284.7 256.277 1292.77 Q250.93 1300.79 240.762 1300.79 Q230.594 1300.79 225.207 1292.77 Q219.86 1284.7 219.86 1269.43 Q219.86 1254.12 225.207 1246.1 Q230.594 1238.04 240.762 1238.04 Z" fill="#000000" fill-rule="nonzero" fill-opacity="1" /><path clip-path="url(#clip670)" d="M261.665 1227.72 L303.86 1227.72 L303.86 1233.31 L261.665 1233.31 L261.665 1227.72 Z" fill="#000000" fill-rule="nonzero" fill-opacity="1" /><path clip-path="url(#clip670)" d="M323.937 1246.05 L347.142 1246.05 L347.142 1251.64 L315.939 1251.64 L315.939 1246.05 Q319.724 1242.13 326.241 1235.55 Q332.791 1228.93 334.47 1227.02 Q337.662 1223.44 338.913 1220.97 Q340.197 1218.47 340.197 1216.06 Q340.197 1212.15 337.432 1209.68 Q334.7 1207.21 330.29 1207.21 Q327.163 1207.21 323.674 1208.3 Q320.218 1209.38 316.269 1211.59 L316.269 1204.87 Q320.284 1203.26 323.773 1202.44 Q327.262 1201.62 330.158 1201.62 Q337.794 1201.62 342.336 1205.43 Q346.878 1209.25 346.878 1215.64 Q346.878 1218.66 345.726 1221.4 Q344.607 1224.1 341.612 1227.78 Q340.789 1228.74 336.379 1233.31 Q331.968 1237.85 323.937 1246.05 Z" fill="#000000" fill-rule="nonzero" fill-opacity="1" /><path clip-path="url(#clip670)" d="M171.37 591.065 L184.738 591.065 L184.738 544.925 L170.195 547.842 L170.195 540.388 L184.657 537.471 L192.84 537.471 L192.84 591.065 L206.208 591.065 L206.208 597.951 L171.37 597.951 L171.37 591.065 Z" fill="#000000" fill-rule="nonzero" fill-opacity="1" /><path clip-path="url(#clip670)" d="M240.236 542.859 Q233.916 542.859 230.716 549.098 Q227.556 555.295 227.556 567.772 Q227.556 580.208 230.716 586.447 Q233.916 592.645 240.236 592.645 Q246.596 592.645 249.755 586.447 Q252.955 580.208 252.955 567.772 Q252.955 555.295 249.755 549.098 Q246.596 542.859 240.236 542.859 M240.236 536.378 Q250.403 536.378 255.751 544.439 Q261.138 552.46 261.138 567.772 Q261.138 583.044 255.751 591.105 Q250.403 599.126 240.236 599.126 Q230.068 599.126 224.68 591.105 Q219.333 583.044 219.333 567.772 Q219.333 552.46 224.68 544.439 Q230.068 536.378 240.236 536.378 Z" fill="#000000" fill-rule="nonzero" fill-opacity="1" /><path clip-path="url(#clip670)" d="M261.138 526.055 L303.334 526.055 L303.334 531.65 L261.138 531.65 L261.138 526.055 Z" fill="#000000" fill-rule="nonzero" fill-opacity="1" /><path clip-path="url(#clip670)" d="M318.836 544.388 L329.697 544.388 L329.697 506.899 L317.881 509.269 L317.881 503.213 L329.631 500.843 L336.28 500.843 L336.28 544.388 L347.142 544.388 L347.142 549.983 L318.836 549.983 L318.836 544.388 Z" fill="#000000" fill-rule="nonzero" fill-opacity="1" /><path clip-path="url(#clip670)" d="M0.865044 1321.56 Q4.08563 1321.56 6.07654 1323.61 Q8.06745 1325.6 8.06745 1328.12 Q8.06745 1329.93 6.95488 1331.28 Q5.84231 1332.57 3.90996 1332.57 Q1.91905 1332.57 -0.188966 1331.04 Q-2.29699 1329.52 -2.58977 1326.07 Q-4.75634 1328.35 -4.75634 1331.98 Q-4.75634 1333.8 -3.58522 1335.32 Q-2.47265 1336.78 -0.657415 1337.6 Q1.21638 1338.48 11.815 1340.47 Q15.2698 1341.11 18.6075 1341.7 Q21.9452 1342.29 25.4586 1342.99 L25.4586 1333.03 Q25.4586 1331.75 25.5172 1331.22 Q25.5757 1330.69 25.8685 1330.28 Q26.1613 1329.81 26.8054 1329.81 Q28.445 1329.81 28.8549 1330.57 Q29.2062 1331.28 29.2062 1333.39 L29.2062 1343.69 L67.2091 1350.89 Q68.3217 1351.07 71.8351 1351.83 Q75.2899 1352.53 80.9698 1354.23 Q86.7083 1355.93 90.1046 1357.63 Q92.0369 1358.56 93.8521 1359.79 Q95.7259 1360.97 97.5997 1362.66 Q99.4735 1364.36 100.586 1366.59 Q101.757 1368.81 101.757 1371.15 Q101.757 1375.14 99.5321 1378.24 Q97.307 1381.34 93.5008 1381.34 Q90.2802 1381.34 88.2893 1379.35 Q86.2984 1377.3 86.2984 1374.78 Q86.2984 1372.97 87.411 1371.68 Q88.5235 1370.33 90.4559 1370.33 Q91.2757 1370.33 92.2126 1370.63 Q93.1495 1370.92 94.2035 1371.56 Q95.3161 1372.21 96.0773 1373.61 Q96.8385 1375.02 96.9556 1376.95 Q99.1222 1374.67 99.1222 1371.15 Q99.1222 1370.04 98.6538 1369.05 Q98.2439 1368.05 97.1898 1367.23 Q96.1358 1366.35 95.0818 1365.71 Q94.0864 1365.06 92.154 1364.42 Q90.2802 1363.78 88.8749 1363.37 Q87.4695 1362.96 84.9516 1362.43 Q82.4337 1361.84 80.9112 1361.55 Q79.4473 1361.26 76.5781 1360.73 L29.2062 1351.77 L29.2062 1359.68 Q29.2062 1361.08 29.1476 1361.67 Q29.0891 1362.2 28.7963 1362.61 Q28.445 1363.01 27.7423 1363.01 Q26.6297 1363.01 26.1613 1362.55 Q25.6343 1362.02 25.5757 1361.43 Q25.4586 1360.85 25.4586 1359.44 L25.4586 1351.13 Q10.6439 1348.32 6.6621 1347.2 Q2.44606 1345.92 -0.481746 1343.93 Q-3.46811 1341.93 -4.87345 1339.71 Q-6.2788 1337.48 -6.80581 1335.67 Q-7.39137 1333.8 -7.39137 1331.98 Q-7.39137 1327.88 -5.16624 1324.72 Q-2.99966 1321.56 0.865044 1321.56 Z" fill="#000000" fill-rule="nonzero" fill-opacity="1" /><path clip-path="url(#clip670)" d="M79.1891 1238.67 Q80.8696 1238.67 80.8696 1240.1 Q81.0336 1244.74 82.5912 1246.62 Q84.1078 1248.47 87.059 1249.16 L133.828 1260.89 Q135.303 1261.3 135.467 1261.54 Q135.59 1261.79 135.59 1262.24 Q135.59 1262.81 135.303 1263.14 Q135.016 1263.43 133.992 1263.84 L84.5587 1284.74 Q84.2308 1284.91 83.7799 1285.11 Q83.329 1285.31 83.0421 1285.48 L127.351 1296.59 Q128.622 1296.91 129.278 1296.91 Q130.877 1296.91 131.901 1295.81 Q132.885 1294.66 133.008 1291.38 Q133.008 1289.7 133.91 1289.7 Q135.59 1289.7 135.59 1291.22 Q135.59 1292.61 135.467 1295.52 Q135.344 1298.43 135.344 1299.87 Q135.344 1301.26 135.467 1304.09 Q135.59 1306.92 135.59 1308.27 Q135.59 1309.33 134.648 1309.33 Q133.91 1309.33 133.541 1309.05 Q133.131 1308.76 133.09 1308.51 Q133.008 1308.27 133.008 1307.9 Q132.926 1305.44 132.434 1303.76 Q131.942 1302.08 131 1301.14 Q130.057 1300.15 129.114 1299.7 Q128.13 1299.21 126.696 1298.84 L81.6074 1287.61 Q80.8696 1287.61 80.8696 1293.31 Q80.8696 1294.29 80.8286 1294.7 Q80.7877 1295.07 80.5827 1295.36 Q80.3778 1295.64 79.9269 1295.64 Q78.7792 1295.64 78.5332 1295.15 Q78.2463 1294.66 78.2463 1293.23 L78.2463 1281.95 Q78.2463 1280.52 78.4923 1280.15 Q78.6972 1279.78 79.8449 1279.29 L123.662 1260.72 L86.3212 1251.33 Q85.5834 1251.09 84.5587 1251.09 Q82.9191 1251.09 81.9354 1252.32 Q80.9106 1253.51 80.8696 1256.79 Q80.8696 1258.3 79.9269 1258.3 Q79.1481 1258.3 78.7792 1258.02 Q78.3693 1257.69 78.3283 1257.44 Q78.2463 1257.16 78.2463 1256.79 Q78.2463 1255.39 78.3693 1252.52 Q78.4923 1249.65 78.4923 1248.22 Q78.4923 1246.83 78.3693 1244 Q78.2463 1241.13 78.2463 1239.73 Q78.2463 1239.24 78.4923 1239 Q78.6972 1238.71 78.9431 1238.67 L79.1891 1238.67 Z" fill="#000000" fill-rule="nonzero" fill-opacity="1" /><path clip-path="url(#clip670)" d="M45.4848 1114.11 Q46.1875 1113.41 47.1829 1113.41 Q48.1784 1113.41 48.8811 1114.11 Q49.5837 1114.81 49.5837 1115.81 L49.5837 1190.88 Q49.5837 1191.87 48.8811 1192.57 Q48.1784 1193.28 47.1829 1193.28 Q46.1875 1193.28 45.4848 1192.57 Q44.7821 1191.87 44.7821 1190.88 L44.7821 1115.81 Q44.7821 1114.81 45.4848 1114.11 Z" fill="#000000" fill-rule="nonzero" fill-opacity="1" /><path clip-path="url(#clip670)" d="M0.865044 1007.83 Q4.08563 1007.83 6.07654 1009.88 Q8.06745 1011.87 8.06745 1014.39 Q8.06745 1016.21 6.95488 1017.55 Q5.84231 1018.84 3.90996 1018.84 Q1.91905 1018.84 -0.188966 1017.32 Q-2.29699 1015.8 -2.58977 1012.34 Q-4.75634 1014.63 -4.75634 1018.26 Q-4.75634 1020.07 -3.58522 1021.59 Q-2.47265 1023.06 -0.657415 1023.88 Q1.21638 1024.76 11.815 1026.75 Q15.2698 1027.39 18.6075 1027.98 Q21.9452 1028.56 25.4586 1029.26 L25.4586 1019.31 Q25.4586 1018.02 25.5172 1017.49 Q25.5757 1016.97 25.8685 1016.56 Q26.1613 1016.09 26.8054 1016.09 Q28.445 1016.09 28.8549 1016.85 Q29.2062 1017.55 29.2062 1019.66 L29.2062 1029.97 L67.2091 1037.17 Q68.3217 1037.35 71.8351 1038.11 Q75.2899 1038.81 80.9698 1040.51 Q86.7083 1042.21 90.1046 1043.9 Q92.0369 1044.84 93.8521 1046.07 Q95.7259 1047.24 97.5997 1048.94 Q99.4735 1050.64 100.586 1052.86 Q101.757 1055.09 101.757 1057.43 Q101.757 1061.41 99.5321 1064.52 Q97.307 1067.62 93.5008 1067.62 Q90.2802 1067.62 88.2893 1065.63 Q86.2984 1063.58 86.2984 1061.06 Q86.2984 1059.25 87.411 1057.96 Q88.5235 1056.61 90.4559 1056.61 Q91.2757 1056.61 92.2126 1056.9 Q93.1495 1057.2 94.2035 1057.84 Q95.3161 1058.48 96.0773 1059.89 Q96.8385 1061.29 96.9556 1063.23 Q99.1222 1060.94 99.1222 1057.43 Q99.1222 1056.32 98.6538 1055.32 Q98.2439 1054.33 97.1898 1053.51 Q96.1358 1052.63 95.0818 1051.98 Q94.0864 1051.34 92.154 1050.7 Q90.2802 1050.05 88.8749 1049.64 Q87.4695 1049.23 84.9516 1048.71 Q82.4337 1048.12 80.9112 1047.83 Q79.4473 1047.53 76.5781 1047.01 L29.2062 1038.05 L29.2062 1045.95 Q29.2062 1047.36 29.1476 1047.94 Q29.0891 1048.47 28.7963 1048.88 Q28.445 1049.29 27.7423 1049.29 Q26.6297 1049.29 26.1613 1048.82 Q25.6343 1048.3 25.5757 1047.71 Q25.4586 1047.12 25.4586 1045.72 L25.4586 1037.4 Q10.6439 1034.59 6.6621 1033.48 Q2.44606 1032.19 -0.481746 1030.2 Q-3.46811 1028.21 -4.87345 1025.99 Q-6.2788 1023.76 -6.80581 1021.95 Q-7.39137 1020.07 -7.39137 1018.26 Q-7.39137 1014.16 -5.16624 1011 Q-2.99966 1007.83 0.865044 1007.83 Z" fill="#000000" fill-rule="nonzero" fill-opacity="1" /><path clip-path="url(#clip670)" d="M100.055 953.965 Q100.588 953.802 100.752 954.211 L108.458 969.664 L123.747 961.712 Q124.075 961.467 124.485 961.876 Q124.731 962.286 124.403 962.614 L112.147 974.706 L124.403 986.798 Q124.731 987.126 124.485 987.536 Q124.075 987.946 123.747 987.7 L108.458 979.748 L100.752 995.201 Q100.588 995.611 100.055 995.447 Q99.6452 995.324 99.6452 994.873 L102.514 977.821 L85.4629 975.28 Q84.971 975.116 84.971 974.706 Q84.971 974.296 85.4629 974.132 L102.514 971.591 L99.6452 954.539 Q99.6452 954.088 100.055 953.965 Z" fill="#000000" fill-rule="nonzero" fill-opacity="1" /><path clip-path="url(#clip670)" d="M847.312 70.2117 L847.312 105.923 L863.481 105.923 Q872.457 105.923 877.359 101.276 Q882.26 96.6294 882.26 88.0357 Q882.26 79.5057 877.359 74.8587 Q872.457 70.2117 863.481 70.2117 L847.312 70.2117 M834.454 59.6446 L863.481 59.6446 Q879.459 59.6446 887.607 66.9016 Q895.819 74.0948 895.819 88.0357 Q895.819 102.104 887.607 109.297 Q879.459 116.49 863.481 116.49 L847.312 116.49 L847.312 154.685 L834.454 154.685 L834.454 59.6446 Z" fill="#000000" fill-rule="nonzero" fill-opacity="1" /><path clip-path="url(#clip670)" d="M968.897 116.108 L968.897 121.838 L915.043 121.838 Q915.807 133.932 922.3 140.298 Q928.857 146.6 940.506 146.6 Q947.254 146.6 953.556 144.945 Q959.922 143.29 966.16 139.98 L966.16 151.056 Q959.858 153.73 953.238 155.13 Q946.617 156.531 939.806 156.531 Q922.746 156.531 912.752 146.6 Q902.821 136.67 902.821 119.737 Q902.821 102.231 912.243 91.9824 Q921.727 81.67 937.769 81.67 Q952.156 81.67 960.495 90.9639 Q968.897 100.194 968.897 116.108 M957.184 112.671 Q957.057 103.059 951.774 97.3296 Q946.554 91.6005 937.896 91.6005 Q928.093 91.6005 922.173 97.1387 Q916.317 102.677 915.425 112.735 L957.184 112.671 Z" fill="#000000" fill-rule="nonzero" fill-opacity="1" /><path clip-path="url(#clip670)" d="M1029.44 94.3377 Q1027.46 93.1919 1025.11 92.6827 Q1022.81 92.1097 1020.01 92.1097 Q1010.08 92.1097 1004.74 98.6028 Q999.453 105.032 999.453 117.127 L999.453 154.685 L987.676 154.685 L987.676 83.3887 L999.453 83.3887 L999.453 94.4651 Q1003.14 87.972 1009.06 84.8528 Q1014.99 81.67 1023.45 81.67 Q1024.66 81.67 1026.13 81.861 Q1027.59 81.9883 1029.37 82.3066 L1029.44 94.3377 Z" fill="#000000" fill-rule="nonzero" fill-opacity="1" /><path clip-path="url(#clip670)" d="M1077.81 55.6343 L1077.81 65.3738 L1066.61 65.3738 Q1060.31 65.3738 1057.83 67.9201 Q1055.41 70.4663 1055.41 77.0867 L1055.41 83.3887 L1074.7 83.3887 L1074.7 92.4917 L1055.41 92.4917 L1055.41 154.685 L1043.63 154.685 L1043.63 92.4917 L1032.43 92.4917 L1032.43 83.3887 L1043.63 83.3887 L1043.63 78.4235 Q1043.63 66.5196 1049.17 61.1088 Q1054.71 55.6343 1066.74 55.6343 L1077.81 55.6343 Z" fill="#000000" fill-rule="nonzero" fill-opacity="1" /><path clip-path="url(#clip670)" d="M1115.24 91.6005 Q1105.82 91.6005 1100.35 98.9847 Q1094.87 106.305 1094.87 119.1 Q1094.87 131.895 1100.29 139.28 Q1105.76 146.6 1115.24 146.6 Q1124.6 146.6 1130.08 139.216 Q1135.55 131.832 1135.55 119.1 Q1135.55 106.433 1130.08 99.0484 Q1124.6 91.6005 1115.24 91.6005 M1115.24 81.67 Q1130.52 81.67 1139.24 91.6005 Q1147.96 101.531 1147.96 119.1 Q1147.96 136.606 1139.24 146.6 Q1130.52 156.531 1115.24 156.531 Q1099.9 156.531 1091.18 146.6 Q1082.53 136.606 1082.53 119.1 Q1082.53 101.531 1091.18 91.6005 Q1099.9 81.67 1115.24 81.67 Z" fill="#000000" fill-rule="nonzero" fill-opacity="1" /><path clip-path="url(#clip670)" d="M1208.69 94.3377 Q1206.72 93.1919 1204.36 92.6827 Q1202.07 92.1097 1199.27 92.1097 Q1189.34 92.1097 1183.99 98.6028 Q1178.71 105.032 1178.71 117.127 L1178.71 154.685 L1166.93 154.685 L1166.93 83.3887 L1178.71 83.3887 L1178.71 94.4651 Q1182.4 87.972 1188.32 84.8528 Q1194.24 81.67 1202.71 81.67 Q1203.92 81.67 1205.38 81.861 Q1206.85 81.9883 1208.63 82.3066 L1208.69 94.3377 Z" fill="#000000" fill-rule="nonzero" fill-opacity="1" /><path clip-path="url(#clip670)" d="M1274.2 97.075 Q1278.59 89.1815 1284.7 85.4258 Q1290.81 81.67 1299.09 81.67 Q1310.23 81.67 1316.27 89.4998 Q1322.32 97.266 1322.32 111.652 L1322.32 154.685 L1310.54 154.685 L1310.54 112.034 Q1310.54 101.786 1306.92 96.8204 Q1303.29 91.8551 1295.84 91.8551 Q1286.74 91.8551 1281.45 97.9025 Q1276.17 103.95 1276.17 114.39 L1276.17 154.685 L1264.39 154.685 L1264.39 112.034 Q1264.39 101.722 1260.77 96.8204 Q1257.14 91.8551 1249.56 91.8551 Q1240.59 91.8551 1235.3 97.9662 Q1230.02 104.014 1230.02 114.39 L1230.02 154.685 L1218.24 154.685 L1218.24 83.3887 L1230.02 83.3887 L1230.02 94.4651 Q1234.03 87.9084 1239.63 84.7892 Q1245.23 81.67 1252.94 81.67 Q1260.7 81.67 1266.11 85.6167 Q1271.59 89.5635 1274.2 97.075 Z" fill="#000000" fill-rule="nonzero" fill-opacity="1" /><path clip-path="url(#clip670)" d="M1378.08 118.846 Q1363.89 118.846 1358.41 122.092 Q1352.94 125.339 1352.94 133.169 Q1352.94 139.407 1357.01 143.099 Q1361.15 146.728 1368.22 146.728 Q1377.96 146.728 1383.81 139.853 Q1389.73 132.914 1389.73 121.456 L1389.73 118.846 L1378.08 118.846 M1401.45 114.008 L1401.45 154.685 L1389.73 154.685 L1389.73 143.863 Q1385.72 150.356 1379.74 153.475 Q1373.76 156.531 1365.1 156.531 Q1354.15 156.531 1347.66 150.42 Q1341.23 144.245 1341.23 133.932 Q1341.23 121.901 1349.25 115.79 Q1357.33 109.679 1373.31 109.679 L1389.73 109.679 L1389.73 108.533 Q1389.73 100.449 1384.39 96.0565 Q1379.1 91.6005 1369.49 91.6005 Q1363.38 91.6005 1357.59 93.0646 Q1351.79 94.5287 1346.45 97.4569 L1346.45 86.6352 Q1352.88 84.1526 1358.92 82.9431 Q1364.97 81.67 1370.7 81.67 Q1386.17 81.67 1393.81 89.6908 Q1401.45 97.7116 1401.45 114.008 Z" fill="#000000" fill-rule="nonzero" fill-opacity="1" /><path clip-path="url(#clip670)" d="M1484.84 111.652 L1484.84 154.685 L1473.12 154.685 L1473.12 112.034 Q1473.12 101.913 1469.18 96.884 Q1465.23 91.8551 1457.34 91.8551 Q1447.85 91.8551 1442.38 97.9025 Q1436.9 103.95 1436.9 114.39 L1436.9 154.685 L1425.13 154.685 L1425.13 83.3887 L1436.9 83.3887 L1436.9 94.4651 Q1441.11 88.0357 1446.77 84.8528 Q1452.5 81.67 1459.95 81.67 Q1472.23 81.67 1478.54 89.3088 Q1484.84 96.884 1484.84 111.652 Z" fill="#000000" fill-rule="nonzero" fill-opacity="1" /><path clip-path="url(#clip670)" d="M1559.51 86.126 L1559.51 97.075 Q1554.54 94.3377 1549.51 93.0009 Q1544.55 91.6005 1539.46 91.6005 Q1528.06 91.6005 1521.76 98.8574 Q1515.46 106.051 1515.46 119.1 Q1515.46 132.15 1521.76 139.407 Q1528.06 146.6 1539.46 146.6 Q1544.55 146.6 1549.51 145.263 Q1554.54 143.863 1559.51 141.126 L1559.51 151.947 Q1554.61 154.239 1549.32 155.385 Q1544.1 156.531 1538.18 156.531 Q1522.08 156.531 1512.59 146.409 Q1503.11 136.288 1503.11 119.1 Q1503.11 101.658 1512.66 91.6642 Q1522.27 81.67 1538.95 81.67 Q1544.36 81.67 1549.51 82.8158 Q1554.67 83.898 1559.51 86.126 Z" fill="#000000" fill-rule="nonzero" fill-opacity="1" /><path clip-path="url(#clip670)" d="M1640.86 116.108 L1640.86 121.838 L1587.01 121.838 Q1587.77 133.932 1594.26 140.298 Q1600.82 146.6 1612.47 146.6 Q1619.22 146.6 1625.52 144.945 Q1631.89 143.29 1638.12 139.98 L1638.12 151.056 Q1631.82 153.73 1625.2 155.13 Q1618.58 156.531 1611.77 156.531 Q1594.71 156.531 1584.72 146.6 Q1574.79 136.67 1574.79 119.737 Q1574.79 102.231 1584.21 91.9824 Q1593.69 81.67 1609.73 81.67 Q1624.12 81.67 1632.46 90.9639 Q1640.86 100.194 1640.86 116.108 M1629.15 112.671 Q1629.02 103.059 1623.74 97.3296 Q1618.52 91.6005 1609.86 91.6005 Q1600.06 91.6005 1594.14 97.1387 Q1588.28 102.677 1587.39 112.735 L1629.15 112.671 Z" fill="#000000" fill-rule="nonzero" fill-opacity="1" /><path clip-path="url(#clip670)" d="M1737.62 55.6343 L1737.62 65.3738 L1726.42 65.3738 Q1720.11 65.3738 1717.63 67.9201 Q1715.21 70.4663 1715.21 77.0867 L1715.21 83.3887 L1734.5 83.3887 L1734.5 92.4917 L1715.21 92.4917 L1715.21 154.685 L1703.44 154.685 L1703.44 92.4917 L1692.23 92.4917 L1692.23 83.3887 L1703.44 83.3887 L1703.44 78.4235 Q1703.44 66.5196 1708.97 61.1088 Q1714.51 55.6343 1726.54 55.6343 L1737.62 55.6343 Z" fill="#000000" fill-rule="nonzero" fill-opacity="1" /><path clip-path="url(#clip670)" d="M1775.05 91.6005 Q1765.63 91.6005 1760.15 98.9847 Q1754.68 106.305 1754.68 119.1 Q1754.68 131.895 1760.09 139.28 Q1765.57 146.6 1775.05 146.6 Q1784.41 146.6 1789.88 139.216 Q1795.36 131.832 1795.36 119.1 Q1795.36 106.433 1789.88 99.0484 Q1784.41 91.6005 1775.05 91.6005 M1775.05 81.67 Q1790.33 81.67 1799.05 91.6005 Q1807.77 101.531 1807.77 119.1 Q1807.77 136.606 1799.05 146.6 Q1790.33 156.531 1775.05 156.531 Q1759.71 156.531 1750.99 146.6 Q1742.33 136.606 1742.33 119.1 Q1742.33 101.531 1750.99 91.6005 Q1759.71 81.67 1775.05 81.67 Z" fill="#000000" fill-rule="nonzero" fill-opacity="1" /><path clip-path="url(#clip670)" d="M1868.5 94.3377 Q1866.53 93.1919 1864.17 92.6827 Q1861.88 92.1097 1859.08 92.1097 Q1849.15 92.1097 1843.8 98.6028 Q1838.52 105.032 1838.52 117.127 L1838.52 154.685 L1826.74 154.685 L1826.74 83.3887 L1838.52 83.3887 L1838.52 94.4651 Q1842.21 87.972 1848.13 84.8528 Q1854.05 81.67 1862.52 81.67 Q1863.72 81.67 1865.19 81.861 Q1866.65 81.9883 1868.44 82.3066 L1868.5 94.3377 Z" fill="#000000" fill-rule="nonzero" fill-opacity="1" /><path clip-path="url(#clip670)" d="M1989.62 122.092 Q1989.62 122.479 1989.1 123.96 L1978.67 152.43 Q1978.09 154.105 1977.51 154.427 Q1976.93 154.685 1974.54 154.685 L1913.48 154.685 Q1912 154.685 1911.42 154.62 Q1910.84 154.556 1910.39 154.234 Q1909.94 153.912 1909.94 153.203 Q1909.94 151.915 1910.39 151.335 Q1910.91 150.756 1911.49 150.691 Q1912.07 150.627 1913.48 150.627 Q1916.7 150.627 1918.64 150.433 Q1920.57 150.24 1921.79 149.983 Q1923.08 149.661 1923.72 148.759 Q1924.43 147.857 1924.75 147.084 Q1925.08 146.247 1925.53 144.379 L1943.18 73.5259 Q1943.69 71.4003 1943.69 71.0782 Q1943.69 69.8544 1942.92 69.5323 Q1942.21 69.1459 1940.15 68.9526 L1935.12 68.695 Q1933.58 68.695 1932.93 68.6306 Q1932.36 68.5662 1931.9 68.2441 Q1931.45 67.9221 1931.45 67.2135 Q1931.45 65.9897 1931.9 65.41 Q1932.42 64.7659 1932.81 64.7015 Q1933.26 64.5726 1933.97 64.5726 L1951.49 64.9591 L1971 64.5726 Q1973.13 64.5726 1973.13 66.1829 Q1973.13 67.9865 1972.23 68.3729 Q1971.32 68.695 1968.1 68.695 Q1961.92 68.695 1959.09 69.3391 Q1956.32 69.9832 1955.54 71.0782 Q1954.83 72.1088 1954.13 74.8785 L1936.28 146.118 Q1935.64 148.501 1935.64 149.145 Q1935.64 149.854 1935.96 150.111 Q1936.35 150.305 1937.38 150.433 Q1938.54 150.627 1940.28 150.627 L1952.64 150.627 Q1956.38 150.627 1959.67 150.047 Q1962.95 149.467 1965.46 148.63 Q1968.04 147.793 1970.36 146.247 Q1972.68 144.701 1974.29 143.348 Q1975.96 141.931 1977.57 139.741 Q1979.25 137.487 1980.21 135.941 Q1981.24 134.331 1982.4 131.754 Q1983.56 129.113 1984.14 127.632 Q1984.79 126.086 1985.75 123.445 Q1986.33 122.092 1986.53 121.706 Q1986.72 121.319 1987.04 120.997 Q1987.43 120.675 1988.01 120.675 Q1988.78 120.675 1989.17 121.126 Q1989.62 121.577 1989.62 122.092 Z" fill="#000000" fill-rule="nonzero" fill-opacity="1" /><path clip-path="url(#clip670)" d="M2006.26 121.706 Q2006.26 99.4194 2014.57 81.4485 Q2018.11 73.9123 2023.07 67.6 Q2028.03 61.2876 2031.31 58.5179 Q2034.6 55.7482 2035.5 55.7482 Q2036.79 55.7482 2036.85 57.0365 Q2036.85 57.6806 2035.11 59.2909 Q2013.86 80.9332 2013.92 121.706 Q2013.92 162.607 2034.6 183.412 Q2036.85 185.667 2036.85 186.375 Q2036.85 187.663 2035.5 187.663 Q2034.6 187.663 2031.44 185.023 Q2028.29 182.382 2023.39 176.327 Q2018.5 170.272 2014.95 162.865 Q2006.26 144.894 2006.26 121.706 Z" fill="#000000" fill-rule="nonzero" fill-opacity="1" /><path clip-path="url(#clip670)" d="M2103.49 66.6982 Q2103.49 67.6644 2102.78 69.0815 Q2102.14 70.3697 2100.79 71.2071 Q2099.5 71.98 2098.08 71.98 Q2097.63 71.98 2096.6 71.7223 Q2094.86 70.9494 2092.16 69.2103 Q2089.45 67.4712 2087 66.3762 Q2084.62 65.2168 2081.98 65.0879 Q2079.66 65.0879 2077.73 65.9253 Q2075.99 66.8915 2074.83 68.9526 Q2074.32 69.79 2074.32 71.2071 Q2074.32 73.2038 2075.41 75.8447 Q2076.5 78.4856 2078.76 81.8994 Q2081.08 85.3132 2082.75 87.632 Q2084.43 89.8865 2087.33 93.6223 Q2087.58 93.9444 2087.71 94.1376 Q2087.84 94.2664 2088.03 94.5885 Q2088.23 94.8462 2088.42 95.0394 Q2094.54 102.704 2096.09 111.142 Q2096.47 114.105 2096.47 117.197 Q2096.47 123.381 2094.6 130.659 Q2092.99 137.293 2089.58 143.026 Q2086.17 148.694 2081.01 152.43 Q2075.93 156.166 2070.39 156.166 Q2064.91 156.166 2060.4 153.783 Q2055.89 151.335 2053.19 147.148 Q2049.52 141.609 2049.52 133.944 Q2049.52 129.628 2050.55 125.957 Q2051.96 120.096 2055.31 114.685 Q2058.66 109.274 2063.49 105.088 Q2070.84 98.9041 2078.82 97.165 Q2075.09 90.0797 2072.9 84.6047 Q2070.77 79.0653 2070.77 74.3632 Q2070.77 70.2409 2072.32 67.6 Q2073.67 64.7659 2076.44 63.1556 Q2078.76 61.7385 2082.11 61.03 Q2084.17 60.7724 2085.52 60.7724 Q2090.1 60.7724 2100.72 63.2844 Q2103.49 63.9285 2103.49 66.6982 M2087.39 122.479 Q2087.39 118.55 2086.75 115.909 Q2085.52 109.468 2080.63 100.579 L2080.24 99.9347 Q2073.99 101.738 2068.9 107.213 Q2062.53 113.912 2059.31 126.601 Q2057.57 133.686 2057.57 137.68 Q2057.57 141.996 2059.18 145.731 Q2060.72 149.21 2063.62 151.206 Q2066.59 153.203 2070.51 153.203 Q2073.48 153.203 2076.05 151.528 Q2078.63 149.789 2080.5 146.762 Q2082.37 143.735 2083.65 140.45 Q2085.01 137.1 2086.04 133.171 Q2087.39 127.889 2087.39 122.479 Z" fill="#000000" fill-rule="nonzero" fill-opacity="1" /><path clip-path="url(#clip670)" d="M2112.78 186.375 Q2112.78 185.731 2114.46 184.121 Q2135.71 162.478 2135.71 121.706 Q2135.71 80.8044 2115.3 60.1282 Q2112.78 57.745 2112.78 57.0365 Q2112.78 55.7482 2114.07 55.7482 Q2114.97 55.7482 2118.13 58.3891 Q2121.35 61.03 2126.18 67.0847 Q2131.08 73.1394 2134.68 80.5468 Q2143.38 98.5176 2143.38 121.706 Q2143.38 143.992 2135.07 161.963 Q2131.53 169.499 2126.57 175.812 Q2121.61 182.124 2118.32 184.894 Q2115.04 187.663 2114.07 187.663 Q2112.78 187.663 2112.78 186.375 Z" fill="#000000" fill-rule="nonzero" fill-opacity="1" /><path clip-path="url(#clip670)" d="M2200.03 134.653 Q2200.16 133.042 2202.67 133.042 L2283.51 133.042 Q2287.31 133.042 2287.37 134.524 Q2287.37 136.134 2283.76 136.07 L2203.57 136.07 Q2200.03 136.134 2200.03 134.653 M2200.03 108.888 Q2200.03 107.278 2202.8 107.342 L2283.38 107.342 Q2287.31 107.342 2287.37 108.888 Q2287.37 110.369 2284.02 110.369 L2202.67 110.369 Q2200.03 110.369 2200.03 108.888 Z" fill="#000000" fill-rule="nonzero" fill-opacity="1" /><path clip-path="url(#clip670)" d="M2338.24 79.3873 L2338.24 75.265 Q2354.09 75.265 2362.27 66.8271 Q2364.52 66.8271 2364.91 67.3423 Q2365.3 67.8576 2365.3 70.2409 L2365.3 144.25 Q2365.3 148.179 2367.23 149.403 Q2369.16 150.627 2377.6 150.627 L2381.79 150.627 L2381.79 154.685 Q2377.15 154.298 2360.4 154.298 Q2343.65 154.298 2339.08 154.685 L2339.08 150.627 L2343.27 150.627 Q2351.58 150.627 2353.57 149.467 Q2355.57 148.243 2355.57 144.25 L2355.57 75.9091 Q2348.68 79.3873 2338.24 79.3873 Z" fill="#000000" fill-rule="nonzero" fill-opacity="1" /><path clip-path="url(#clip670)" d="M2403.57 185.796 Q2403.57 185.151 2404.08 183.734 L2450.65 59.2909 Q2450.65 59.1621 2450.97 58.4535 Q2451.3 57.745 2451.49 57.2941 Q2451.68 56.7788 2452.07 56.3924 Q2452.52 56.0059 2453.04 56.0059 Q2454.32 56.0059 2454.32 57.6162 Q2454.32 57.745 2453.94 59.2909 L2407.24 183.863 Q2406.47 186.118 2405.95 186.762 Q2405.5 187.406 2404.73 187.406 Q2403.57 187.406 2403.57 185.796 Z" fill="#000000" fill-rule="nonzero" fill-opacity="1" /><path clip-path="url(#clip670)" d="M2522.87 66.6982 Q2522.87 67.6644 2522.16 69.0815 Q2521.51 70.3697 2520.16 71.2071 Q2518.87 71.98 2517.46 71.98 Q2517.01 71.98 2515.98 71.7223 Q2514.24 70.9494 2511.53 69.2103 Q2508.83 67.4712 2506.38 66.3762 Q2503.99 65.2168 2501.35 65.0879 Q2499.03 65.0879 2497.1 65.9253 Q2495.36 66.8915 2494.2 68.9526 Q2493.69 69.79 2493.69 71.2071 Q2493.69 73.2038 2494.78 75.8447 Q2495.88 78.4856 2498.13 81.8994 Q2500.45 85.3132 2502.13 87.632 Q2503.8 89.8865 2506.7 93.6223 Q2506.96 93.9444 2507.09 94.1376 Q2507.22 94.2664 2507.41 94.5885 Q2507.6 94.8462 2507.79 95.0394 Q2513.91 102.704 2515.46 111.142 Q2515.85 114.105 2515.85 117.197 Q2515.85 123.381 2513.98 130.659 Q2512.37 137.293 2508.95 143.026 Q2505.54 148.694 2500.39 152.43 Q2495.3 156.166 2489.76 156.166 Q2484.28 156.166 2479.78 153.783 Q2475.27 151.335 2472.56 147.148 Q2468.89 141.609 2468.89 133.944 Q2468.89 129.628 2469.92 125.957 Q2471.34 120.096 2474.69 114.685 Q2478.04 109.274 2482.87 105.088 Q2490.21 98.9041 2498.2 97.165 Q2494.46 90.0797 2492.27 84.6047 Q2490.15 79.0653 2490.15 74.3632 Q2490.15 70.2409 2491.69 67.6 Q2493.04 64.7659 2495.81 63.1556 Q2498.13 61.7385 2501.48 61.03 Q2503.54 60.7724 2504.9 60.7724 Q2509.47 60.7724 2520.1 63.2844 Q2522.87 63.9285 2522.87 66.6982 M2506.76 122.479 Q2506.76 118.55 2506.12 115.909 Q2504.9 109.468 2500 100.579 L2499.61 99.9347 Q2493.37 101.738 2488.28 107.213 Q2481.9 113.912 2478.68 126.601 Q2476.94 133.686 2476.94 137.68 Q2476.94 141.996 2478.55 145.731 Q2480.1 149.21 2483 151.206 Q2485.96 153.203 2489.89 153.203 Q2492.85 153.203 2495.43 151.528 Q2498 149.789 2499.87 146.762 Q2501.74 143.735 2503.03 140.45 Q2504.38 137.1 2505.41 133.171 Q2506.76 127.889 2506.76 122.479 Z" fill="#000000" fill-rule="nonzero" fill-opacity="1" /><path clip-path="url(#clip670)" d="M2536.41 48.4137 Q2536.41 34.8422 2539.83 27.4477 Q2544.61 16.4462 2555.89 16.4462 Q2558.28 16.4462 2560.76 17.1225 Q2563.28 17.7538 2566.44 20.2336 Q2569.64 22.7135 2571.58 26.7714 Q2575.27 34.6168 2575.27 48.4137 Q2575.27 61.8951 2571.85 69.2445 Q2566.84 79.9755 2555.8 79.9755 Q2551.65 79.9755 2547.41 77.8563 Q2543.22 75.7372 2540.56 70.6422 Q2536.41 63.0223 2536.41 48.4137 M2544.07 47.2865 Q2544.07 61.2188 2545.06 66.7646 Q2546.19 72.7614 2549.26 75.3765 Q2552.37 77.9465 2555.8 77.9465 Q2559.49 77.9465 2562.56 75.1961 Q2565.67 72.4007 2566.62 66.4039 Q2567.65 60.4974 2567.61 47.2865 Q2567.61 34.4364 2566.71 29.2963 Q2565.49 23.2996 2562.24 20.9099 Q2559.04 18.4752 2555.8 18.4752 Q2554.58 18.4752 2553.27 18.8359 Q2552.01 19.1966 2550.16 20.2336 Q2548.31 21.2706 2546.87 23.8407 Q2545.47 26.4107 2544.79 30.2883 Q2544.07 35.2931 2544.07 47.2865 Z" fill="#000000" fill-rule="nonzero" fill-opacity="1" /><path clip-path="url(#clip670)" d="M2583.53 76.4586 Q2582.13 74.9707 2582.13 73.0319 Q2582.13 71.0931 2583.53 69.6954 Q2584.93 68.2526 2587.05 68.2526 Q2589.08 68.2526 2590.43 69.6052 Q2591.83 70.9128 2591.83 73.077 Q2591.83 75.1961 2590.34 76.5939 Q2588.9 77.9465 2587.05 77.9465 Q2584.93 77.9465 2583.53 76.4586 Z" fill="#000000" fill-rule="nonzero" fill-opacity="1" /><path clip-path="url(#clip670)" d="M2607.54 77.9465 Q2607.54 76.2783 2607.68 75.7823 Q2607.86 75.2863 2608.58 74.5198 L2626.3 54.7712 Q2635.99 43.8598 2635.99 34.3462 Q2635.99 28.1691 2632.75 23.7505 Q2629.55 19.3319 2623.64 19.3319 Q2619.58 19.3319 2616.15 21.8117 Q2612.73 24.2916 2611.15 28.7102 Q2611.42 28.62 2612.37 28.62 Q2614.67 28.62 2615.93 30.0628 Q2617.24 31.5057 2617.24 33.4445 Q2617.24 35.9243 2615.61 37.1417 Q2614.03 38.314 2612.46 38.314 Q2611.83 38.314 2610.97 38.1787 Q2610.16 38.0435 2608.85 36.781 Q2607.54 35.4734 2607.54 33.1739 Q2607.54 26.7263 2612.41 21.5863 Q2617.33 16.4462 2624.81 16.4462 Q2633.29 16.4462 2638.83 21.4961 Q2644.42 26.5009 2644.42 34.3462 Q2644.42 37.0966 2643.57 39.6215 Q2642.76 42.1014 2641.63 44.0402 Q2640.55 45.979 2637.57 49.0901 Q2634.6 52.2012 2632.21 54.4105 Q2629.82 56.6198 2624.45 61.309 L2614.67 70.8226 L2631.3 70.8226 Q2639.42 70.8226 2640.05 70.1012 Q2640.95 68.7936 2642.08 61.8951 L2644.42 61.8951 L2641.81 77.9465 L2607.54 77.9465 Z" fill="#000000" fill-rule="nonzero" fill-opacity="1" /><path clip-path="url(#clip670)" d="M2653.64 63.0674 Q2653.64 60.317 2655.13 59.28 Q2656.61 58.1979 2658.19 58.1979 Q2660.31 58.1979 2661.53 59.5505 Q2662.79 60.8581 2662.79 62.7067 Q2662.79 64.5553 2661.53 65.908 Q2660.31 67.2155 2658.19 67.2155 Q2657.15 67.2155 2656.61 67.0352 Q2657.83 71.2735 2661.53 74.3395 Q2665.27 77.4055 2670.19 77.4055 Q2676.36 77.4055 2680.06 71.4087 Q2682.27 67.5311 2682.27 58.7389 Q2682.27 50.9838 2680.6 47.1062 Q2678.03 41.1996 2672.76 41.1996 Q2665.27 41.1996 2660.85 47.6472 Q2660.31 48.4588 2659.68 48.5039 Q2658.78 48.5039 2658.55 48.008 Q2658.37 47.4669 2658.37 46.0692 L2658.37 18.7457 Q2658.37 16.5364 2659.27 16.5364 Q2659.63 16.5364 2660.4 16.8069 Q2666.22 19.3769 2672.66 19.422 Q2679.29 19.422 2685.24 16.7167 Q2685.7 16.4462 2685.97 16.4462 Q2686.87 16.4462 2686.91 17.4832 Q2686.91 17.8439 2686.15 18.9261 Q2685.42 19.9631 2683.85 21.3608 Q2682.27 22.7135 2680.24 24.021 Q2678.21 25.3286 2675.23 26.2303 Q2672.3 27.087 2669.06 27.087 Q2665.18 27.087 2661.21 25.8696 L2661.21 43.8598 Q2665.99 39.1707 2672.94 39.1707 Q2680.33 39.1707 2685.42 45.1223 Q2690.52 51.074 2690.52 59.3702 Q2690.52 68.0722 2684.48 74.0238 Q2678.48 79.9755 2670.37 79.9755 Q2662.97 79.9755 2658.28 74.7002 Q2653.64 69.4248 2653.64 63.0674 Z" fill="#000000" fill-rule="nonzero" fill-opacity="1" /><polyline clip-path="url(#clip672)" style="stroke:#009af9; stroke-linecap:round; stroke-linejoin:round; stroke-width:14; stroke-opacity:1; fill:none" points="473.187,867.11 541.648,1019.39 610.109,1130.87 678.571,1218.93 747.032,1291.75 815.493,1353.86 883.954,1408.01 952.415,1456.02 1020.88,1499.15 1089.34,1538.29 1157.8,1574.13 1226.26,1607.18 1294.72,1637.84 1363.18,1666.43 1431.64,1693.23 1500.1,1718.43 1568.57,1742.23 1637.03,1764.76 1705.49,1786.16 1773.95,1806.54 1842.41,1825.98 1910.87,1844.58 1979.33,1862.39 2047.79,1879.49 2116.25,1895.93 2184.72,1911.76 2253.18,1927.02 2321.64,1941.76 2390.1,1956 2458.56,1969.77 2527.02,1983.12 2595.48,1996.06 2663.94,2008.62 2732.4,2020.82 2800.87,2032.69 2869.33,2044.22 2937.79,2055.46 3006.25,2066.41 3074.71,2077.08 "/>
<polyline clip-path="url(#clip672)" style="stroke:#e26f46; stroke-linecap:round; stroke-linejoin:round; stroke-width:14; stroke-opacity:1; fill:none" stroke-dasharray="56, 35" points="473.187,834.064 541.648,993.915 610.109,1109.93 678.571,1201.04 747.032,1276.08 815.493,1339.87 883.954,1395.36 952.415,1444.45 1020.88,1488.47 1089.34,1528.37 1157.8,1564.85 1226.26,1598.46 1294.72,1629.62 1363.18,1658.65 1431.64,1685.83 1500.1,1711.38 1568.57,1735.49 1637.03,1758.31 1705.49,1779.97 1773.95,1800.59 1842.41,1820.25 1910.87,1839.05 1979.33,1857.05 2047.79,1874.32 2116.25,1890.93 2184.72,1906.91 2253.18,1922.31 2321.64,1937.18 2390.1,1951.54 2458.56,1965.44 2527.02,1978.9 2595.48,1991.95 2663.94,2004.61 2732.4,2016.9 2800.87,2028.85 2869.33,2040.48 2937.79,2051.79 3006.25,2062.82 3074.71,2073.57 "/>
<polyline clip-path="url(#clip672)" style="stroke:#3da44d; stroke-linecap:round; stroke-linejoin:round; stroke-width:14; stroke-opacity:1; fill:none" points="473.187,245.674 541.648,418.653 610.109,541.383 678.571,636.58 747.032,714.362 815.493,780.126 883.954,837.092 952.415,887.341 1020.88,932.29 1089.34,972.951 1157.8,1010.07 1226.26,1044.22 1294.72,1075.83 1363.18,1105.27 1431.64,1132.8 1500.1,1158.67 1568.57,1183.05 1637.03,1206.12 1705.49,1228 1773.95,1248.81 1842.41,1268.66 1910.87,1287.62 1979.33,1305.78 2047.79,1323.2 2116.25,1339.93 2184.72,1356.03 2253.18,1371.54 2321.64,1386.51 2390.1,1400.98 2458.56,1414.97 2527.02,1428.51 2595.48,1441.64 2663.94,1454.37 2732.4,1466.74 2800.87,1478.76 2869.33,1490.45 2937.79,1501.83 3006.25,1512.91 3074.71,1523.71 "/>
<path clip-path="url(#clip670)" d="M2056.19 566.481 L3060.84 566.481 L3060.84 255.441 L2056.19 255.441  Z" fill="#ffffff" fill-rule="evenodd" fill-opacity="1"/>
<polyline clip-path="url(#clip670)" style="stroke:#000000; stroke-linecap:round; stroke-linejoin:round; stroke-width:4; stroke-opacity:1; fill:none" points="2056.19,566.481 3060.84,566.481 3060.84,255.441 2056.19,255.441 2056.19,566.481 "/>
<polyline clip-path="url(#clip670)" style="stroke:#009af9; stroke-linecap:round; stroke-linejoin:round; stroke-width:21; stroke-opacity:1; fill:none" points="2086.83,333.201 2270.67,333.201 "/>
<path clip-path="url(#clip670)" d="M2343.12 311.274 L2343.12 318.67 Q2339.57 315.371 2335.55 313.74 Q2331.55 312.108 2327.04 312.108 Q2318.15 312.108 2313.43 317.559 Q2308.71 322.976 2308.71 333.253 Q2308.71 343.496 2313.43 348.948 Q2318.15 354.364 2327.04 354.364 Q2331.55 354.364 2335.55 352.732 Q2339.57 351.1 2343.12 347.802 L2343.12 355.128 Q2339.44 357.628 2335.3 358.878 Q2331.21 360.128 2326.62 360.128 Q2314.85 360.128 2308.08 352.941 Q2301.31 345.719 2301.31 333.253 Q2301.31 320.753 2308.08 313.566 Q2314.85 306.344 2326.62 306.344 Q2331.28 306.344 2335.37 307.594 Q2339.5 308.809 2343.12 311.274 Z" fill="#000000" fill-rule="nonzero" fill-opacity="1" /><path clip-path="url(#clip670)" d="M2368.74 324.712 Q2363.6 324.712 2360.62 328.739 Q2357.63 332.733 2357.63 339.712 Q2357.63 346.691 2360.58 350.719 Q2363.57 354.712 2368.74 354.712 Q2373.84 354.712 2376.83 350.684 Q2379.82 346.656 2379.82 339.712 Q2379.82 332.802 2376.83 328.774 Q2373.84 324.712 2368.74 324.712 M2368.74 319.295 Q2377.07 319.295 2381.83 324.712 Q2386.59 330.128 2386.59 339.712 Q2386.59 349.26 2381.83 354.712 Q2377.07 360.128 2368.74 360.128 Q2360.37 360.128 2355.62 354.712 Q2350.89 349.26 2350.89 339.712 Q2350.89 330.128 2355.62 324.712 Q2360.37 319.295 2368.74 319.295 Z" fill="#000000" fill-rule="nonzero" fill-opacity="1" /><path clip-path="url(#clip670)" d="M2429.5 335.649 L2429.5 359.121 L2423.12 359.121 L2423.12 335.857 Q2423.12 330.337 2420.96 327.594 Q2418.81 324.851 2414.5 324.851 Q2409.33 324.851 2406.34 328.149 Q2403.36 331.448 2403.36 337.142 L2403.36 359.121 L2396.93 359.121 L2396.93 320.233 L2403.36 320.233 L2403.36 326.274 Q2405.65 322.767 2408.74 321.031 Q2411.87 319.295 2415.93 319.295 Q2422.63 319.295 2426.07 323.462 Q2429.5 327.594 2429.5 335.649 Z" fill="#000000" fill-rule="nonzero" fill-opacity="1" /><path clip-path="url(#clip670)" d="M2467.04 321.378 L2467.04 327.42 Q2464.33 326.031 2461.41 325.337 Q2458.5 324.642 2455.37 324.642 Q2450.62 324.642 2448.22 326.101 Q2445.86 327.559 2445.86 330.476 Q2445.86 332.698 2447.56 333.983 Q2449.26 335.233 2454.4 336.378 L2456.59 336.864 Q2463.39 338.323 2466.24 340.996 Q2469.12 343.635 2469.12 348.392 Q2469.12 353.809 2464.82 356.968 Q2460.55 360.128 2453.05 360.128 Q2449.92 360.128 2446.52 359.503 Q2443.15 358.913 2439.4 357.698 L2439.4 351.1 Q2442.94 352.941 2446.38 353.878 Q2449.82 354.781 2453.18 354.781 Q2457.7 354.781 2460.13 353.253 Q2462.56 351.691 2462.56 348.878 Q2462.56 346.274 2460.79 344.885 Q2459.05 343.496 2453.12 342.212 L2450.89 341.691 Q2444.96 340.441 2442.32 337.871 Q2439.68 335.267 2439.68 330.753 Q2439.68 325.267 2443.57 322.281 Q2447.46 319.295 2454.61 319.295 Q2458.15 319.295 2461.27 319.816 Q2464.4 320.337 2467.04 321.378 Z" fill="#000000" fill-rule="nonzero" fill-opacity="1" /><path clip-path="url(#clip670)" d="M2485.61 309.191 L2485.61 320.233 L2498.77 320.233 L2498.77 325.198 L2485.61 325.198 L2485.61 346.309 Q2485.61 351.066 2486.9 352.42 Q2488.22 353.774 2492.21 353.774 L2498.77 353.774 L2498.77 359.121 L2492.21 359.121 Q2484.82 359.121 2482 356.378 Q2479.19 353.6 2479.19 346.309 L2479.19 325.198 L2474.5 325.198 L2474.5 320.233 L2479.19 320.233 L2479.19 309.191 L2485.61 309.191 Z" fill="#000000" fill-rule="nonzero" fill-opacity="1" /><path clip-path="url(#clip670)" d="M2529.71 326.205 Q2528.64 325.58 2527.35 325.302 Q2526.1 324.99 2524.57 324.99 Q2519.16 324.99 2516.24 328.531 Q2513.36 332.038 2513.36 338.635 L2513.36 359.121 L2506.93 359.121 L2506.93 320.233 L2513.36 320.233 L2513.36 326.274 Q2515.37 322.733 2518.6 321.031 Q2521.83 319.295 2526.45 319.295 Q2527.11 319.295 2527.91 319.399 Q2528.7 319.469 2529.68 319.642 L2529.71 326.205 Z" fill="#000000" fill-rule="nonzero" fill-opacity="1" /><path clip-path="url(#clip670)" d="M2535.75 343.774 L2535.75 320.233 L2542.14 320.233 L2542.14 343.531 Q2542.14 349.052 2544.3 351.83 Q2546.45 354.573 2550.75 354.573 Q2555.93 354.573 2558.91 351.274 Q2561.93 347.975 2561.93 342.281 L2561.93 320.233 L2568.32 320.233 L2568.32 359.121 L2561.93 359.121 L2561.93 353.149 Q2559.61 356.691 2556.52 358.427 Q2553.46 360.128 2549.4 360.128 Q2542.7 360.128 2539.23 355.962 Q2535.75 351.795 2535.75 343.774 M2551.83 319.295 L2551.83 319.295 Z" fill="#000000" fill-rule="nonzero" fill-opacity="1" /><path clip-path="url(#clip670)" d="M2609.47 321.726 L2609.47 327.698 Q2606.76 326.205 2604.02 325.476 Q2601.31 324.712 2598.53 324.712 Q2592.32 324.712 2588.88 328.67 Q2585.44 332.594 2585.44 339.712 Q2585.44 346.83 2588.88 350.788 Q2592.32 354.712 2598.53 354.712 Q2601.31 354.712 2604.02 353.982 Q2606.76 353.219 2609.47 351.725 L2609.47 357.628 Q2606.79 358.878 2603.91 359.503 Q2601.07 360.128 2597.84 360.128 Q2589.05 360.128 2583.88 354.607 Q2578.7 349.087 2578.7 339.712 Q2578.7 330.198 2583.91 324.746 Q2589.16 319.295 2598.25 319.295 Q2601.2 319.295 2604.02 319.92 Q2606.83 320.51 2609.47 321.726 Z" fill="#000000" fill-rule="nonzero" fill-opacity="1" /><path clip-path="url(#clip670)" d="M2626.9 309.191 L2626.9 320.233 L2640.06 320.233 L2640.06 325.198 L2626.9 325.198 L2626.9 346.309 Q2626.9 351.066 2628.18 352.42 Q2629.5 353.774 2633.5 353.774 L2640.06 353.774 L2640.06 359.121 L2633.5 359.121 Q2626.1 359.121 2623.29 356.378 Q2620.48 353.6 2620.48 346.309 L2620.48 325.198 L2615.79 325.198 L2615.79 320.233 L2620.48 320.233 L2620.48 309.191 L2626.9 309.191 Z" fill="#000000" fill-rule="nonzero" fill-opacity="1" /><path clip-path="url(#clip670)" d="M2648.46 320.233 L2654.85 320.233 L2654.85 359.121 L2648.46 359.121 L2648.46 320.233 M2648.46 305.094 L2654.85 305.094 L2654.85 313.184 L2648.46 313.184 L2648.46 305.094 Z" fill="#000000" fill-rule="nonzero" fill-opacity="1" /><path clip-path="url(#clip670)" d="M2663.63 320.233 L2670.41 320.233 L2682.56 352.871 L2694.71 320.233 L2701.48 320.233 L2686.9 359.121 L2678.22 359.121 L2663.63 320.233 Z" fill="#000000" fill-rule="nonzero" fill-opacity="1" /><path clip-path="url(#clip670)" d="M2743.56 338.08 L2743.56 341.205 L2714.19 341.205 Q2714.61 347.802 2718.15 351.274 Q2721.72 354.712 2728.08 354.712 Q2731.76 354.712 2735.2 353.809 Q2738.67 352.906 2742.07 351.1 L2742.07 357.142 Q2738.63 358.6 2735.02 359.364 Q2731.41 360.128 2727.7 360.128 Q2718.39 360.128 2712.94 354.712 Q2707.52 349.295 2707.52 340.059 Q2707.52 330.51 2712.66 324.92 Q2717.84 319.295 2726.59 319.295 Q2734.43 319.295 2738.98 324.365 Q2743.56 329.399 2743.56 338.08 M2737.18 336.205 Q2737.11 330.962 2734.22 327.837 Q2731.38 324.712 2726.66 324.712 Q2721.31 324.712 2718.08 327.733 Q2714.88 330.753 2714.4 336.239 L2737.18 336.205 Z" fill="#000000" fill-rule="nonzero" fill-opacity="1" /><path clip-path="url(#clip670)" d="M2776.93 307.281 L2787.38 307.281 L2800.61 342.559 L2813.91 307.281 L2824.36 307.281 L2824.36 359.121 L2817.52 359.121 L2817.52 313.601 L2804.15 349.156 L2797.11 349.156 L2783.74 313.601 L2783.74 359.121 L2776.93 359.121 L2776.93 307.281 Z" fill="#000000" fill-rule="nonzero" fill-opacity="1" /><path clip-path="url(#clip670)" d="M2871.27 338.08 L2871.27 341.205 L2841.9 341.205 Q2842.31 347.802 2845.86 351.274 Q2849.43 354.712 2855.79 354.712 Q2859.47 354.712 2862.9 353.809 Q2866.38 352.906 2869.78 351.1 L2869.78 357.142 Q2866.34 358.6 2862.73 359.364 Q2859.12 360.128 2855.4 360.128 Q2846.1 360.128 2840.65 354.712 Q2835.23 349.295 2835.23 340.059 Q2835.23 330.51 2840.37 324.92 Q2845.54 319.295 2854.29 319.295 Q2862.14 319.295 2866.69 324.365 Q2871.27 329.399 2871.27 338.08 M2864.88 336.205 Q2864.81 330.962 2861.93 327.837 Q2859.09 324.712 2854.36 324.712 Q2849.02 324.712 2845.79 327.733 Q2842.59 330.753 2842.11 336.239 L2864.88 336.205 Z" fill="#000000" fill-rule="nonzero" fill-opacity="1" /><path clip-path="url(#clip670)" d="M2888.08 309.191 L2888.08 320.233 L2901.24 320.233 L2901.24 325.198 L2888.08 325.198 L2888.08 346.309 Q2888.08 351.066 2889.36 352.42 Q2890.68 353.774 2894.68 353.774 L2901.24 353.774 L2901.24 359.121 L2894.68 359.121 Q2887.28 359.121 2884.47 356.378 Q2881.65 353.6 2881.65 346.309 L2881.65 325.198 L2876.97 325.198 L2876.97 320.233 L2881.65 320.233 L2881.65 309.191 L2888.08 309.191 Z" fill="#000000" fill-rule="nonzero" fill-opacity="1" /><path clip-path="url(#clip670)" d="M2941.97 335.649 L2941.97 359.121 L2935.58 359.121 L2935.58 335.857 Q2935.58 330.337 2933.42 327.594 Q2931.27 324.851 2926.97 324.851 Q2921.79 324.851 2918.81 328.149 Q2915.82 331.448 2915.82 337.142 L2915.82 359.121 L2909.4 359.121 L2909.4 305.094 L2915.82 305.094 L2915.82 326.274 Q2918.11 322.767 2921.2 321.031 Q2924.33 319.295 2928.39 319.295 Q2935.09 319.295 2938.53 323.462 Q2941.97 327.594 2941.97 335.649 Z" fill="#000000" fill-rule="nonzero" fill-opacity="1" /><path clip-path="url(#clip670)" d="M2969.78 324.712 Q2964.64 324.712 2961.65 328.739 Q2958.67 332.733 2958.67 339.712 Q2958.67 346.691 2961.62 350.719 Q2964.61 354.712 2969.78 354.712 Q2974.88 354.712 2977.87 350.684 Q2980.86 346.656 2980.86 339.712 Q2980.86 332.802 2977.87 328.774 Q2974.88 324.712 2969.78 324.712 M2969.78 319.295 Q2978.11 319.295 2982.87 324.712 Q2987.63 330.128 2987.63 339.712 Q2987.63 349.26 2982.87 354.712 Q2978.11 360.128 2969.78 360.128 Q2961.41 360.128 2956.65 354.712 Q2951.93 349.26 2951.93 339.712 Q2951.93 330.128 2956.65 324.712 Q2961.41 319.295 2969.78 319.295 Z" fill="#000000" fill-rule="nonzero" fill-opacity="1" /><path clip-path="url(#clip670)" d="M3023.81 326.135 L3023.81 305.094 L3030.2 305.094 L3030.2 359.121 L3023.81 359.121 L3023.81 353.288 Q3021.79 356.76 3018.7 358.462 Q3015.65 360.128 3011.34 360.128 Q3004.29 360.128 2999.85 354.503 Q2995.44 348.878 2995.44 339.712 Q2995.44 330.545 2999.85 324.92 Q3004.29 319.295 3011.34 319.295 Q3015.65 319.295 3018.7 320.996 Q3021.79 322.663 3023.81 326.135 M3002.04 339.712 Q3002.04 346.76 3004.92 350.788 Q3007.83 354.781 3012.9 354.781 Q3017.97 354.781 3020.89 350.788 Q3023.81 346.76 3023.81 339.712 Q3023.81 332.663 3020.89 328.67 Q3017.97 324.642 3012.9 324.642 Q3007.83 324.642 3004.92 328.67 Q3002.04 332.663 3002.04 339.712 Z" fill="#000000" fill-rule="nonzero" fill-opacity="1" /><polyline clip-path="url(#clip670)" style="stroke:#e26f46; stroke-linecap:round; stroke-linejoin:round; stroke-width:21; stroke-opacity:1; fill:none" stroke-dasharray="84, 53" points="2086.83,410.961 2270.67,410.961 "/>
<path clip-path="url(#clip670)" d="M2325.06 391.951 L2315.55 417.749 L2334.61 417.749 L2325.06 391.951 M2321.1 385.041 L2329.05 385.041 L2348.81 436.881 L2341.52 436.881 L2336.8 423.583 L2313.43 423.583 L2308.71 436.881 L2301.31 436.881 L2321.1 385.041 Z" fill="#000000" fill-rule="nonzero" fill-opacity="1" /><path clip-path="url(#clip670)" d="M2380.89 399.138 L2380.89 405.18 Q2378.18 403.791 2375.27 403.097 Q2372.35 402.402 2369.23 402.402 Q2364.47 402.402 2362.07 403.861 Q2359.71 405.319 2359.71 408.236 Q2359.71 410.458 2361.41 411.743 Q2363.12 412.993 2368.25 414.138 L2370.44 414.624 Q2377.25 416.083 2380.09 418.756 Q2382.98 421.395 2382.98 426.152 Q2382.98 431.569 2378.67 434.728 Q2374.4 437.888 2366.9 437.888 Q2363.78 437.888 2360.37 437.263 Q2357 436.673 2353.25 435.458 L2353.25 428.86 Q2356.8 430.701 2360.23 431.638 Q2363.67 432.541 2367.04 432.541 Q2371.55 432.541 2373.98 431.013 Q2376.41 429.451 2376.41 426.638 Q2376.41 424.034 2374.64 422.645 Q2372.91 421.256 2366.97 419.972 L2364.75 419.451 Q2358.81 418.201 2356.17 415.631 Q2353.53 413.027 2353.53 408.513 Q2353.53 403.027 2357.42 400.041 Q2361.31 397.055 2368.46 397.055 Q2372 397.055 2375.13 397.576 Q2378.25 398.097 2380.89 399.138 Z" fill="#000000" fill-rule="nonzero" fill-opacity="1" /><path clip-path="url(#clip670)" d="M2409.33 440.492 Q2406.62 447.437 2404.05 449.555 Q2401.48 451.673 2397.18 451.673 L2392.07 451.673 L2392.07 446.326 L2395.82 446.326 Q2398.46 446.326 2399.92 445.076 Q2401.38 443.826 2403.15 439.173 L2404.3 436.256 L2388.57 397.993 L2395.34 397.993 L2407.49 428.409 L2419.64 397.993 L2426.41 397.993 L2409.33 440.492 Z" fill="#000000" fill-rule="nonzero" fill-opacity="1" /><path clip-path="url(#clip670)" d="M2465.51 405.458 Q2467.91 401.152 2471.24 399.104 Q2474.57 397.055 2479.09 397.055 Q2485.16 397.055 2488.46 401.326 Q2491.76 405.562 2491.76 413.409 L2491.76 436.881 L2485.34 436.881 L2485.34 413.617 Q2485.34 408.027 2483.36 405.319 Q2481.38 402.611 2477.32 402.611 Q2472.35 402.611 2469.47 405.909 Q2466.59 409.208 2466.59 414.902 L2466.59 436.881 L2460.16 436.881 L2460.16 413.617 Q2460.16 407.993 2458.18 405.319 Q2456.21 402.611 2452.07 402.611 Q2447.18 402.611 2444.3 405.944 Q2441.41 409.243 2441.41 414.902 L2441.41 436.881 L2434.99 436.881 L2434.99 397.993 L2441.41 397.993 L2441.41 404.034 Q2443.6 400.458 2446.66 398.756 Q2449.71 397.055 2453.91 397.055 Q2458.15 397.055 2461.1 399.208 Q2464.09 401.361 2465.51 405.458 Z" fill="#000000" fill-rule="nonzero" fill-opacity="1" /><path clip-path="url(#clip670)" d="M2510.68 431.048 L2510.68 451.673 L2504.26 451.673 L2504.26 397.993 L2510.68 397.993 L2510.68 403.895 Q2512.7 400.423 2515.75 398.756 Q2518.84 397.055 2523.11 397.055 Q2530.2 397.055 2534.61 402.68 Q2539.05 408.305 2539.05 417.472 Q2539.05 426.638 2534.61 432.263 Q2530.2 437.888 2523.11 437.888 Q2518.84 437.888 2515.75 436.222 Q2512.7 434.52 2510.68 431.048 M2532.42 417.472 Q2532.42 410.423 2529.5 406.43 Q2526.62 402.402 2521.55 402.402 Q2516.48 402.402 2513.57 406.43 Q2510.68 410.423 2510.68 417.472 Q2510.68 424.52 2513.57 428.548 Q2516.48 432.541 2521.55 432.541 Q2526.62 432.541 2529.5 428.548 Q2532.42 424.52 2532.42 417.472 Z" fill="#000000" fill-rule="nonzero" fill-opacity="1" /><path clip-path="url(#clip670)" d="M2555.96 386.951 L2555.96 397.993 L2569.12 397.993 L2569.12 402.958 L2555.96 402.958 L2555.96 424.069 Q2555.96 428.826 2557.25 430.18 Q2558.57 431.534 2562.56 431.534 L2569.12 431.534 L2569.12 436.881 L2562.56 436.881 Q2555.16 436.881 2552.35 434.138 Q2549.54 431.36 2549.54 424.069 L2549.54 402.958 L2544.85 402.958 L2544.85 397.993 L2549.54 397.993 L2549.54 386.951 L2555.96 386.951 Z" fill="#000000" fill-rule="nonzero" fill-opacity="1" /><path clip-path="url(#clip670)" d="M2592.59 402.472 Q2587.45 402.472 2584.47 406.499 Q2581.48 410.493 2581.48 417.472 Q2581.48 424.451 2584.43 428.479 Q2587.42 432.472 2592.59 432.472 Q2597.7 432.472 2600.68 428.444 Q2603.67 424.416 2603.67 417.472 Q2603.67 410.562 2600.68 406.534 Q2597.7 402.472 2592.59 402.472 M2592.59 397.055 Q2600.93 397.055 2605.68 402.472 Q2610.44 407.888 2610.44 417.472 Q2610.44 427.02 2605.68 432.472 Q2600.93 437.888 2592.59 437.888 Q2584.23 437.888 2579.47 432.472 Q2574.75 427.02 2574.75 417.472 Q2574.75 407.888 2579.47 402.472 Q2584.23 397.055 2592.59 397.055 Z" fill="#000000" fill-rule="nonzero" fill-opacity="1" /><path clip-path="url(#clip670)" d="M2627.35 386.951 L2627.35 397.993 L2640.51 397.993 L2640.51 402.958 L2627.35 402.958 L2627.35 424.069 Q2627.35 428.826 2628.63 430.18 Q2629.95 431.534 2633.95 431.534 L2640.51 431.534 L2640.51 436.881 L2633.95 436.881 Q2626.55 436.881 2623.74 434.138 Q2620.93 431.36 2620.93 424.069 L2620.93 402.958 L2616.24 402.958 L2616.24 397.993 L2620.93 397.993 L2620.93 386.951 L2627.35 386.951 Z" fill="#000000" fill-rule="nonzero" fill-opacity="1" /><path clip-path="url(#clip670)" d="M2648.91 397.993 L2655.3 397.993 L2655.3 436.881 L2648.91 436.881 L2648.91 397.993 M2648.91 382.854 L2655.3 382.854 L2655.3 390.944 L2648.91 390.944 L2648.91 382.854 Z" fill="#000000" fill-rule="nonzero" fill-opacity="1" /><path clip-path="url(#clip670)" d="M2696.66 399.486 L2696.66 405.458 Q2693.95 403.965 2691.2 403.236 Q2688.5 402.472 2685.72 402.472 Q2679.5 402.472 2676.07 406.43 Q2672.63 410.354 2672.63 417.472 Q2672.63 424.59 2676.07 428.548 Q2679.5 432.472 2685.72 432.472 Q2688.5 432.472 2691.2 431.742 Q2693.95 430.979 2696.66 429.485 L2696.66 435.388 Q2693.98 436.638 2691.1 437.263 Q2688.25 437.888 2685.02 437.888 Q2676.24 437.888 2671.07 432.367 Q2665.89 426.847 2665.89 417.472 Q2665.89 407.958 2671.1 402.506 Q2676.34 397.055 2685.44 397.055 Q2688.39 397.055 2691.2 397.68 Q2694.02 398.27 2696.66 399.486 Z" fill="#000000" fill-rule="nonzero" fill-opacity="1" /><path clip-path="url(#clip670)" d="M2723.46 385.041 L2767.31 385.041 L2767.31 390.944 L2748.91 390.944 L2748.91 436.881 L2741.86 436.881 L2741.86 390.944 L2723.46 390.944 L2723.46 385.041 Z" fill="#000000" fill-rule="nonzero" fill-opacity="1" /><path clip-path="url(#clip670)" d="M2806.13 413.409 L2806.13 436.881 L2799.75 436.881 L2799.75 413.617 Q2799.75 408.097 2797.59 405.354 Q2795.44 402.611 2791.13 402.611 Q2785.96 402.611 2782.97 405.909 Q2779.99 409.208 2779.99 414.902 L2779.99 436.881 L2773.56 436.881 L2773.56 382.854 L2779.99 382.854 L2779.99 404.034 Q2782.28 400.527 2785.37 398.791 Q2788.5 397.055 2792.56 397.055 Q2799.26 397.055 2802.7 401.222 Q2806.13 405.354 2806.13 413.409 Z" fill="#000000" fill-rule="nonzero" fill-opacity="1" /><path clip-path="url(#clip670)" d="M2852.14 415.84 L2852.14 418.965 L2822.77 418.965 Q2823.18 425.562 2826.72 429.034 Q2830.3 432.472 2836.65 432.472 Q2840.34 432.472 2843.77 431.569 Q2847.24 430.666 2850.65 428.86 L2850.65 434.902 Q2847.21 436.36 2843.6 437.124 Q2839.99 437.888 2836.27 437.888 Q2826.97 437.888 2821.52 432.472 Q2816.1 427.055 2816.1 417.819 Q2816.1 408.27 2821.24 402.68 Q2826.41 397.055 2835.16 397.055 Q2843.01 397.055 2847.56 402.125 Q2852.14 407.159 2852.14 415.84 M2845.75 413.965 Q2845.68 408.722 2842.8 405.597 Q2839.95 402.472 2835.23 402.472 Q2829.88 402.472 2826.65 405.493 Q2823.46 408.513 2822.97 413.999 L2845.75 413.965 Z" fill="#000000" fill-rule="nonzero" fill-opacity="1" /><path clip-path="url(#clip670)" d="M2877.7 402.472 Q2872.56 402.472 2869.57 406.499 Q2866.59 410.493 2866.59 417.472 Q2866.59 424.451 2869.54 428.479 Q2872.52 432.472 2877.7 432.472 Q2882.8 432.472 2885.79 428.444 Q2888.77 424.416 2888.77 417.472 Q2888.77 410.562 2885.79 406.534 Q2882.8 402.472 2877.7 402.472 M2877.7 397.055 Q2886.03 397.055 2890.79 402.472 Q2895.54 407.888 2895.54 417.472 Q2895.54 427.02 2890.79 432.472 Q2886.03 437.888 2877.7 437.888 Q2869.33 437.888 2864.57 432.472 Q2859.85 427.02 2859.85 417.472 Q2859.85 407.888 2864.57 402.472 Q2869.33 397.055 2877.7 397.055 Z" fill="#000000" fill-rule="nonzero" fill-opacity="1" /><path clip-path="url(#clip670)" d="M2928.67 403.965 Q2927.59 403.34 2926.31 403.062 Q2925.06 402.75 2923.53 402.75 Q2918.11 402.75 2915.2 406.291 Q2912.31 409.798 2912.31 416.395 L2912.31 436.881 L2905.89 436.881 L2905.89 397.993 L2912.31 397.993 L2912.31 404.034 Q2914.33 400.493 2917.56 398.791 Q2920.79 397.055 2925.4 397.055 Q2926.06 397.055 2926.86 397.159 Q2927.66 397.229 2928.63 397.402 L2928.67 403.965 Z" fill="#000000" fill-rule="nonzero" fill-opacity="1" /><path clip-path="url(#clip670)" d="M2951.55 440.492 Q2948.84 447.437 2946.27 449.555 Q2943.7 451.673 2939.4 451.673 L2934.29 451.673 L2934.29 446.326 L2938.04 446.326 Q2940.68 446.326 2942.14 445.076 Q2943.6 443.826 2945.37 439.173 L2946.52 436.256 L2930.79 397.993 L2937.56 397.993 L2949.71 428.409 L2961.86 397.993 L2968.63 397.993 L2951.55 440.492 Z" fill="#000000" fill-rule="nonzero" fill-opacity="1" /><polyline clip-path="url(#clip670)" style="stroke:#3da44d; stroke-linecap:round; stroke-linejoin:round; stroke-width:21; stroke-opacity:1; fill:none" points="2086.83,488.721 2270.67,488.721 "/>
<path clip-path="url(#clip670)" d="M2301.31 462.801 L2310.75 462.801 L2333.74 506.169 L2333.74 462.801 L2340.55 462.801 L2340.55 514.641 L2331.1 514.641 L2308.12 471.273 L2308.12 514.641 L2301.31 514.641 L2301.31 462.801 Z" fill="#000000" fill-rule="nonzero" fill-opacity="1" /><path clip-path="url(#clip670)" d="M2387.49 493.6 L2387.49 496.725 L2358.12 496.725 Q2358.53 503.322 2362.07 506.794 Q2365.65 510.232 2372 510.232 Q2375.68 510.232 2379.12 509.329 Q2382.59 508.426 2386 506.62 L2386 512.662 Q2382.56 514.12 2378.95 514.884 Q2375.34 515.648 2371.62 515.648 Q2362.32 515.648 2356.87 510.232 Q2351.45 504.815 2351.45 495.579 Q2351.45 486.03 2356.59 480.44 Q2361.76 474.815 2370.51 474.815 Q2378.36 474.815 2382.91 479.885 Q2387.49 484.919 2387.49 493.6 M2381.1 491.725 Q2381.03 486.482 2378.15 483.357 Q2375.3 480.232 2370.58 480.232 Q2365.23 480.232 2362 483.253 Q2358.81 486.273 2358.32 491.759 L2381.1 491.725 Z" fill="#000000" fill-rule="nonzero" fill-opacity="1" /><path clip-path="url(#clip670)" d="M2422.77 476.898 L2422.77 482.94 Q2420.06 481.551 2417.14 480.857 Q2414.23 480.162 2411.1 480.162 Q2406.34 480.162 2403.95 481.621 Q2401.59 483.079 2401.59 485.996 Q2401.59 488.218 2403.29 489.503 Q2404.99 490.753 2410.13 491.898 L2412.32 492.384 Q2419.12 493.843 2421.97 496.516 Q2424.85 499.155 2424.85 503.912 Q2424.85 509.329 2420.55 512.488 Q2416.27 515.648 2408.77 515.648 Q2405.65 515.648 2402.25 515.023 Q2398.88 514.433 2395.13 513.218 L2395.13 506.62 Q2398.67 508.461 2402.11 509.398 Q2405.55 510.301 2408.91 510.301 Q2413.43 510.301 2415.86 508.773 Q2418.29 507.211 2418.29 504.398 Q2418.29 501.794 2416.52 500.405 Q2414.78 499.016 2408.84 497.732 L2406.62 497.211 Q2400.68 495.961 2398.05 493.391 Q2395.41 490.787 2395.41 486.273 Q2395.41 480.787 2399.3 477.801 Q2403.18 474.815 2410.34 474.815 Q2413.88 474.815 2417 475.336 Q2420.13 475.857 2422.77 476.898 Z" fill="#000000" fill-rule="nonzero" fill-opacity="1" /><path clip-path="url(#clip670)" d="M2441.34 464.711 L2441.34 475.753 L2454.5 475.753 L2454.5 480.718 L2441.34 480.718 L2441.34 501.829 Q2441.34 506.586 2442.63 507.94 Q2443.95 509.294 2447.94 509.294 L2454.5 509.294 L2454.5 514.641 L2447.94 514.641 Q2440.55 514.641 2437.73 511.898 Q2434.92 509.12 2434.92 501.829 L2434.92 480.718 L2430.23 480.718 L2430.23 475.753 L2434.92 475.753 L2434.92 464.711 L2441.34 464.711 Z" fill="#000000" fill-rule="nonzero" fill-opacity="1" /><path clip-path="url(#clip670)" d="M2496.17 493.6 L2496.17 496.725 L2466.8 496.725 Q2467.21 503.322 2470.75 506.794 Q2474.33 510.232 2480.68 510.232 Q2484.36 510.232 2487.8 509.329 Q2491.27 508.426 2494.68 506.62 L2494.68 512.662 Q2491.24 514.12 2487.63 514.884 Q2484.02 515.648 2480.3 515.648 Q2471 515.648 2465.55 510.232 Q2460.13 504.815 2460.13 495.579 Q2460.13 486.03 2465.27 480.44 Q2470.44 474.815 2479.19 474.815 Q2487.04 474.815 2491.59 479.885 Q2496.17 484.919 2496.17 493.6 M2489.78 491.725 Q2489.71 486.482 2486.83 483.357 Q2483.98 480.232 2479.26 480.232 Q2473.91 480.232 2470.68 483.253 Q2467.49 486.273 2467 491.759 L2489.78 491.725 Z" fill="#000000" fill-rule="nonzero" fill-opacity="1" /><path clip-path="url(#clip670)" d="M2529.19 481.725 Q2528.11 481.1 2526.83 480.822 Q2525.58 480.51 2524.05 480.51 Q2518.64 480.51 2515.72 484.051 Q2512.84 487.558 2512.84 494.155 L2512.84 514.641 L2506.41 514.641 L2506.41 475.753 L2512.84 475.753 L2512.84 481.794 Q2514.85 478.253 2518.08 476.551 Q2521.31 474.815 2525.93 474.815 Q2526.59 474.815 2527.39 474.919 Q2528.18 474.989 2529.16 475.162 L2529.19 481.725 Z" fill="#000000" fill-rule="nonzero" fill-opacity="1" /><path clip-path="url(#clip670)" d="M2549.4 480.232 Q2544.26 480.232 2541.27 484.259 Q2538.29 488.253 2538.29 495.232 Q2538.29 502.211 2541.24 506.239 Q2544.23 510.232 2549.4 510.232 Q2554.5 510.232 2557.49 506.204 Q2560.48 502.176 2560.48 495.232 Q2560.48 488.322 2557.49 484.294 Q2554.5 480.232 2549.4 480.232 M2549.4 474.815 Q2557.73 474.815 2562.49 480.232 Q2567.25 485.648 2567.25 495.232 Q2567.25 504.78 2562.49 510.232 Q2557.73 515.648 2549.4 515.648 Q2541.03 515.648 2536.27 510.232 Q2531.55 504.78 2531.55 495.232 Q2531.55 485.648 2536.27 480.232 Q2541.03 474.815 2549.4 474.815 Z" fill="#000000" fill-rule="nonzero" fill-opacity="1" /><path clip-path="url(#clip670)" d="M2573.25 475.753 L2580.02 475.753 L2592.18 508.391 L2604.33 475.753 L2611.1 475.753 L2596.52 514.641 L2587.84 514.641 L2573.25 475.753 Z" fill="#000000" fill-rule="nonzero" fill-opacity="1" /><path clip-path="url(#clip670)" d="M2642 462.801 L2649.05 462.801 L2649.05 494.294 Q2649.05 502.627 2652.07 506.308 Q2655.09 509.954 2661.86 509.954 Q2668.6 509.954 2671.62 506.308 Q2674.64 502.627 2674.64 494.294 L2674.64 462.801 L2681.69 462.801 L2681.69 495.162 Q2681.69 505.301 2676.66 510.475 Q2671.66 515.648 2661.86 515.648 Q2652.04 515.648 2647 510.475 Q2642 505.301 2642 495.162 L2642 462.801 Z" fill="#000000" fill-rule="nonzero" fill-opacity="1" /><path clip-path="url(#clip670)" d="M2694.85 462.801 L2724.64 462.801 L2724.64 468.704 L2701.86 468.704 L2701.86 483.982 L2722.42 483.982 L2722.42 489.884 L2701.86 489.884 L2701.86 514.641 L2694.85 514.641 L2694.85 462.801 Z" fill="#000000" fill-rule="nonzero" fill-opacity="1" /><path clip-path="url(#clip670)" d="M2771.1 507.245 L2771.1 493.322 L2759.64 493.322 L2759.64 487.558 L2778.04 487.558 L2778.04 509.815 Q2773.98 512.697 2769.09 514.19 Q2764.19 515.648 2758.63 515.648 Q2746.48 515.648 2739.61 508.565 Q2732.77 501.447 2732.77 488.773 Q2732.77 476.065 2739.61 468.982 Q2746.48 461.864 2758.63 461.864 Q2763.7 461.864 2768.25 463.114 Q2772.84 464.364 2776.69 466.794 L2776.69 474.26 Q2772.8 470.961 2768.43 469.294 Q2764.05 467.628 2759.22 467.628 Q2749.71 467.628 2744.92 472.94 Q2740.16 478.253 2740.16 488.773 Q2740.16 499.259 2744.92 504.572 Q2749.71 509.884 2759.22 509.884 Q2762.94 509.884 2765.86 509.259 Q2768.77 508.6 2771.1 507.245 Z" fill="#000000" fill-rule="nonzero" fill-opacity="1" /><path clip-path="url(#clip670)" d="M2790.86 462.801 L2801.31 462.801 L2814.54 498.079 L2827.84 462.801 L2838.29 462.801 L2838.29 514.641 L2831.45 514.641 L2831.45 469.121 L2818.08 504.676 L2811.03 504.676 L2797.66 469.121 L2797.66 514.641 L2790.86 514.641 L2790.86 462.801 Z" fill="#000000" fill-rule="nonzero" fill-opacity="1" /></svg>
